<?xml version="1.0" encoding="utf-8" standalone="no"?>
<!DOCTYPE svg PUBLIC "-//W3C//DTD SVG 1.1//EN"
  "http://www.w3.org/Graphics/SVG/1.1/DTD/svg11.dtd">
<svg xmlns:xlink="http://www.w3.org/1999/xlink" width="386.73pt" height="360pt" viewBox="0 0 386.73 360" xmlns="http://www.w3.org/2000/svg" version="1.1">
 <metadata>
  <rdf:RDF xmlns:dc="http://purl.org/dc/elements/1.1/" xmlns:cc="http://creativecommons.org/ns#" xmlns:rdf="http://www.w3.org/1999/02/22-rdf-syntax-ns#">
   <cc:Work>
    <dc:type rdf:resource="http://purl.org/dc/dcmitype/StillImage"/>
    <dc:date>2024-12-02T13:28:23.297886</dc:date>
    <dc:format>image/svg+xml</dc:format>
    <dc:creator>
     <cc:Agent>
      <dc:title>Matplotlib v3.9.0, https://matplotlib.org/</dc:title>
     </cc:Agent>
    </dc:creator>
   </cc:Work>
  </rdf:RDF>
 </metadata>
 <defs>
  <style type="text/css">*{stroke-linejoin: round; stroke-linecap: butt}</style>
 </defs>
 <g id="figure_1">
  <g id="patch_1">
   <path d="M 0 360 
L 386.73 360 
L 386.73 0 
L 0 0 
L 0 360 
z
" style="fill: none"/>
  </g>
  <g id="axes_1">
   <g id="patch_2">
    <path d="M 87.618 305.452 
L 154.892317 305.452 
L 154.892317 45.168 
L 87.618 45.168 
z
" style="fill: #ffffff"/>
   </g>
   <g id="matplotlib.axis_1">
    <g id="xtick_1">
     <g id="text_1">
      <!-- 4.0 -->
      <g style="fill: #262626" transform="translate(90.675579 332.124469) scale(0.198 -0.198)">
       <defs>
        <path id="ArialMT-34" d="M 2069 0 
L 2069 1097 
L 81 1097 
L 81 1613 
L 2172 4581 
L 2631 4581 
L 2631 1613 
L 3250 1613 
L 3250 1097 
L 2631 1097 
L 2631 0 
L 2069 0 
z
M 2069 1613 
L 2069 3678 
L 634 1613 
L 2069 1613 
z
" transform="scale(0.015625)"/>
        <path id="ArialMT-2e" d="M 581 0 
L 581 641 
L 1222 641 
L 1222 0 
L 581 0 
z
" transform="scale(0.015625)"/>
        <path id="ArialMT-30" d="M 266 2259 
Q 266 3072 433 3567 
Q 600 4063 929 4331 
Q 1259 4600 1759 4600 
Q 2128 4600 2406 4451 
Q 2684 4303 2865 4023 
Q 3047 3744 3150 3342 
Q 3253 2941 3253 2259 
Q 3253 1453 3087 958 
Q 2922 463 2592 192 
Q 2263 -78 1759 -78 
Q 1097 -78 719 397 
Q 266 969 266 2259 
z
M 844 2259 
Q 844 1131 1108 757 
Q 1372 384 1759 384 
Q 2147 384 2411 759 
Q 2675 1134 2675 2259 
Q 2675 3391 2411 3762 
Q 2147 4134 1753 4134 
Q 1366 4134 1134 3806 
Q 844 3388 844 2259 
z
" transform="scale(0.015625)"/>
       </defs>
       <use xlink:href="#ArialMT-34"/>
       <use xlink:href="#ArialMT-2e" x="55.615234"/>
       <use xlink:href="#ArialMT-30" x="83.398438"/>
      </g>
     </g>
    </g>
    <g id="xtick_2">
     <g id="text_2">
      <!-- 7.4 -->
      <g style="fill: #262626" transform="translate(124.312738 332.124469) scale(0.198 -0.198)">
       <defs>
        <path id="ArialMT-37" d="M 303 3981 
L 303 4522 
L 3269 4522 
L 3269 4084 
Q 2831 3619 2401 2847 
Q 1972 2075 1738 1259 
Q 1569 684 1522 0 
L 944 0 
Q 953 541 1156 1306 
Q 1359 2072 1739 2783 
Q 2119 3494 2547 3981 
L 303 3981 
z
" transform="scale(0.015625)"/>
       </defs>
       <use xlink:href="#ArialMT-37"/>
       <use xlink:href="#ArialMT-2e" x="55.615234"/>
       <use xlink:href="#ArialMT-34" x="83.398438"/>
      </g>
     </g>
    </g>
   </g>
   <g id="matplotlib.axis_2">
    <g id="ytick_1">
     <g id="line2d_1">
      <path d="M 87.618 293.454152 
L 154.892317 293.454152 
" clip-path="url(#p390d68b881)" style="fill: none; stroke: #d3d3d3; stroke-width: 2; stroke-linecap: round"/>
     </g>
     <g id="text_3">
      <!-- 0 -->
      <g style="fill: #262626" transform="translate(64.107344 300.540386) scale(0.198 -0.198)">
       <use xlink:href="#ArialMT-30"/>
      </g>
     </g>
    </g>
    <g id="ytick_2">
     <g id="line2d_2">
      <path d="M 87.618 211.307775 
L 154.892317 211.307775 
" clip-path="url(#p390d68b881)" style="fill: none; stroke: #d3d3d3; stroke-width: 2; stroke-linecap: round"/>
     </g>
     <g id="text_4">
      <!-- 1 -->
      <g style="fill: #262626" transform="translate(64.107344 218.394009) scale(0.198 -0.198)">
       <defs>
        <path id="ArialMT-31" d="M 2384 0 
L 1822 0 
L 1822 3584 
Q 1619 3391 1289 3197 
Q 959 3003 697 2906 
L 697 3450 
Q 1169 3672 1522 3987 
Q 1875 4303 2022 4600 
L 2384 4600 
L 2384 0 
z
" transform="scale(0.015625)"/>
       </defs>
       <use xlink:href="#ArialMT-31"/>
      </g>
     </g>
    </g>
    <g id="ytick_3">
     <g id="line2d_3">
      <path d="M 87.618 129.161397 
L 154.892317 129.161397 
" clip-path="url(#p390d68b881)" style="fill: none; stroke: #d3d3d3; stroke-width: 2; stroke-linecap: round"/>
     </g>
     <g id="text_5">
      <!-- 2 -->
      <g style="fill: #262626" transform="translate(64.107344 136.247632) scale(0.198 -0.198)">
       <defs>
        <path id="ArialMT-32" d="M 3222 541 
L 3222 0 
L 194 0 
Q 188 203 259 391 
Q 375 700 629 1000 
Q 884 1300 1366 1694 
Q 2113 2306 2375 2664 
Q 2638 3022 2638 3341 
Q 2638 3675 2398 3904 
Q 2159 4134 1775 4134 
Q 1369 4134 1125 3890 
Q 881 3647 878 3216 
L 300 3275 
Q 359 3922 746 4261 
Q 1134 4600 1788 4600 
Q 2447 4600 2831 4234 
Q 3216 3869 3216 3328 
Q 3216 3053 3103 2787 
Q 2991 2522 2730 2228 
Q 2469 1934 1863 1422 
Q 1356 997 1212 845 
Q 1069 694 975 541 
L 3222 541 
z
" transform="scale(0.015625)"/>
       </defs>
       <use xlink:href="#ArialMT-32"/>
      </g>
     </g>
    </g>
    <g id="ytick_4">
     <g id="line2d_4">
      <path d="M 87.618 47.01502 
L 154.892317 47.01502 
" clip-path="url(#p390d68b881)" style="fill: none; stroke: #d3d3d3; stroke-width: 2; stroke-linecap: round"/>
     </g>
     <g id="text_6">
      <!-- 3 -->
      <g style="fill: #262626" transform="translate(64.107344 54.101255) scale(0.198 -0.198)">
       <defs>
        <path id="ArialMT-33" d="M 269 1209 
L 831 1284 
Q 928 806 1161 595 
Q 1394 384 1728 384 
Q 2125 384 2398 659 
Q 2672 934 2672 1341 
Q 2672 1728 2419 1979 
Q 2166 2231 1775 2231 
Q 1616 2231 1378 2169 
L 1441 2663 
Q 1497 2656 1531 2656 
Q 1891 2656 2178 2843 
Q 2466 3031 2466 3422 
Q 2466 3731 2256 3934 
Q 2047 4138 1716 4138 
Q 1388 4138 1169 3931 
Q 950 3725 888 3313 
L 325 3413 
Q 428 3978 793 4289 
Q 1159 4600 1703 4600 
Q 2078 4600 2393 4439 
Q 2709 4278 2876 4000 
Q 3044 3722 3044 3409 
Q 3044 3113 2884 2869 
Q 2725 2625 2413 2481 
Q 2819 2388 3044 2092 
Q 3269 1797 3269 1353 
Q 3269 753 2831 336 
Q 2394 -81 1725 -81 
Q 1122 -81 723 278 
Q 325 638 269 1209 
z
" transform="scale(0.015625)"/>
       </defs>
       <use xlink:href="#ArialMT-33"/>
      </g>
     </g>
    </g>
    <g id="text_7">
     <!-- Fluorescence (10K) -->
     <g style="fill: #262626" transform="translate(55.561219 269.545062) rotate(-90) scale(0.216 -0.216)">
      <defs>
       <path id="ArialMT-46" d="M 525 0 
L 525 4581 
L 3616 4581 
L 3616 4041 
L 1131 4041 
L 1131 2622 
L 3281 2622 
L 3281 2081 
L 1131 2081 
L 1131 0 
L 525 0 
z
" transform="scale(0.015625)"/>
       <path id="ArialMT-6c" d="M 409 0 
L 409 4581 
L 972 4581 
L 972 0 
L 409 0 
z
" transform="scale(0.015625)"/>
       <path id="ArialMT-75" d="M 2597 0 
L 2597 488 
Q 2209 -75 1544 -75 
Q 1250 -75 995 37 
Q 741 150 617 320 
Q 494 491 444 738 
Q 409 903 409 1263 
L 409 3319 
L 972 3319 
L 972 1478 
Q 972 1038 1006 884 
Q 1059 663 1231 536 
Q 1403 409 1656 409 
Q 1909 409 2131 539 
Q 2353 669 2445 892 
Q 2538 1116 2538 1541 
L 2538 3319 
L 3100 3319 
L 3100 0 
L 2597 0 
z
" transform="scale(0.015625)"/>
       <path id="ArialMT-6f" d="M 213 1659 
Q 213 2581 725 3025 
Q 1153 3394 1769 3394 
Q 2453 3394 2887 2945 
Q 3322 2497 3322 1706 
Q 3322 1066 3130 698 
Q 2938 331 2570 128 
Q 2203 -75 1769 -75 
Q 1072 -75 642 372 
Q 213 819 213 1659 
z
M 791 1659 
Q 791 1022 1069 705 
Q 1347 388 1769 388 
Q 2188 388 2466 706 
Q 2744 1025 2744 1678 
Q 2744 2294 2464 2611 
Q 2184 2928 1769 2928 
Q 1347 2928 1069 2612 
Q 791 2297 791 1659 
z
" transform="scale(0.015625)"/>
       <path id="ArialMT-72" d="M 416 0 
L 416 3319 
L 922 3319 
L 922 2816 
Q 1116 3169 1280 3281 
Q 1444 3394 1641 3394 
Q 1925 3394 2219 3213 
L 2025 2691 
Q 1819 2813 1613 2813 
Q 1428 2813 1281 2702 
Q 1134 2591 1072 2394 
Q 978 2094 978 1738 
L 978 0 
L 416 0 
z
" transform="scale(0.015625)"/>
       <path id="ArialMT-65" d="M 2694 1069 
L 3275 997 
Q 3138 488 2766 206 
Q 2394 -75 1816 -75 
Q 1088 -75 661 373 
Q 234 822 234 1631 
Q 234 2469 665 2931 
Q 1097 3394 1784 3394 
Q 2450 3394 2872 2941 
Q 3294 2488 3294 1666 
Q 3294 1616 3291 1516 
L 816 1516 
Q 847 969 1125 678 
Q 1403 388 1819 388 
Q 2128 388 2347 550 
Q 2566 713 2694 1069 
z
M 847 1978 
L 2700 1978 
Q 2663 2397 2488 2606 
Q 2219 2931 1791 2931 
Q 1403 2931 1139 2672 
Q 875 2413 847 1978 
z
" transform="scale(0.015625)"/>
       <path id="ArialMT-73" d="M 197 991 
L 753 1078 
Q 800 744 1014 566 
Q 1228 388 1613 388 
Q 2000 388 2187 545 
Q 2375 703 2375 916 
Q 2375 1106 2209 1216 
Q 2094 1291 1634 1406 
Q 1016 1563 777 1677 
Q 538 1791 414 1992 
Q 291 2194 291 2438 
Q 291 2659 392 2848 
Q 494 3038 669 3163 
Q 800 3259 1026 3326 
Q 1253 3394 1513 3394 
Q 1903 3394 2198 3281 
Q 2494 3169 2634 2976 
Q 2775 2784 2828 2463 
L 2278 2388 
Q 2241 2644 2061 2787 
Q 1881 2931 1553 2931 
Q 1166 2931 1000 2803 
Q 834 2675 834 2503 
Q 834 2394 903 2306 
Q 972 2216 1119 2156 
Q 1203 2125 1616 2013 
Q 2213 1853 2448 1751 
Q 2684 1650 2818 1456 
Q 2953 1263 2953 975 
Q 2953 694 2789 445 
Q 2625 197 2315 61 
Q 2006 -75 1616 -75 
Q 969 -75 630 194 
Q 291 463 197 991 
z
" transform="scale(0.015625)"/>
       <path id="ArialMT-63" d="M 2588 1216 
L 3141 1144 
Q 3050 572 2676 248 
Q 2303 -75 1759 -75 
Q 1078 -75 664 370 
Q 250 816 250 1647 
Q 250 2184 428 2587 
Q 606 2991 970 3192 
Q 1334 3394 1763 3394 
Q 2303 3394 2647 3120 
Q 2991 2847 3088 2344 
L 2541 2259 
Q 2463 2594 2264 2762 
Q 2066 2931 1784 2931 
Q 1359 2931 1093 2626 
Q 828 2322 828 1663 
Q 828 994 1084 691 
Q 1341 388 1753 388 
Q 2084 388 2306 591 
Q 2528 794 2588 1216 
z
" transform="scale(0.015625)"/>
       <path id="ArialMT-6e" d="M 422 0 
L 422 3319 
L 928 3319 
L 928 2847 
Q 1294 3394 1984 3394 
Q 2284 3394 2536 3286 
Q 2788 3178 2913 3003 
Q 3038 2828 3088 2588 
Q 3119 2431 3119 2041 
L 3119 0 
L 2556 0 
L 2556 2019 
Q 2556 2363 2490 2533 
Q 2425 2703 2258 2804 
Q 2091 2906 1866 2906 
Q 1506 2906 1245 2678 
Q 984 2450 984 1813 
L 984 0 
L 422 0 
z
" transform="scale(0.015625)"/>
       <path id="ArialMT-20" transform="scale(0.015625)"/>
       <path id="ArialMT-28" d="M 1497 -1347 
Q 1031 -759 709 28 
Q 388 816 388 1659 
Q 388 2403 628 3084 
Q 909 3875 1497 4659 
L 1900 4659 
Q 1522 4009 1400 3731 
Q 1209 3300 1100 2831 
Q 966 2247 966 1656 
Q 966 153 1900 -1347 
L 1497 -1347 
z
" transform="scale(0.015625)"/>
       <path id="ArialMT-4b" d="M 469 0 
L 469 4581 
L 1075 4581 
L 1075 2309 
L 3350 4581 
L 4172 4581 
L 2250 2725 
L 4256 0 
L 3456 0 
L 1825 2319 
L 1075 1588 
L 1075 0 
L 469 0 
z
" transform="scale(0.015625)"/>
       <path id="ArialMT-29" d="M 791 -1347 
L 388 -1347 
Q 1322 153 1322 1656 
Q 1322 2244 1188 2822 
Q 1081 3291 891 3722 
Q 769 4003 388 4659 
L 791 4659 
Q 1378 3875 1659 3084 
Q 1900 2403 1900 1659 
Q 1900 816 1576 28 
Q 1253 -759 791 -1347 
z
" transform="scale(0.015625)"/>
      </defs>
      <use xlink:href="#ArialMT-46"/>
      <use xlink:href="#ArialMT-6c" x="61.083984"/>
      <use xlink:href="#ArialMT-75" x="83.300781"/>
      <use xlink:href="#ArialMT-6f" x="138.916016"/>
      <use xlink:href="#ArialMT-72" x="194.53125"/>
      <use xlink:href="#ArialMT-65" x="227.832031"/>
      <use xlink:href="#ArialMT-73" x="283.447266"/>
      <use xlink:href="#ArialMT-63" x="333.447266"/>
      <use xlink:href="#ArialMT-65" x="383.447266"/>
      <use xlink:href="#ArialMT-6e" x="439.0625"/>
      <use xlink:href="#ArialMT-63" x="494.677734"/>
      <use xlink:href="#ArialMT-65" x="544.677734"/>
      <use xlink:href="#ArialMT-20" x="600.292969"/>
      <use xlink:href="#ArialMT-28" x="628.076172"/>
      <use xlink:href="#ArialMT-31" x="661.376953"/>
      <use xlink:href="#ArialMT-30" x="716.992188"/>
      <use xlink:href="#ArialMT-4b" x="772.607422"/>
      <use xlink:href="#ArialMT-29" x="839.306641"/>
     </g>
    </g>
   </g>
   <g id="patch_3">
    <path d="M 90.981716 293.143844 
L 99.951625 293.143844 
L 99.951625 293.101949 
L 90.981716 293.101949 
L 90.981716 293.143844 
z
" clip-path="url(#p390d68b881)" style="fill: #5d9ba3; stroke: #313131; stroke-linejoin: miter"/>
   </g>
   <g id="line2d_5">
    <path d="M 95.46667 293.143844 
L 95.46667 293.180605 
" clip-path="url(#p390d68b881)" style="fill: none; stroke: #313131"/>
   </g>
   <g id="line2d_6">
    <path d="M 95.46667 293.101949 
L 95.46667 293.073814 
" clip-path="url(#p390d68b881)" style="fill: none; stroke: #313131"/>
   </g>
   <g id="line2d_7">
    <path d="M 93.224193 293.180605 
L 97.709148 293.180605 
" clip-path="url(#p390d68b881)" style="fill: none; stroke: #313131; stroke-linecap: round"/>
   </g>
   <g id="line2d_8">
    <path d="M 93.224193 293.073814 
L 97.709148 293.073814 
" clip-path="url(#p390d68b881)" style="fill: none; stroke: #313131; stroke-linecap: round"/>
   </g>
   <g id="patch_4">
    <path d="M 124.618874 263.394739 
L 133.588783 263.394739 
L 133.588783 259.127645 
L 124.618874 259.127645 
L 124.618874 263.394739 
z
" clip-path="url(#p390d68b881)" style="fill: #5d9ba3; stroke: #313131; stroke-linejoin: miter"/>
   </g>
   <g id="line2d_9">
    <path d="M 129.103829 263.394739 
L 129.103829 266.16184 
" clip-path="url(#p390d68b881)" style="fill: none; stroke: #313131"/>
   </g>
   <g id="line2d_10">
    <path d="M 129.103829 259.127645 
L 129.103829 257.600544 
" clip-path="url(#p390d68b881)" style="fill: none; stroke: #313131"/>
   </g>
   <g id="line2d_11">
    <path d="M 126.861352 266.16184 
L 131.346306 266.16184 
" clip-path="url(#p390d68b881)" style="fill: none; stroke: #313131; stroke-linecap: round"/>
   </g>
   <g id="line2d_12">
    <path d="M 126.861352 257.600544 
L 131.346306 257.600544 
" clip-path="url(#p390d68b881)" style="fill: none; stroke: #313131; stroke-linecap: round"/>
   </g>
   <g id="patch_5">
    <path d="M 99.951625 293.275278 
L 108.921534 293.275278 
L 108.921534 293.222499 
L 99.951625 293.222499 
L 99.951625 293.275278 
z
" clip-path="url(#p390d68b881)" style="fill: #693072; stroke: #313131; stroke-linejoin: miter"/>
   </g>
   <g id="line2d_13">
    <path d="M 104.436579 293.275278 
L 104.436579 293.299717 
" clip-path="url(#p390d68b881)" style="fill: none; stroke: #313131"/>
   </g>
   <g id="line2d_14">
    <path d="M 104.436579 293.222499 
L 104.436579 293.196212 
" clip-path="url(#p390d68b881)" style="fill: none; stroke: #313131"/>
   </g>
   <g id="line2d_15">
    <path d="M 102.194102 293.299717 
L 106.679057 293.299717 
" clip-path="url(#p390d68b881)" style="fill: none; stroke: #313131; stroke-linecap: round"/>
   </g>
   <g id="line2d_16">
    <path d="M 102.194102 293.196212 
L 106.679057 293.196212 
" clip-path="url(#p390d68b881)" style="fill: none; stroke: #313131; stroke-linecap: round"/>
   </g>
   <g id="patch_6">
    <path d="M 133.588783 265.147948 
L 142.558692 265.147948 
L 142.558692 263.135156 
L 133.588783 263.135156 
L 133.588783 265.147948 
z
" clip-path="url(#p390d68b881)" style="fill: #693072; stroke: #313131; stroke-linejoin: miter"/>
   </g>
   <g id="line2d_17">
    <path d="M 138.073738 265.147948 
L 138.073738 267.189491 
" clip-path="url(#p390d68b881)" style="fill: none; stroke: #313131"/>
   </g>
   <g id="line2d_18">
    <path d="M 138.073738 263.135156 
L 138.073738 261.677469 
" clip-path="url(#p390d68b881)" style="fill: none; stroke: #313131"/>
   </g>
   <g id="line2d_19">
    <path d="M 135.831261 267.189491 
L 140.316215 267.189491 
" clip-path="url(#p390d68b881)" style="fill: none; stroke: #313131; stroke-linecap: round"/>
   </g>
   <g id="line2d_20">
    <path d="M 135.831261 261.677469 
L 140.316215 261.677469 
" clip-path="url(#p390d68b881)" style="fill: none; stroke: #313131; stroke-linecap: round"/>
   </g>
   <g id="patch_7">
    <path d="M 108.921534 293.317173 
L 117.891443 293.317173 
L 117.891443 293.160273 
L 108.921534 293.160273 
L 108.921534 293.317173 
z
" clip-path="url(#p390d68b881)" style="fill: #e0a84d; stroke: #313131; stroke-linejoin: miter"/>
   </g>
   <g id="line2d_21">
    <path d="M 113.406488 293.317173 
L 113.406488 293.377756 
" clip-path="url(#p390d68b881)" style="fill: none; stroke: #313131"/>
   </g>
   <g id="line2d_22">
    <path d="M 113.406488 293.160273 
L 113.406488 293.068064 
" clip-path="url(#p390d68b881)" style="fill: none; stroke: #313131"/>
   </g>
   <g id="line2d_23">
    <path d="M 111.164011 293.377756 
L 115.648966 293.377756 
" clip-path="url(#p390d68b881)" style="fill: none; stroke: #313131; stroke-linecap: round"/>
   </g>
   <g id="line2d_24">
    <path d="M 111.164011 293.068064 
L 115.648966 293.068064 
" clip-path="url(#p390d68b881)" style="fill: none; stroke: #313131; stroke-linecap: round"/>
   </g>
   <g id="patch_8">
    <path d="M 142.558692 265.412254 
L 151.528601 265.412254 
L 151.528601 261.639065 
L 142.558692 261.639065 
L 142.558692 265.412254 
z
" clip-path="url(#p390d68b881)" style="fill: #e0a84d; stroke: #313131; stroke-linejoin: miter"/>
   </g>
   <g id="line2d_25">
    <path d="M 147.043647 265.412254 
L 147.043647 266.120766 
" clip-path="url(#p390d68b881)" style="fill: none; stroke: #313131"/>
   </g>
   <g id="line2d_26">
    <path d="M 147.043647 261.639065 
L 147.043647 259.93268 
" clip-path="url(#p390d68b881)" style="fill: none; stroke: #313131"/>
   </g>
   <g id="line2d_27">
    <path d="M 144.80117 266.120766 
L 149.286124 266.120766 
" clip-path="url(#p390d68b881)" style="fill: none; stroke: #313131; stroke-linecap: round"/>
   </g>
   <g id="line2d_28">
    <path d="M 144.80117 259.93268 
L 149.286124 259.93268 
" clip-path="url(#p390d68b881)" style="fill: none; stroke: #313131; stroke-linecap: round"/>
   </g>
   <g id="line2d_29">
    <path d="M 90.981716 293.132138 
L 99.951625 293.132138 
" clip-path="url(#p390d68b881)" style="fill: none; stroke: #313131"/>
   </g>
   <g id="line2d_30">
    <path d="M 124.618874 260.736893 
L 133.588783 260.736893 
" clip-path="url(#p390d68b881)" style="fill: none; stroke: #313131"/>
   </g>
   <g id="line2d_31">
    <path d="M 99.951625 293.240982 
L 108.921534 293.240982 
" clip-path="url(#p390d68b881)" style="fill: none; stroke: #313131"/>
   </g>
   <g id="line2d_32">
    <path d="M 133.588783 263.612016 
L 142.558692 263.612016 
" clip-path="url(#p390d68b881)" style="fill: none; stroke: #313131"/>
   </g>
   <g id="line2d_33">
    <path d="M 108.921534 293.227017 
L 117.891443 293.227017 
" clip-path="url(#p390d68b881)" style="fill: none; stroke: #313131"/>
   </g>
   <g id="line2d_34">
    <path d="M 142.558692 262.150632 
L 151.528601 262.150632 
" clip-path="url(#p390d68b881)" style="fill: none; stroke: #313131"/>
   </g>
   <g id="patch_9">
    <path d="M 87.618 305.452 
L 87.618 45.168 
" style="fill: none; stroke: #262626; stroke-width: 1.875; stroke-linejoin: miter; stroke-linecap: square"/>
   </g>
   <g id="patch_10">
    <path d="M 87.618 305.452 
L 154.892317 305.452 
" style="fill: none; stroke: #262626; stroke-width: 1.875; stroke-linejoin: miter; stroke-linecap: square"/>
   </g>
   <g id="text_8">
    <!-- methyl -->
    <g style="fill: #262626" transform="translate(86.447096 39.168) scale(0.216 -0.216)">
     <defs>
      <path id="Arial-BoldMT-6d" d="M 394 3319 
L 1203 3319 
L 1203 2866 
Q 1638 3394 2238 3394 
Q 2556 3394 2790 3262 
Q 3025 3131 3175 2866 
Q 3394 3131 3647 3262 
Q 3900 3394 4188 3394 
Q 4553 3394 4806 3245 
Q 5059 3097 5184 2809 
Q 5275 2597 5275 2122 
L 5275 0 
L 4397 0 
L 4397 1897 
Q 4397 2391 4306 2534 
Q 4184 2722 3931 2722 
Q 3747 2722 3584 2609 
Q 3422 2497 3350 2280 
Q 3278 2063 3278 1594 
L 3278 0 
L 2400 0 
L 2400 1819 
Q 2400 2303 2353 2443 
Q 2306 2584 2207 2653 
Q 2109 2722 1941 2722 
Q 1738 2722 1575 2612 
Q 1413 2503 1342 2297 
Q 1272 2091 1272 1613 
L 1272 0 
L 394 0 
L 394 3319 
z
" transform="scale(0.015625)"/>
      <path id="Arial-BoldMT-65" d="M 2381 1056 
L 3256 909 
Q 3088 428 2723 176 
Q 2359 -75 1813 -75 
Q 947 -75 531 491 
Q 203 944 203 1634 
Q 203 2459 634 2926 
Q 1066 3394 1725 3394 
Q 2466 3394 2894 2905 
Q 3322 2416 3303 1406 
L 1103 1406 
Q 1113 1016 1316 798 
Q 1519 581 1822 581 
Q 2028 581 2168 693 
Q 2309 806 2381 1056 
z
M 2431 1944 
Q 2422 2325 2234 2523 
Q 2047 2722 1778 2722 
Q 1491 2722 1303 2513 
Q 1116 2303 1119 1944 
L 2431 1944 
z
" transform="scale(0.015625)"/>
      <path id="Arial-BoldMT-74" d="M 1981 3319 
L 1981 2619 
L 1381 2619 
L 1381 1281 
Q 1381 875 1398 808 
Q 1416 741 1477 697 
Q 1538 653 1625 653 
Q 1747 653 1978 738 
L 2053 56 
Q 1747 -75 1359 -75 
Q 1122 -75 931 4 
Q 741 84 652 211 
Q 563 338 528 553 
Q 500 706 500 1172 
L 500 2619 
L 97 2619 
L 97 3319 
L 500 3319 
L 500 3978 
L 1381 4491 
L 1381 3319 
L 1981 3319 
z
" transform="scale(0.015625)"/>
      <path id="Arial-BoldMT-68" d="M 1334 4581 
L 1334 2897 
Q 1759 3394 2350 3394 
Q 2653 3394 2897 3281 
Q 3141 3169 3264 2994 
Q 3388 2819 3433 2606 
Q 3478 2394 3478 1947 
L 3478 0 
L 2600 0 
L 2600 1753 
Q 2600 2275 2550 2415 
Q 2500 2556 2373 2639 
Q 2247 2722 2056 2722 
Q 1838 2722 1666 2615 
Q 1494 2509 1414 2295 
Q 1334 2081 1334 1663 
L 1334 0 
L 456 0 
L 456 4581 
L 1334 4581 
z
" transform="scale(0.015625)"/>
      <path id="Arial-BoldMT-79" d="M 44 3319 
L 978 3319 
L 1772 963 
L 2547 3319 
L 3456 3319 
L 2284 125 
L 2075 -453 
Q 1959 -744 1854 -897 
Q 1750 -1050 1614 -1145 
Q 1478 -1241 1279 -1294 
Q 1081 -1347 831 -1347 
Q 578 -1347 334 -1294 
L 256 -606 
Q 463 -647 628 -647 
Q 934 -647 1081 -467 
Q 1228 -288 1306 -9 
L 44 3319 
z
" transform="scale(0.015625)"/>
      <path id="Arial-BoldMT-6c" d="M 459 0 
L 459 4581 
L 1338 4581 
L 1338 0 
L 459 0 
z
" transform="scale(0.015625)"/>
     </defs>
     <use xlink:href="#Arial-BoldMT-6d"/>
     <use xlink:href="#Arial-BoldMT-65" x="88.916016"/>
     <use xlink:href="#Arial-BoldMT-74" x="144.53125"/>
     <use xlink:href="#Arial-BoldMT-68" x="177.832031"/>
     <use xlink:href="#Arial-BoldMT-79" x="238.916016"/>
     <use xlink:href="#Arial-BoldMT-6c" x="294.53125"/>
    </g>
   </g>
  </g>
  <g id="axes_2">
   <g id="patch_11">
    <path d="M 156.802812 305.452 
L 224.077129 305.452 
L 224.077129 45.168 
L 156.802812 45.168 
z
" style="fill: #ffffff"/>
   </g>
   <g id="matplotlib.axis_3">
    <g id="xtick_3">
     <g id="text_9">
      <!-- 4.0 -->
      <g style="fill: #262626" transform="translate(159.860391 332.124469) scale(0.198 -0.198)">
       <use xlink:href="#ArialMT-34"/>
       <use xlink:href="#ArialMT-2e" x="55.615234"/>
       <use xlink:href="#ArialMT-30" x="83.398438"/>
      </g>
     </g>
    </g>
    <g id="xtick_4">
     <g id="text_10">
      <!-- 7.4 -->
      <g style="fill: #262626" transform="translate(193.49755 332.124469) scale(0.198 -0.198)">
       <use xlink:href="#ArialMT-37"/>
       <use xlink:href="#ArialMT-2e" x="55.615234"/>
       <use xlink:href="#ArialMT-34" x="83.398438"/>
      </g>
     </g>
    </g>
   </g>
   <g id="matplotlib.axis_4">
    <g id="ytick_5">
     <g id="line2d_35">
      <path d="M 156.802812 293.454152 
L 224.077129 293.454152 
" clip-path="url(#pf1e6f64f96)" style="fill: none; stroke: #d3d3d3; stroke-width: 2; stroke-linecap: round"/>
     </g>
    </g>
    <g id="ytick_6">
     <g id="line2d_36">
      <path d="M 156.802812 211.307775 
L 224.077129 211.307775 
" clip-path="url(#pf1e6f64f96)" style="fill: none; stroke: #d3d3d3; stroke-width: 2; stroke-linecap: round"/>
     </g>
    </g>
    <g id="ytick_7">
     <g id="line2d_37">
      <path d="M 156.802812 129.161397 
L 224.077129 129.161397 
" clip-path="url(#pf1e6f64f96)" style="fill: none; stroke: #d3d3d3; stroke-width: 2; stroke-linecap: round"/>
     </g>
    </g>
    <g id="ytick_8">
     <g id="line2d_38">
      <path d="M 156.802812 47.01502 
L 224.077129 47.01502 
" clip-path="url(#pf1e6f64f96)" style="fill: none; stroke: #d3d3d3; stroke-width: 2; stroke-linecap: round"/>
     </g>
    </g>
   </g>
   <g id="patch_12">
    <path d="M 160.166528 233.214571 
L 169.136437 233.214571 
L 169.136437 231.356214 
L 160.166528 231.356214 
L 160.166528 233.214571 
z
" clip-path="url(#pf1e6f64f96)" style="fill: #5d9ba3; stroke: #313131; stroke-linejoin: miter"/>
   </g>
   <g id="line2d_39">
    <path d="M 164.651482 233.214571 
L 164.651482 234.484554 
" clip-path="url(#pf1e6f64f96)" style="fill: none; stroke: #313131"/>
   </g>
   <g id="line2d_40">
    <path d="M 164.651482 231.356214 
L 164.651482 228.99964 
" clip-path="url(#pf1e6f64f96)" style="fill: none; stroke: #313131"/>
   </g>
   <g id="line2d_41">
    <path d="M 162.409005 234.484554 
L 166.893959 234.484554 
" clip-path="url(#pf1e6f64f96)" style="fill: none; stroke: #313131; stroke-linecap: round"/>
   </g>
   <g id="line2d_42">
    <path d="M 162.409005 228.99964 
L 166.893959 228.99964 
" clip-path="url(#pf1e6f64f96)" style="fill: none; stroke: #313131; stroke-linecap: round"/>
   </g>
   <g id="patch_13">
    <path d="M 193.803686 227.123827 
L 202.773595 227.123827 
L 202.773595 223.693805 
L 193.803686 223.693805 
L 193.803686 227.123827 
z
" clip-path="url(#pf1e6f64f96)" style="fill: #5d9ba3; stroke: #313131; stroke-linejoin: miter"/>
   </g>
   <g id="line2d_43">
    <path d="M 198.288641 227.123827 
L 198.288641 229.116288 
" clip-path="url(#pf1e6f64f96)" style="fill: none; stroke: #313131"/>
   </g>
   <g id="line2d_44">
    <path d="M 198.288641 223.693805 
L 198.288641 220.910686 
" clip-path="url(#pf1e6f64f96)" style="fill: none; stroke: #313131"/>
   </g>
   <g id="line2d_45">
    <path d="M 196.046164 229.116288 
L 200.531118 229.116288 
" clip-path="url(#pf1e6f64f96)" style="fill: none; stroke: #313131; stroke-linecap: round"/>
   </g>
   <g id="line2d_46">
    <path d="M 196.046164 220.910686 
L 200.531118 220.910686 
" clip-path="url(#pf1e6f64f96)" style="fill: none; stroke: #313131; stroke-linecap: round"/>
   </g>
   <g id="patch_14">
    <path d="M 169.136437 235.850442 
L 178.106346 235.850442 
L 178.106346 234.366879 
L 169.136437 234.366879 
L 169.136437 235.850442 
z
" clip-path="url(#pf1e6f64f96)" style="fill: #693072; stroke: #313131; stroke-linejoin: miter"/>
   </g>
   <g id="line2d_47">
    <path d="M 173.621391 235.850442 
L 173.621391 238.009455 
" clip-path="url(#pf1e6f64f96)" style="fill: none; stroke: #313131"/>
   </g>
   <g id="line2d_48">
    <path d="M 173.621391 234.366879 
L 173.621391 233.535763 
" clip-path="url(#pf1e6f64f96)" style="fill: none; stroke: #313131"/>
   </g>
   <g id="line2d_49">
    <path d="M 171.378914 238.009455 
L 175.863868 238.009455 
" clip-path="url(#pf1e6f64f96)" style="fill: none; stroke: #313131; stroke-linecap: round"/>
   </g>
   <g id="line2d_50">
    <path d="M 171.378914 233.535763 
L 175.863868 233.535763 
" clip-path="url(#pf1e6f64f96)" style="fill: none; stroke: #313131; stroke-linecap: round"/>
   </g>
   <g id="patch_15">
    <path d="M 202.773595 232.367641 
L 211.743504 232.367641 
L 211.743504 229.667079 
L 202.773595 229.667079 
L 202.773595 232.367641 
z
" clip-path="url(#pf1e6f64f96)" style="fill: #693072; stroke: #313131; stroke-linejoin: miter"/>
   </g>
   <g id="line2d_51">
    <path d="M 207.25855 232.367641 
L 207.25855 234.988111 
" clip-path="url(#pf1e6f64f96)" style="fill: none; stroke: #313131"/>
   </g>
   <g id="line2d_52">
    <path d="M 207.25855 229.667079 
L 207.25855 228.652161 
" clip-path="url(#pf1e6f64f96)" style="fill: none; stroke: #313131"/>
   </g>
   <g id="line2d_53">
    <path d="M 205.016073 234.988111 
L 209.501027 234.988111 
" clip-path="url(#pf1e6f64f96)" style="fill: none; stroke: #313131; stroke-linecap: round"/>
   </g>
   <g id="line2d_54">
    <path d="M 205.016073 228.652161 
L 209.501027 228.652161 
" clip-path="url(#pf1e6f64f96)" style="fill: none; stroke: #313131; stroke-linecap: round"/>
   </g>
   <g id="patch_16">
    <path d="M 178.106346 236.117418 
L 187.076255 236.117418 
L 187.076255 234.108734 
L 178.106346 234.108734 
L 178.106346 236.117418 
z
" clip-path="url(#pf1e6f64f96)" style="fill: #e0a84d; stroke: #313131; stroke-linejoin: miter"/>
   </g>
   <g id="line2d_55">
    <path d="M 182.5913 236.117418 
L 182.5913 237.822161 
" clip-path="url(#pf1e6f64f96)" style="fill: none; stroke: #313131"/>
   </g>
   <g id="line2d_56">
    <path d="M 182.5913 234.108734 
L 182.5913 231.776188 
" clip-path="url(#pf1e6f64f96)" style="fill: none; stroke: #313131"/>
   </g>
   <g id="line2d_57">
    <path d="M 180.348823 237.822161 
L 184.833777 237.822161 
" clip-path="url(#pf1e6f64f96)" style="fill: none; stroke: #313131; stroke-linecap: round"/>
   </g>
   <g id="line2d_58">
    <path d="M 180.348823 231.776188 
L 184.833777 231.776188 
" clip-path="url(#pf1e6f64f96)" style="fill: none; stroke: #313131; stroke-linecap: round"/>
   </g>
   <g id="patch_17">
    <path d="M 211.743504 229.512028 
L 220.713413 229.512028 
L 220.713413 226.024298 
L 211.743504 226.024298 
L 211.743504 229.512028 
z
" clip-path="url(#pf1e6f64f96)" style="fill: #e0a84d; stroke: #313131; stroke-linejoin: miter"/>
   </g>
   <g id="line2d_59">
    <path d="M 216.228459 229.512028 
L 216.228459 231.468139 
" clip-path="url(#pf1e6f64f96)" style="fill: none; stroke: #313131"/>
   </g>
   <g id="line2d_60">
    <path d="M 216.228459 226.024298 
L 216.228459 224.051142 
" clip-path="url(#pf1e6f64f96)" style="fill: none; stroke: #313131"/>
   </g>
   <g id="line2d_61">
    <path d="M 213.985981 231.468139 
L 218.470936 231.468139 
" clip-path="url(#pf1e6f64f96)" style="fill: none; stroke: #313131; stroke-linecap: round"/>
   </g>
   <g id="line2d_62">
    <path d="M 213.985981 224.051142 
L 218.470936 224.051142 
" clip-path="url(#pf1e6f64f96)" style="fill: none; stroke: #313131; stroke-linecap: round"/>
   </g>
   <g id="line2d_63">
    <path d="M 160.166528 231.866959 
L 169.136437 231.866959 
" clip-path="url(#pf1e6f64f96)" style="fill: none; stroke: #313131"/>
   </g>
   <g id="line2d_64">
    <path d="M 193.803686 225.053328 
L 202.773595 225.053328 
" clip-path="url(#pf1e6f64f96)" style="fill: none; stroke: #313131"/>
   </g>
   <g id="line2d_65">
    <path d="M 169.136437 235.24564 
L 178.106346 235.24564 
" clip-path="url(#pf1e6f64f96)" style="fill: none; stroke: #313131"/>
   </g>
   <g id="line2d_66">
    <path d="M 202.773595 231.010583 
L 211.743504 231.010583 
" clip-path="url(#pf1e6f64f96)" style="fill: none; stroke: #313131"/>
   </g>
   <g id="line2d_67">
    <path d="M 178.106346 235.16719 
L 187.076255 235.16719 
" clip-path="url(#pf1e6f64f96)" style="fill: none; stroke: #313131"/>
   </g>
   <g id="line2d_68">
    <path d="M 211.743504 228.080422 
L 220.713413 228.080422 
" clip-path="url(#pf1e6f64f96)" style="fill: none; stroke: #313131"/>
   </g>
   <g id="patch_18">
    <path d="M 156.802812 305.452 
L 224.077129 305.452 
" style="fill: none; stroke: #262626; stroke-width: 1.875; stroke-linejoin: miter; stroke-linecap: square"/>
   </g>
   <g id="text_11">
    <!-- new -->
    <g style="fill: #262626" transform="translate(169.437345 39.168) scale(0.216 -0.216)">
     <defs>
      <path id="Arial-BoldMT-6e" d="M 3478 0 
L 2600 0 
L 2600 1694 
Q 2600 2231 2544 2389 
Q 2488 2547 2361 2634 
Q 2234 2722 2056 2722 
Q 1828 2722 1647 2597 
Q 1466 2472 1398 2265 
Q 1331 2059 1331 1503 
L 1331 0 
L 453 0 
L 453 3319 
L 1269 3319 
L 1269 2831 
Q 1703 3394 2363 3394 
Q 2653 3394 2893 3289 
Q 3134 3184 3257 3021 
Q 3381 2859 3429 2653 
Q 3478 2447 3478 2063 
L 3478 0 
z
" transform="scale(0.015625)"/>
      <path id="Arial-BoldMT-77" d="M 1078 0 
L 28 3319 
L 881 3319 
L 1503 1144 
L 2075 3319 
L 2922 3319 
L 3475 1144 
L 4109 3319 
L 4975 3319 
L 3909 0 
L 3066 0 
L 2494 2134 
L 1931 0 
L 1078 0 
z
" transform="scale(0.015625)"/>
     </defs>
     <use xlink:href="#Arial-BoldMT-6e"/>
     <use xlink:href="#Arial-BoldMT-65" x="61.083984"/>
     <use xlink:href="#Arial-BoldMT-77" x="116.699219"/>
    </g>
   </g>
  </g>
  <g id="axes_3">
   <g id="patch_19">
    <path d="M 225.987624 305.452 
L 293.261941 305.452 
L 293.261941 45.168 
L 225.987624 45.168 
z
" style="fill: #ffffff"/>
   </g>
   <g id="matplotlib.axis_5">
    <g id="xtick_5">
     <g id="text_12">
      <!-- 4.0 -->
      <g style="fill: #262626" transform="translate(229.045203 332.124469) scale(0.198 -0.198)">
       <use xlink:href="#ArialMT-34"/>
       <use xlink:href="#ArialMT-2e" x="55.615234"/>
       <use xlink:href="#ArialMT-30" x="83.398438"/>
      </g>
     </g>
    </g>
    <g id="xtick_6">
     <g id="text_13">
      <!-- 7.4 -->
      <g style="fill: #262626" transform="translate(262.682362 332.124469) scale(0.198 -0.198)">
       <use xlink:href="#ArialMT-37"/>
       <use xlink:href="#ArialMT-2e" x="55.615234"/>
       <use xlink:href="#ArialMT-34" x="83.398438"/>
      </g>
     </g>
    </g>
   </g>
   <g id="matplotlib.axis_6">
    <g id="ytick_9">
     <g id="line2d_69">
      <path d="M 225.987624 293.454152 
L 293.261941 293.454152 
" clip-path="url(#pcc46a9e575)" style="fill: none; stroke: #d3d3d3; stroke-width: 2; stroke-linecap: round"/>
     </g>
    </g>
    <g id="ytick_10">
     <g id="line2d_70">
      <path d="M 225.987624 211.307775 
L 293.261941 211.307775 
" clip-path="url(#pcc46a9e575)" style="fill: none; stroke: #d3d3d3; stroke-width: 2; stroke-linecap: round"/>
     </g>
    </g>
    <g id="ytick_11">
     <g id="line2d_71">
      <path d="M 225.987624 129.161397 
L 293.261941 129.161397 
" clip-path="url(#pcc46a9e575)" style="fill: none; stroke: #d3d3d3; stroke-width: 2; stroke-linecap: round"/>
     </g>
    </g>
    <g id="ytick_12">
     <g id="line2d_72">
      <path d="M 225.987624 47.01502 
L 293.261941 47.01502 
" clip-path="url(#pcc46a9e575)" style="fill: none; stroke: #d3d3d3; stroke-width: 2; stroke-linecap: round"/>
     </g>
    </g>
   </g>
   <g id="patch_20">
    <path d="M 229.35134 293.469554 
L 238.321248 293.469554 
L 238.321248 293.44758 
L 229.35134 293.44758 
L 229.35134 293.469554 
z
" clip-path="url(#pcc46a9e575)" style="fill: #5d9ba3; stroke: #313131; stroke-linejoin: miter"/>
   </g>
   <g id="line2d_73">
    <path d="M 233.836294 293.469554 
L 233.836294 293.500154 
" clip-path="url(#pcc46a9e575)" style="fill: none; stroke: #313131"/>
   </g>
   <g id="line2d_74">
    <path d="M 233.836294 293.44758 
L 233.836294 293.424579 
" clip-path="url(#pcc46a9e575)" style="fill: none; stroke: #313131"/>
   </g>
   <g id="line2d_75">
    <path d="M 231.593817 293.500154 
L 236.078771 293.500154 
" clip-path="url(#pcc46a9e575)" style="fill: none; stroke: #313131; stroke-linecap: round"/>
   </g>
   <g id="line2d_76">
    <path d="M 231.593817 293.424579 
L 236.078771 293.424579 
" clip-path="url(#pcc46a9e575)" style="fill: none; stroke: #313131; stroke-linecap: round"/>
   </g>
   <g id="patch_21">
    <path d="M 262.988498 293.466063 
L 271.958407 293.466063 
L 271.958407 293.443268 
L 262.988498 293.443268 
L 262.988498 293.466063 
z
" clip-path="url(#pcc46a9e575)" style="fill: #5d9ba3; stroke: #313131; stroke-linejoin: miter"/>
   </g>
   <g id="line2d_77">
    <path d="M 267.473453 293.466063 
L 267.473453 293.473867 
" clip-path="url(#pcc46a9e575)" style="fill: none; stroke: #313131"/>
   </g>
   <g id="line2d_78">
    <path d="M 267.473453 293.443268 
L 267.473453 293.432794 
" clip-path="url(#pcc46a9e575)" style="fill: none; stroke: #313131"/>
   </g>
   <g id="line2d_79">
    <path d="M 265.230975 293.473867 
L 269.71593 293.473867 
" clip-path="url(#pcc46a9e575)" style="fill: none; stroke: #313131; stroke-linecap: round"/>
   </g>
   <g id="line2d_80">
    <path d="M 265.230975 293.432794 
L 269.71593 293.432794 
" clip-path="url(#pcc46a9e575)" style="fill: none; stroke: #313131; stroke-linecap: round"/>
   </g>
   <g id="patch_22">
    <path d="M 238.321248 293.50652 
L 247.291157 293.50652 
L 247.291157 293.425811 
L 238.321248 293.425811 
L 238.321248 293.50652 
z
" clip-path="url(#pcc46a9e575)" style="fill: #693072; stroke: #313131; stroke-linejoin: miter"/>
   </g>
   <g id="line2d_81">
    <path d="M 242.806203 293.50652 
L 242.806203 293.519048 
" clip-path="url(#pcc46a9e575)" style="fill: none; stroke: #313131"/>
   </g>
   <g id="line2d_82">
    <path d="M 242.806203 293.425811 
L 242.806203 293.412257 
" clip-path="url(#pcc46a9e575)" style="fill: none; stroke: #313131"/>
   </g>
   <g id="line2d_83">
    <path d="M 240.563726 293.519048 
L 245.04868 293.519048 
" clip-path="url(#pcc46a9e575)" style="fill: none; stroke: #313131; stroke-linecap: round"/>
   </g>
   <g id="line2d_84">
    <path d="M 240.563726 293.412257 
L 245.04868 293.412257 
" clip-path="url(#pcc46a9e575)" style="fill: none; stroke: #313131; stroke-linecap: round"/>
   </g>
   <g id="patch_23">
    <path d="M 271.958407 293.587845 
L 280.928316 293.587845 
L 280.928316 293.451071 
L 271.958407 293.451071 
L 271.958407 293.587845 
z
" clip-path="url(#pcc46a9e575)" style="fill: #693072; stroke: #313131; stroke-linejoin: miter"/>
   </g>
   <g id="line2d_85">
    <path d="M 276.443362 293.587845 
L 276.443362 293.587845 
" clip-path="url(#pcc46a9e575)" style="fill: none; stroke: #313131"/>
   </g>
   <g id="line2d_86">
    <path d="M 276.443362 293.451071 
L 276.443362 293.416365 
" clip-path="url(#pcc46a9e575)" style="fill: none; stroke: #313131"/>
   </g>
   <g id="line2d_87">
    <path d="M 274.200884 293.587845 
L 278.685839 293.587845 
" clip-path="url(#pcc46a9e575)" style="fill: none; stroke: #313131; stroke-linecap: round"/>
   </g>
   <g id="line2d_88">
    <path d="M 274.200884 293.416365 
L 278.685839 293.416365 
" clip-path="url(#pcc46a9e575)" style="fill: none; stroke: #313131; stroke-linecap: round"/>
   </g>
   <g id="patch_24">
    <path d="M 247.291157 293.551495 
L 256.261066 293.551495 
L 256.261066 293.389051 
L 247.291157 293.389051 
L 247.291157 293.551495 
z
" clip-path="url(#pcc46a9e575)" style="fill: #e0a84d; stroke: #313131; stroke-linejoin: miter"/>
   </g>
   <g id="line2d_89">
    <path d="M 251.776112 293.551495 
L 251.776112 293.620909 
" clip-path="url(#pcc46a9e575)" style="fill: none; stroke: #313131"/>
   </g>
   <g id="line2d_90">
    <path d="M 251.776112 293.389051 
L 251.776112 293.26768 
" clip-path="url(#pcc46a9e575)" style="fill: none; stroke: #313131"/>
   </g>
   <g id="line2d_91">
    <path d="M 249.533635 293.620909 
L 254.018589 293.620909 
" clip-path="url(#pcc46a9e575)" style="fill: none; stroke: #313131; stroke-linecap: round"/>
   </g>
   <g id="line2d_92">
    <path d="M 249.533635 293.26768 
L 254.018589 293.26768 
" clip-path="url(#pcc46a9e575)" style="fill: none; stroke: #313131; stroke-linecap: round"/>
   </g>
   <g id="patch_25">
    <path d="M 280.928316 293.478796 
L 289.898225 293.478796 
L 289.898225 293.437723 
L 280.928316 293.437723 
L 280.928316 293.478796 
z
" clip-path="url(#pcc46a9e575)" style="fill: #e0a84d; stroke: #313131; stroke-linejoin: miter"/>
   </g>
   <g id="line2d_93">
    <path d="M 285.413271 293.478796 
L 285.413271 293.49769 
" clip-path="url(#pcc46a9e575)" style="fill: none; stroke: #313131"/>
   </g>
   <g id="line2d_94">
    <path d="M 285.413271 293.437723 
L 285.413271 293.379399 
" clip-path="url(#pcc46a9e575)" style="fill: none; stroke: #313131"/>
   </g>
   <g id="line2d_95">
    <path d="M 283.170793 293.49769 
L 287.655748 293.49769 
" clip-path="url(#pcc46a9e575)" style="fill: none; stroke: #313131; stroke-linecap: round"/>
   </g>
   <g id="line2d_96">
    <path d="M 283.170793 293.379399 
L 287.655748 293.379399 
" clip-path="url(#pcc46a9e575)" style="fill: none; stroke: #313131; stroke-linecap: round"/>
   </g>
   <g id="line2d_97">
    <path d="M 229.35134 293.463188 
L 238.321248 293.463188 
" clip-path="url(#pcc46a9e575)" style="fill: none; stroke: #313131"/>
   </g>
   <g id="line2d_98">
    <path d="M 262.988498 293.457027 
L 271.958407 293.457027 
" clip-path="url(#pcc46a9e575)" style="fill: none; stroke: #313131"/>
   </g>
   <g id="line2d_99">
    <path d="M 238.321248 293.46442 
L 247.291157 293.46442 
" clip-path="url(#pcc46a9e575)" style="fill: none; stroke: #313131"/>
   </g>
   <g id="line2d_100">
    <path d="M 271.958407 293.461545 
L 280.928316 293.461545 
" clip-path="url(#pcc46a9e575)" style="fill: none; stroke: #313131"/>
   </g>
   <g id="line2d_101">
    <path d="M 247.291157 293.435258 
L 256.261066 293.435258 
" clip-path="url(#pcc46a9e575)" style="fill: none; stroke: #313131"/>
   </g>
   <g id="line2d_102">
    <path d="M 280.928316 293.444294 
L 289.898225 293.444294 
" clip-path="url(#pcc46a9e575)" style="fill: none; stroke: #313131"/>
   </g>
   <g id="patch_26">
    <path d="M 225.987624 305.452 
L 293.261941 305.452 
" style="fill: none; stroke: #262626; stroke-width: 1.875; stroke-linejoin: miter; stroke-linecap: square"/>
   </g>
   <g id="text_14">
    <!-- none -->
    <g style="fill: #262626" transform="translate(233.829657 39.168) scale(0.216 -0.216)">
     <defs>
      <path id="Arial-BoldMT-6f" d="M 256 1706 
Q 256 2144 472 2553 
Q 688 2963 1083 3178 
Q 1478 3394 1966 3394 
Q 2719 3394 3200 2905 
Q 3681 2416 3681 1669 
Q 3681 916 3195 420 
Q 2709 -75 1972 -75 
Q 1516 -75 1102 131 
Q 688 338 472 736 
Q 256 1134 256 1706 
z
M 1156 1659 
Q 1156 1166 1390 903 
Q 1625 641 1969 641 
Q 2313 641 2545 903 
Q 2778 1166 2778 1666 
Q 2778 2153 2545 2415 
Q 2313 2678 1969 2678 
Q 1625 2678 1390 2415 
Q 1156 2153 1156 1659 
z
" transform="scale(0.015625)"/>
     </defs>
     <use xlink:href="#Arial-BoldMT-6e"/>
     <use xlink:href="#Arial-BoldMT-6f" x="61.083984"/>
     <use xlink:href="#Arial-BoldMT-6e" x="122.167969"/>
     <use xlink:href="#Arial-BoldMT-65" x="183.251953"/>
    </g>
   </g>
  </g>
  <g id="axes_4">
   <g id="patch_27">
    <path d="M 295.172435 305.452 
L 362.446753 305.452 
L 362.446753 45.168 
L 295.172435 45.168 
z
" style="fill: #ffffff"/>
   </g>
   <g id="matplotlib.axis_7">
    <g id="xtick_7">
     <g id="text_15">
      <!-- 4.0 -->
      <g style="fill: #262626" transform="translate(298.230015 332.124469) scale(0.198 -0.198)">
       <use xlink:href="#ArialMT-34"/>
       <use xlink:href="#ArialMT-2e" x="55.615234"/>
       <use xlink:href="#ArialMT-30" x="83.398438"/>
      </g>
     </g>
    </g>
    <g id="xtick_8">
     <g id="text_16">
      <!-- 7.4 -->
      <g style="fill: #262626" transform="translate(331.867173 332.124469) scale(0.198 -0.198)">
       <use xlink:href="#ArialMT-37"/>
       <use xlink:href="#ArialMT-2e" x="55.615234"/>
       <use xlink:href="#ArialMT-34" x="83.398438"/>
      </g>
     </g>
    </g>
   </g>
   <g id="matplotlib.axis_8">
    <g id="ytick_13">
     <g id="line2d_103">
      <path d="M 295.172435 293.454152 
L 362.446753 293.454152 
" clip-path="url(#p968101d716)" style="fill: none; stroke: #d3d3d3; stroke-width: 2; stroke-linecap: round"/>
     </g>
    </g>
    <g id="ytick_14">
     <g id="line2d_104">
      <path d="M 295.172435 211.307775 
L 362.446753 211.307775 
" clip-path="url(#p968101d716)" style="fill: none; stroke: #d3d3d3; stroke-width: 2; stroke-linecap: round"/>
     </g>
    </g>
    <g id="ytick_15">
     <g id="line2d_105">
      <path d="M 295.172435 129.161397 
L 362.446753 129.161397 
" clip-path="url(#p968101d716)" style="fill: none; stroke: #d3d3d3; stroke-width: 2; stroke-linecap: round"/>
     </g>
    </g>
    <g id="ytick_16">
     <g id="line2d_106">
      <path d="M 295.172435 47.01502 
L 362.446753 47.01502 
" clip-path="url(#p968101d716)" style="fill: none; stroke: #d3d3d3; stroke-width: 2; stroke-linecap: round"/>
     </g>
    </g>
   </g>
   <g id="patch_28">
    <path d="M 311.991015 293.454152 
L 311.991015 293.454152 
L 311.991015 293.454152 
L 311.991015 293.454152 
z
" clip-path="url(#p968101d716)" style="fill: #5d9ba3; stroke: #313131; stroke-width: 1.5; stroke-linejoin: miter"/>
   </g>
   <g id="patch_29">
    <path d="M 311.991015 293.454152 
L 311.991015 293.454152 
L 311.991015 293.454152 
L 311.991015 293.454152 
z
" clip-path="url(#p968101d716)" style="fill: #693072; stroke: #313131; stroke-width: 1.5; stroke-linejoin: miter"/>
   </g>
   <g id="patch_30">
    <path d="M 311.991015 293.454152 
L 311.991015 293.454152 
L 311.991015 293.454152 
L 311.991015 293.454152 
z
" clip-path="url(#p968101d716)" style="fill: #e0a84d; stroke: #313131; stroke-width: 1.5; stroke-linejoin: miter"/>
   </g>
   <g id="patch_31">
    <path d="M 298.536151 87.659405 
L 307.50606 87.659405 
L 307.50606 82.211046 
L 298.536151 82.211046 
L 298.536151 87.659405 
z
" clip-path="url(#p968101d716)" style="fill: #5d9ba3; stroke: #313131; stroke-linejoin: miter"/>
   </g>
   <g id="line2d_107">
    <path d="M 303.021106 87.659405 
L 303.021106 88.351899 
" clip-path="url(#p968101d716)" style="fill: none; stroke: #313131"/>
   </g>
   <g id="line2d_108">
    <path d="M 303.021106 82.211046 
L 303.021106 80.662998 
" clip-path="url(#p968101d716)" style="fill: none; stroke: #313131"/>
   </g>
   <g id="line2d_109">
    <path d="M 300.778629 88.351899 
L 305.263583 88.351899 
" clip-path="url(#p968101d716)" style="fill: none; stroke: #313131; stroke-linecap: round"/>
   </g>
   <g id="line2d_110">
    <path d="M 300.778629 80.662998 
L 305.263583 80.662998 
" clip-path="url(#p968101d716)" style="fill: none; stroke: #313131; stroke-linecap: round"/>
   </g>
   <g id="patch_32">
    <path d="M 332.17331 72.615117 
L 341.143219 72.615117 
L 341.143219 65.497955 
L 332.17331 65.497955 
L 332.17331 72.615117 
z
" clip-path="url(#p968101d716)" style="fill: #5d9ba3; stroke: #313131; stroke-linejoin: miter"/>
   </g>
   <g id="line2d_111">
    <path d="M 336.658264 72.615117 
L 336.658264 82.655047 
" clip-path="url(#p968101d716)" style="fill: none; stroke: #313131"/>
   </g>
   <g id="line2d_112">
    <path d="M 336.658264 65.497955 
L 336.658264 56.999091 
" clip-path="url(#p968101d716)" style="fill: none; stroke: #313131"/>
   </g>
   <g id="line2d_113">
    <path d="M 334.415787 82.655047 
L 338.900742 82.655047 
" clip-path="url(#p968101d716)" style="fill: none; stroke: #313131; stroke-linecap: round"/>
   </g>
   <g id="line2d_114">
    <path d="M 334.415787 56.999091 
L 338.900742 56.999091 
" clip-path="url(#p968101d716)" style="fill: none; stroke: #313131; stroke-linecap: round"/>
   </g>
   <g id="patch_33">
    <path d="M 307.50606 99.18639 
L 316.475969 99.18639 
L 316.475969 95.393897 
L 307.50606 95.393897 
L 307.50606 99.18639 
z
" clip-path="url(#p968101d716)" style="fill: #693072; stroke: #313131; stroke-linejoin: miter"/>
   </g>
   <g id="line2d_115">
    <path d="M 311.991015 99.18639 
L 311.991015 103.859492 
" clip-path="url(#p968101d716)" style="fill: none; stroke: #313131"/>
   </g>
   <g id="line2d_116">
    <path d="M 311.991015 95.393897 
L 311.991015 93.098316 
" clip-path="url(#p968101d716)" style="fill: none; stroke: #313131"/>
   </g>
   <g id="line2d_117">
    <path d="M 309.748538 103.859492 
L 314.233492 103.859492 
" clip-path="url(#p968101d716)" style="fill: none; stroke: #313131; stroke-linecap: round"/>
   </g>
   <g id="line2d_118">
    <path d="M 309.748538 93.098316 
L 314.233492 93.098316 
" clip-path="url(#p968101d716)" style="fill: none; stroke: #313131; stroke-linecap: round"/>
   </g>
   <g id="patch_34">
    <path d="M 341.143219 89.269268 
L 350.113128 89.269268 
L 350.113128 82.165866 
L 341.143219 82.165866 
L 341.143219 89.269268 
z
" clip-path="url(#p968101d716)" style="fill: #693072; stroke: #313131; stroke-linejoin: miter"/>
   </g>
   <g id="line2d_119">
    <path d="M 345.628173 89.269268 
L 345.628173 94.367478 
" clip-path="url(#p968101d716)" style="fill: none; stroke: #313131"/>
   </g>
   <g id="line2d_120">
    <path d="M 345.628173 82.165866 
L 345.628173 80.191478 
" clip-path="url(#p968101d716)" style="fill: none; stroke: #313131"/>
   </g>
   <g id="line2d_121">
    <path d="M 343.385696 94.367478 
L 347.870651 94.367478 
" clip-path="url(#p968101d716)" style="fill: none; stroke: #313131; stroke-linecap: round"/>
   </g>
   <g id="line2d_122">
    <path d="M 343.385696 80.191478 
L 347.870651 80.191478 
" clip-path="url(#p968101d716)" style="fill: none; stroke: #313131; stroke-linecap: round"/>
   </g>
   <g id="patch_35">
    <path d="M 316.475969 100.594379 
L 325.445878 100.594379 
L 325.445878 91.503239 
L 316.475969 91.503239 
L 316.475969 100.594379 
z
" clip-path="url(#p968101d716)" style="fill: #e0a84d; stroke: #313131; stroke-linejoin: miter"/>
   </g>
   <g id="line2d_123">
    <path d="M 320.960924 100.594379 
L 320.960924 106.899729 
" clip-path="url(#p968101d716)" style="fill: none; stroke: #313131"/>
   </g>
   <g id="line2d_124">
    <path d="M 320.960924 91.503239 
L 320.960924 83.07728 
" clip-path="url(#p968101d716)" style="fill: none; stroke: #313131"/>
   </g>
   <g id="line2d_125">
    <path d="M 318.718447 106.899729 
L 323.203401 106.899729 
" clip-path="url(#p968101d716)" style="fill: none; stroke: #313131; stroke-linecap: round"/>
   </g>
   <g id="line2d_126">
    <path d="M 318.718447 83.07728 
L 323.203401 83.07728 
" clip-path="url(#p968101d716)" style="fill: none; stroke: #313131; stroke-linecap: round"/>
   </g>
   <g id="patch_36">
    <path d="M 350.113128 84.655722 
L 359.083037 84.655722 
L 359.083037 72.355329 
L 350.113128 72.355329 
L 350.113128 84.655722 
z
" clip-path="url(#p968101d716)" style="fill: #e0a84d; stroke: #313131; stroke-linejoin: miter"/>
   </g>
   <g id="line2d_127">
    <path d="M 354.598082 84.655722 
L 354.598082 90.146797 
" clip-path="url(#p968101d716)" style="fill: none; stroke: #313131"/>
   </g>
   <g id="line2d_128">
    <path d="M 354.598082 72.355329 
L 354.598082 66.344063 
" clip-path="url(#p968101d716)" style="fill: none; stroke: #313131"/>
   </g>
   <g id="line2d_129">
    <path d="M 352.355605 90.146797 
L 356.84056 90.146797 
" clip-path="url(#p968101d716)" style="fill: none; stroke: #313131; stroke-linecap: round"/>
   </g>
   <g id="line2d_130">
    <path d="M 352.355605 66.344063 
L 356.84056 66.344063 
" clip-path="url(#p968101d716)" style="fill: none; stroke: #313131; stroke-linecap: round"/>
   </g>
   <g id="line2d_131">
    <path d="M 298.536151 84.724725 
L 307.50606 84.724725 
" clip-path="url(#p968101d716)" style="fill: none; stroke: #313131"/>
   </g>
   <g id="line2d_132">
    <path d="M 332.17331 68.991641 
L 341.143219 68.991641 
" clip-path="url(#p968101d716)" style="fill: none; stroke: #313131"/>
   </g>
   <g id="line2d_133">
    <path d="M 307.50606 97.304211 
L 316.475969 97.304211 
" clip-path="url(#p968101d716)" style="fill: none; stroke: #313131"/>
   </g>
   <g id="line2d_134">
    <path d="M 341.143219 85.52976 
L 350.113128 85.52976 
" clip-path="url(#p968101d716)" style="fill: none; stroke: #313131"/>
   </g>
   <g id="line2d_135">
    <path d="M 316.475969 97.554347 
L 325.445878 97.554347 
" clip-path="url(#p968101d716)" style="fill: none; stroke: #313131"/>
   </g>
   <g id="line2d_136">
    <path d="M 350.113128 75.583887 
L 359.083037 75.583887 
" clip-path="url(#p968101d716)" style="fill: none; stroke: #313131"/>
   </g>
   <g id="patch_37">
    <path d="M 295.172435 305.452 
L 362.446753 305.452 
" style="fill: none; stroke: #262626; stroke-width: 1.875; stroke-linejoin: miter; stroke-linecap: square"/>
   </g>
   <g id="text_17">
    <!-- old -->
    <g style="fill: #262626" transform="translate(312.616344 39.168) scale(0.216 -0.216)">
     <defs>
      <path id="Arial-BoldMT-64" d="M 3503 0 
L 2688 0 
L 2688 488 
Q 2484 203 2207 64 
Q 1931 -75 1650 -75 
Q 1078 -75 670 386 
Q 263 847 263 1672 
Q 263 2516 659 2955 
Q 1056 3394 1663 3394 
Q 2219 3394 2625 2931 
L 2625 4581 
L 3503 4581 
L 3503 0 
z
M 1159 1731 
Q 1159 1200 1306 963 
Q 1519 619 1900 619 
Q 2203 619 2415 876 
Q 2628 1134 2628 1647 
Q 2628 2219 2422 2470 
Q 2216 2722 1894 2722 
Q 1581 2722 1370 2473 
Q 1159 2225 1159 1731 
z
" transform="scale(0.015625)"/>
     </defs>
     <use xlink:href="#Arial-BoldMT-6f"/>
     <use xlink:href="#Arial-BoldMT-6c" x="61.083984"/>
     <use xlink:href="#Arial-BoldMT-64" x="88.867188"/>
    </g>
   </g>
  </g>
  <g id="legend_1">
   <g id="text_18">
    <!-- enzyme -->
    <g style="fill: #262626" transform="translate(96.2505 107.445797) scale(0.216 -0.216)">
     <defs>
      <path id="ArialMT-7a" d="M 125 0 
L 125 456 
L 2238 2881 
Q 1878 2863 1603 2863 
L 250 2863 
L 250 3319 
L 2963 3319 
L 2963 2947 
L 1166 841 
L 819 456 
Q 1197 484 1528 484 
L 3063 484 
L 3063 0 
L 125 0 
z
" transform="scale(0.015625)"/>
      <path id="ArialMT-79" d="M 397 -1278 
L 334 -750 
Q 519 -800 656 -800 
Q 844 -800 956 -737 
Q 1069 -675 1141 -563 
Q 1194 -478 1313 -144 
Q 1328 -97 1363 -6 
L 103 3319 
L 709 3319 
L 1400 1397 
Q 1534 1031 1641 628 
Q 1738 1016 1872 1384 
L 2581 3319 
L 3144 3319 
L 1881 -56 
Q 1678 -603 1566 -809 
Q 1416 -1088 1222 -1217 
Q 1028 -1347 759 -1347 
Q 597 -1347 397 -1278 
z
" transform="scale(0.015625)"/>
      <path id="ArialMT-6d" d="M 422 0 
L 422 3319 
L 925 3319 
L 925 2853 
Q 1081 3097 1340 3245 
Q 1600 3394 1931 3394 
Q 2300 3394 2536 3241 
Q 2772 3088 2869 2813 
Q 3263 3394 3894 3394 
Q 4388 3394 4653 3120 
Q 4919 2847 4919 2278 
L 4919 0 
L 4359 0 
L 4359 2091 
Q 4359 2428 4304 2576 
Q 4250 2725 4106 2815 
Q 3963 2906 3769 2906 
Q 3419 2906 3187 2673 
Q 2956 2441 2956 1928 
L 2956 0 
L 2394 0 
L 2394 2156 
Q 2394 2531 2256 2718 
Q 2119 2906 1806 2906 
Q 1569 2906 1367 2781 
Q 1166 2656 1075 2415 
Q 984 2175 984 1722 
L 984 0 
L 422 0 
z
" transform="scale(0.015625)"/>
     </defs>
     <use xlink:href="#ArialMT-65"/>
     <use xlink:href="#ArialMT-6e" x="55.615234"/>
     <use xlink:href="#ArialMT-7a" x="111.230469"/>
     <use xlink:href="#ArialMT-79" x="161.230469"/>
     <use xlink:href="#ArialMT-6d" x="211.230469"/>
     <use xlink:href="#ArialMT-65" x="294.53125"/>
    </g>
   </g>
   <g id="patch_38">
    <path d="M 92.583 136.064391 
L 132.183 136.064391 
L 132.183 122.204391 
L 92.583 122.204391 
z
" style="fill: #5d9ba3; stroke: #313131; stroke-width: 1.5; stroke-linejoin: miter"/>
   </g>
   <g id="text_19">
    <!-- 0.0 -->
    <g style="fill: #262626" transform="translate(148.023 136.064391) scale(0.198 -0.198)">
     <use xlink:href="#ArialMT-30"/>
     <use xlink:href="#ArialMT-2e" x="55.615234"/>
     <use xlink:href="#ArialMT-30" x="83.398438"/>
    </g>
   </g>
   <g id="patch_39">
    <path d="M 92.583 164.072109 
L 132.183 164.072109 
L 132.183 150.212109 
L 92.583 150.212109 
z
" style="fill: #693072; stroke: #313131; stroke-width: 1.5; stroke-linejoin: miter"/>
   </g>
   <g id="text_20">
    <!-- 0.1 -->
    <g style="fill: #262626" transform="translate(148.023 164.072109) scale(0.198 -0.198)">
     <use xlink:href="#ArialMT-30"/>
     <use xlink:href="#ArialMT-2e" x="55.615234"/>
     <use xlink:href="#ArialMT-31" x="83.398438"/>
    </g>
   </g>
   <g id="patch_40">
    <path d="M 92.583 192.079828 
L 132.183 192.079828 
L 132.183 178.219828 
L 92.583 178.219828 
z
" style="fill: #e0a84d; stroke: #313131; stroke-width: 1.5; stroke-linejoin: miter"/>
   </g>
   <g id="text_21">
    <!-- 1.0 -->
    <g style="fill: #262626" transform="translate(148.023 192.079828) scale(0.198 -0.198)">
     <use xlink:href="#ArialMT-31"/>
     <use xlink:href="#ArialMT-2e" x="55.615234"/>
     <use xlink:href="#ArialMT-30" x="83.398438"/>
    </g>
   </g>
  </g>
 </g>
 <defs>
  <clipPath id="p390d68b881">
   <rect x="87.618" y="45.168" width="67.274317" height="260.284"/>
  </clipPath>
  <clipPath id="pf1e6f64f96">
   <rect x="156.802812" y="45.168" width="67.274317" height="260.284"/>
  </clipPath>
  <clipPath id="pcc46a9e575">
   <rect x="225.987624" y="45.168" width="67.274317" height="260.284"/>
  </clipPath>
  <clipPath id="p968101d716">
   <rect x="295.172435" y="45.168" width="67.274317" height="260.284"/>
  </clipPath>
 </defs>
</svg>
