<?xml version="1.0" encoding="utf-8" standalone="no"?>
<!DOCTYPE svg PUBLIC "-//W3C//DTD SVG 1.1//EN"
  "http://www.w3.org/Graphics/SVG/1.1/DTD/svg11.dtd">
<svg xmlns:xlink="http://www.w3.org/1999/xlink" width="458.73pt" height="360pt" viewBox="0 0 458.73 360" xmlns="http://www.w3.org/2000/svg" version="1.1">
 <metadata>
  <rdf:RDF xmlns:dc="http://purl.org/dc/elements/1.1/" xmlns:cc="http://creativecommons.org/ns#" xmlns:rdf="http://www.w3.org/1999/02/22-rdf-syntax-ns#">
   <cc:Work>
    <dc:type rdf:resource="http://purl.org/dc/dcmitype/StillImage"/>
    <dc:date>2024-12-02T13:31:43.984763</dc:date>
    <dc:format>image/svg+xml</dc:format>
    <dc:creator>
     <cc:Agent>
      <dc:title>Matplotlib v3.9.0, https://matplotlib.org/</dc:title>
     </cc:Agent>
    </dc:creator>
   </cc:Work>
  </rdf:RDF>
 </metadata>
 <defs>
  <style type="text/css">*{stroke-linejoin: round; stroke-linecap: butt}</style>
 </defs>
 <g id="figure_1">
  <g id="patch_1">
   <path d="M 0 360 
L 458.73 360 
L 458.73 0 
L 0 0 
L 0 360 
z
" style="fill: none"/>
  </g>
  <g id="axes_1">
   <g id="patch_2">
    <path d="M 98.598 305.452 
L 177.197766 305.452 
L 177.197766 45.168 
L 98.598 45.168 
z
" style="fill: #ffffff"/>
   </g>
   <g id="matplotlib.axis_1">
    <g id="xtick_1">
     <g id="text_1">
      <!-- 4.0 -->
      <g style="fill: #262626" transform="translate(104.486941 332.124469) scale(0.198 -0.198)">
       <defs>
        <path id="ArialMT-34" d="M 2069 0 
L 2069 1097 
L 81 1097 
L 81 1613 
L 2172 4581 
L 2631 4581 
L 2631 1613 
L 3250 1613 
L 3250 1097 
L 2631 1097 
L 2631 0 
L 2069 0 
z
M 2069 1613 
L 2069 3678 
L 634 1613 
L 2069 1613 
z
" transform="scale(0.015625)"/>
        <path id="ArialMT-2e" d="M 581 0 
L 581 641 
L 1222 641 
L 1222 0 
L 581 0 
z
" transform="scale(0.015625)"/>
        <path id="ArialMT-30" d="M 266 2259 
Q 266 3072 433 3567 
Q 600 4063 929 4331 
Q 1259 4600 1759 4600 
Q 2128 4600 2406 4451 
Q 2684 4303 2865 4023 
Q 3047 3744 3150 3342 
Q 3253 2941 3253 2259 
Q 3253 1453 3087 958 
Q 2922 463 2592 192 
Q 2263 -78 1759 -78 
Q 1097 -78 719 397 
Q 266 969 266 2259 
z
M 844 2259 
Q 844 1131 1108 757 
Q 1372 384 1759 384 
Q 2147 384 2411 759 
Q 2675 1134 2675 2259 
Q 2675 3391 2411 3762 
Q 2147 4134 1753 4134 
Q 1366 4134 1134 3806 
Q 844 3388 844 2259 
z
" transform="scale(0.015625)"/>
       </defs>
       <use xlink:href="#ArialMT-34"/>
       <use xlink:href="#ArialMT-2e" x="55.615234"/>
       <use xlink:href="#ArialMT-30" x="83.398438"/>
      </g>
     </g>
    </g>
    <g id="xtick_2">
     <g id="text_2">
      <!-- 7.4 -->
      <g style="fill: #262626" transform="translate(143.786824 332.124469) scale(0.198 -0.198)">
       <defs>
        <path id="ArialMT-37" d="M 303 3981 
L 303 4522 
L 3269 4522 
L 3269 4084 
Q 2831 3619 2401 2847 
Q 1972 2075 1738 1259 
Q 1569 684 1522 0 
L 944 0 
Q 953 541 1156 1306 
Q 1359 2072 1739 2783 
Q 2119 3494 2547 3981 
L 303 3981 
z
" transform="scale(0.015625)"/>
       </defs>
       <use xlink:href="#ArialMT-37"/>
       <use xlink:href="#ArialMT-2e" x="55.615234"/>
       <use xlink:href="#ArialMT-34" x="83.398438"/>
      </g>
     </g>
    </g>
   </g>
   <g id="matplotlib.axis_2">
    <g id="ytick_1">
     <g id="line2d_1">
      <path d="M 98.598 289.152974 
L 177.197766 289.152974 
" clip-path="url(#pf8de0f469c)" style="fill: none; stroke: #d3d3d3; stroke-width: 2; stroke-linecap: round"/>
     </g>
     <g id="text_3">
      <!-- 0.00 -->
      <g style="fill: #262626" transform="translate(47.565344 296.239209) scale(0.198 -0.198)">
       <use xlink:href="#ArialMT-30"/>
       <use xlink:href="#ArialMT-2e" x="55.615234"/>
       <use xlink:href="#ArialMT-30" x="83.398438"/>
       <use xlink:href="#ArialMT-30" x="139.013672"/>
      </g>
     </g>
    </g>
    <g id="ytick_2">
     <g id="line2d_2">
      <path d="M 98.598 244.473628 
L 177.197766 244.473628 
" clip-path="url(#pf8de0f469c)" style="fill: none; stroke: #d3d3d3; stroke-width: 2; stroke-linecap: round"/>
     </g>
     <g id="text_4">
      <!-- 0.25 -->
      <g style="fill: #262626" transform="translate(47.565344 251.559862) scale(0.198 -0.198)">
       <defs>
        <path id="ArialMT-32" d="M 3222 541 
L 3222 0 
L 194 0 
Q 188 203 259 391 
Q 375 700 629 1000 
Q 884 1300 1366 1694 
Q 2113 2306 2375 2664 
Q 2638 3022 2638 3341 
Q 2638 3675 2398 3904 
Q 2159 4134 1775 4134 
Q 1369 4134 1125 3890 
Q 881 3647 878 3216 
L 300 3275 
Q 359 3922 746 4261 
Q 1134 4600 1788 4600 
Q 2447 4600 2831 4234 
Q 3216 3869 3216 3328 
Q 3216 3053 3103 2787 
Q 2991 2522 2730 2228 
Q 2469 1934 1863 1422 
Q 1356 997 1212 845 
Q 1069 694 975 541 
L 3222 541 
z
" transform="scale(0.015625)"/>
        <path id="ArialMT-35" d="M 266 1200 
L 856 1250 
Q 922 819 1161 601 
Q 1400 384 1738 384 
Q 2144 384 2425 690 
Q 2706 997 2706 1503 
Q 2706 1984 2436 2262 
Q 2166 2541 1728 2541 
Q 1456 2541 1237 2417 
Q 1019 2294 894 2097 
L 366 2166 
L 809 4519 
L 3088 4519 
L 3088 3981 
L 1259 3981 
L 1013 2750 
Q 1425 3038 1878 3038 
Q 2478 3038 2890 2622 
Q 3303 2206 3303 1553 
Q 3303 931 2941 478 
Q 2500 -78 1738 -78 
Q 1113 -78 717 272 
Q 322 622 266 1200 
z
" transform="scale(0.015625)"/>
       </defs>
       <use xlink:href="#ArialMT-30"/>
       <use xlink:href="#ArialMT-2e" x="55.615234"/>
       <use xlink:href="#ArialMT-32" x="83.398438"/>
       <use xlink:href="#ArialMT-35" x="139.013672"/>
      </g>
     </g>
    </g>
    <g id="ytick_3">
     <g id="line2d_3">
      <path d="M 98.598 199.794282 
L 177.197766 199.794282 
" clip-path="url(#pf8de0f469c)" style="fill: none; stroke: #d3d3d3; stroke-width: 2; stroke-linecap: round"/>
     </g>
     <g id="text_5">
      <!-- 0.50 -->
      <g style="fill: #262626" transform="translate(47.565344 206.880516) scale(0.198 -0.198)">
       <use xlink:href="#ArialMT-30"/>
       <use xlink:href="#ArialMT-2e" x="55.615234"/>
       <use xlink:href="#ArialMT-35" x="83.398438"/>
       <use xlink:href="#ArialMT-30" x="139.013672"/>
      </g>
     </g>
    </g>
    <g id="ytick_4">
     <g id="line2d_4">
      <path d="M 98.598 155.114935 
L 177.197766 155.114935 
" clip-path="url(#pf8de0f469c)" style="fill: none; stroke: #d3d3d3; stroke-width: 2; stroke-linecap: round"/>
     </g>
     <g id="text_6">
      <!-- 0.75 -->
      <g style="fill: #262626" transform="translate(47.565344 162.20117) scale(0.198 -0.198)">
       <use xlink:href="#ArialMT-30"/>
       <use xlink:href="#ArialMT-2e" x="55.615234"/>
       <use xlink:href="#ArialMT-37" x="83.398438"/>
       <use xlink:href="#ArialMT-35" x="139.013672"/>
      </g>
     </g>
    </g>
    <g id="ytick_5">
     <g id="line2d_5">
      <path d="M 98.598 110.435589 
L 177.197766 110.435589 
" clip-path="url(#pf8de0f469c)" style="fill: none; stroke: #d3d3d3; stroke-width: 2; stroke-linecap: round"/>
     </g>
     <g id="text_7">
      <!-- 1.00 -->
      <g style="fill: #262626" transform="translate(47.565344 117.521823) scale(0.198 -0.198)">
       <defs>
        <path id="ArialMT-31" d="M 2384 0 
L 1822 0 
L 1822 3584 
Q 1619 3391 1289 3197 
Q 959 3003 697 2906 
L 697 3450 
Q 1169 3672 1522 3987 
Q 1875 4303 2022 4600 
L 2384 4600 
L 2384 0 
z
" transform="scale(0.015625)"/>
       </defs>
       <use xlink:href="#ArialMT-31"/>
       <use xlink:href="#ArialMT-2e" x="55.615234"/>
       <use xlink:href="#ArialMT-30" x="83.398438"/>
       <use xlink:href="#ArialMT-30" x="139.013672"/>
      </g>
     </g>
    </g>
    <g id="ytick_6">
     <g id="line2d_6">
      <path d="M 98.598 65.756243 
L 177.197766 65.756243 
" clip-path="url(#pf8de0f469c)" style="fill: none; stroke: #d3d3d3; stroke-width: 2; stroke-linecap: round"/>
     </g>
     <g id="text_8">
      <!-- 1.25 -->
      <g style="fill: #262626" transform="translate(47.565344 72.842477) scale(0.198 -0.198)">
       <use xlink:href="#ArialMT-31"/>
       <use xlink:href="#ArialMT-2e" x="55.615234"/>
       <use xlink:href="#ArialMT-32" x="83.398438"/>
       <use xlink:href="#ArialMT-35" x="139.013672"/>
      </g>
     </g>
    </g>
    <g id="text_9">
     <!-- OD292 - background -->
     <g style="fill: #262626" transform="translate(39.019219 275.561) rotate(-90) scale(0.216 -0.216)">
      <defs>
       <path id="ArialMT-4f" d="M 309 2231 
Q 309 3372 921 4017 
Q 1534 4663 2503 4663 
Q 3138 4663 3647 4359 
Q 4156 4056 4423 3514 
Q 4691 2972 4691 2284 
Q 4691 1588 4409 1038 
Q 4128 488 3612 205 
Q 3097 -78 2500 -78 
Q 1853 -78 1343 234 
Q 834 547 571 1087 
Q 309 1628 309 2231 
z
M 934 2222 
Q 934 1394 1379 917 
Q 1825 441 2497 441 
Q 3181 441 3623 922 
Q 4066 1403 4066 2288 
Q 4066 2847 3877 3264 
Q 3688 3681 3323 3911 
Q 2959 4141 2506 4141 
Q 1863 4141 1398 3698 
Q 934 3256 934 2222 
z
" transform="scale(0.015625)"/>
       <path id="ArialMT-44" d="M 494 0 
L 494 4581 
L 2072 4581 
Q 2606 4581 2888 4516 
Q 3281 4425 3559 4188 
Q 3922 3881 4101 3404 
Q 4281 2928 4281 2316 
Q 4281 1794 4159 1391 
Q 4038 988 3847 723 
Q 3656 459 3429 307 
Q 3203 156 2883 78 
Q 2563 0 2147 0 
L 494 0 
z
M 1100 541 
L 2078 541 
Q 2531 541 2789 625 
Q 3047 709 3200 863 
Q 3416 1078 3536 1442 
Q 3656 1806 3656 2325 
Q 3656 3044 3420 3430 
Q 3184 3816 2847 3947 
Q 2603 4041 2063 4041 
L 1100 4041 
L 1100 541 
z
" transform="scale(0.015625)"/>
       <path id="ArialMT-39" d="M 350 1059 
L 891 1109 
Q 959 728 1153 556 
Q 1347 384 1650 384 
Q 1909 384 2104 503 
Q 2300 622 2425 820 
Q 2550 1019 2634 1356 
Q 2719 1694 2719 2044 
Q 2719 2081 2716 2156 
Q 2547 1888 2255 1720 
Q 1963 1553 1622 1553 
Q 1053 1553 659 1965 
Q 266 2378 266 3053 
Q 266 3750 677 4175 
Q 1088 4600 1706 4600 
Q 2153 4600 2523 4359 
Q 2894 4119 3086 3673 
Q 3278 3228 3278 2384 
Q 3278 1506 3087 986 
Q 2897 466 2520 194 
Q 2144 -78 1638 -78 
Q 1100 -78 759 220 
Q 419 519 350 1059 
z
M 2653 3081 
Q 2653 3566 2395 3850 
Q 2138 4134 1775 4134 
Q 1400 4134 1122 3828 
Q 844 3522 844 3034 
Q 844 2597 1108 2323 
Q 1372 2050 1759 2050 
Q 2150 2050 2401 2323 
Q 2653 2597 2653 3081 
z
" transform="scale(0.015625)"/>
       <path id="ArialMT-20" transform="scale(0.015625)"/>
       <path id="ArialMT-2d" d="M 203 1375 
L 203 1941 
L 1931 1941 
L 1931 1375 
L 203 1375 
z
" transform="scale(0.015625)"/>
       <path id="ArialMT-62" d="M 941 0 
L 419 0 
L 419 4581 
L 981 4581 
L 981 2947 
Q 1338 3394 1891 3394 
Q 2197 3394 2470 3270 
Q 2744 3147 2920 2923 
Q 3097 2700 3197 2384 
Q 3297 2069 3297 1709 
Q 3297 856 2875 390 
Q 2453 -75 1863 -75 
Q 1275 -75 941 416 
L 941 0 
z
M 934 1684 
Q 934 1088 1097 822 
Q 1363 388 1816 388 
Q 2184 388 2453 708 
Q 2722 1028 2722 1663 
Q 2722 2313 2464 2622 
Q 2206 2931 1841 2931 
Q 1472 2931 1203 2611 
Q 934 2291 934 1684 
z
" transform="scale(0.015625)"/>
       <path id="ArialMT-61" d="M 2588 409 
Q 2275 144 1986 34 
Q 1697 -75 1366 -75 
Q 819 -75 525 192 
Q 231 459 231 875 
Q 231 1119 342 1320 
Q 453 1522 633 1644 
Q 813 1766 1038 1828 
Q 1203 1872 1538 1913 
Q 2219 1994 2541 2106 
Q 2544 2222 2544 2253 
Q 2544 2597 2384 2738 
Q 2169 2928 1744 2928 
Q 1347 2928 1158 2789 
Q 969 2650 878 2297 
L 328 2372 
Q 403 2725 575 2942 
Q 747 3159 1072 3276 
Q 1397 3394 1825 3394 
Q 2250 3394 2515 3294 
Q 2781 3194 2906 3042 
Q 3031 2891 3081 2659 
Q 3109 2516 3109 2141 
L 3109 1391 
Q 3109 606 3145 398 
Q 3181 191 3288 0 
L 2700 0 
Q 2613 175 2588 409 
z
M 2541 1666 
Q 2234 1541 1622 1453 
Q 1275 1403 1131 1340 
Q 988 1278 909 1158 
Q 831 1038 831 891 
Q 831 666 1001 516 
Q 1172 366 1500 366 
Q 1825 366 2078 508 
Q 2331 650 2450 897 
Q 2541 1088 2541 1459 
L 2541 1666 
z
" transform="scale(0.015625)"/>
       <path id="ArialMT-63" d="M 2588 1216 
L 3141 1144 
Q 3050 572 2676 248 
Q 2303 -75 1759 -75 
Q 1078 -75 664 370 
Q 250 816 250 1647 
Q 250 2184 428 2587 
Q 606 2991 970 3192 
Q 1334 3394 1763 3394 
Q 2303 3394 2647 3120 
Q 2991 2847 3088 2344 
L 2541 2259 
Q 2463 2594 2264 2762 
Q 2066 2931 1784 2931 
Q 1359 2931 1093 2626 
Q 828 2322 828 1663 
Q 828 994 1084 691 
Q 1341 388 1753 388 
Q 2084 388 2306 591 
Q 2528 794 2588 1216 
z
" transform="scale(0.015625)"/>
       <path id="ArialMT-6b" d="M 425 0 
L 425 4581 
L 988 4581 
L 988 1969 
L 2319 3319 
L 3047 3319 
L 1778 2088 
L 3175 0 
L 2481 0 
L 1384 1697 
L 988 1316 
L 988 0 
L 425 0 
z
" transform="scale(0.015625)"/>
       <path id="ArialMT-67" d="M 319 -275 
L 866 -356 
Q 900 -609 1056 -725 
Q 1266 -881 1628 -881 
Q 2019 -881 2231 -725 
Q 2444 -569 2519 -288 
Q 2563 -116 2559 434 
Q 2191 0 1641 0 
Q 956 0 581 494 
Q 206 988 206 1678 
Q 206 2153 378 2554 
Q 550 2956 876 3175 
Q 1203 3394 1644 3394 
Q 2231 3394 2613 2919 
L 2613 3319 
L 3131 3319 
L 3131 450 
Q 3131 -325 2973 -648 
Q 2816 -972 2473 -1159 
Q 2131 -1347 1631 -1347 
Q 1038 -1347 672 -1080 
Q 306 -813 319 -275 
z
M 784 1719 
Q 784 1066 1043 766 
Q 1303 466 1694 466 
Q 2081 466 2343 764 
Q 2606 1063 2606 1700 
Q 2606 2309 2336 2618 
Q 2066 2928 1684 2928 
Q 1309 2928 1046 2623 
Q 784 2319 784 1719 
z
" transform="scale(0.015625)"/>
       <path id="ArialMT-72" d="M 416 0 
L 416 3319 
L 922 3319 
L 922 2816 
Q 1116 3169 1280 3281 
Q 1444 3394 1641 3394 
Q 1925 3394 2219 3213 
L 2025 2691 
Q 1819 2813 1613 2813 
Q 1428 2813 1281 2702 
Q 1134 2591 1072 2394 
Q 978 2094 978 1738 
L 978 0 
L 416 0 
z
" transform="scale(0.015625)"/>
       <path id="ArialMT-6f" d="M 213 1659 
Q 213 2581 725 3025 
Q 1153 3394 1769 3394 
Q 2453 3394 2887 2945 
Q 3322 2497 3322 1706 
Q 3322 1066 3130 698 
Q 2938 331 2570 128 
Q 2203 -75 1769 -75 
Q 1072 -75 642 372 
Q 213 819 213 1659 
z
M 791 1659 
Q 791 1022 1069 705 
Q 1347 388 1769 388 
Q 2188 388 2466 706 
Q 2744 1025 2744 1678 
Q 2744 2294 2464 2611 
Q 2184 2928 1769 2928 
Q 1347 2928 1069 2612 
Q 791 2297 791 1659 
z
" transform="scale(0.015625)"/>
       <path id="ArialMT-75" d="M 2597 0 
L 2597 488 
Q 2209 -75 1544 -75 
Q 1250 -75 995 37 
Q 741 150 617 320 
Q 494 491 444 738 
Q 409 903 409 1263 
L 409 3319 
L 972 3319 
L 972 1478 
Q 972 1038 1006 884 
Q 1059 663 1231 536 
Q 1403 409 1656 409 
Q 1909 409 2131 539 
Q 2353 669 2445 892 
Q 2538 1116 2538 1541 
L 2538 3319 
L 3100 3319 
L 3100 0 
L 2597 0 
z
" transform="scale(0.015625)"/>
       <path id="ArialMT-6e" d="M 422 0 
L 422 3319 
L 928 3319 
L 928 2847 
Q 1294 3394 1984 3394 
Q 2284 3394 2536 3286 
Q 2788 3178 2913 3003 
Q 3038 2828 3088 2588 
Q 3119 2431 3119 2041 
L 3119 0 
L 2556 0 
L 2556 2019 
Q 2556 2363 2490 2533 
Q 2425 2703 2258 2804 
Q 2091 2906 1866 2906 
Q 1506 2906 1245 2678 
Q 984 2450 984 1813 
L 984 0 
L 422 0 
z
" transform="scale(0.015625)"/>
       <path id="ArialMT-64" d="M 2575 0 
L 2575 419 
Q 2259 -75 1647 -75 
Q 1250 -75 917 144 
Q 584 363 401 755 
Q 219 1147 219 1656 
Q 219 2153 384 2558 
Q 550 2963 881 3178 
Q 1213 3394 1622 3394 
Q 1922 3394 2156 3267 
Q 2391 3141 2538 2938 
L 2538 4581 
L 3097 4581 
L 3097 0 
L 2575 0 
z
M 797 1656 
Q 797 1019 1065 703 
Q 1334 388 1700 388 
Q 2069 388 2326 689 
Q 2584 991 2584 1609 
Q 2584 2291 2321 2609 
Q 2059 2928 1675 2928 
Q 1300 2928 1048 2622 
Q 797 2316 797 1656 
z
" transform="scale(0.015625)"/>
      </defs>
      <use xlink:href="#ArialMT-4f"/>
      <use xlink:href="#ArialMT-44" x="77.783203"/>
      <use xlink:href="#ArialMT-32" x="150"/>
      <use xlink:href="#ArialMT-39" x="205.615234"/>
      <use xlink:href="#ArialMT-32" x="261.230469"/>
      <use xlink:href="#ArialMT-20" x="316.845703"/>
      <use xlink:href="#ArialMT-2d" x="344.628906"/>
      <use xlink:href="#ArialMT-20" x="377.929688"/>
      <use xlink:href="#ArialMT-62" x="405.712891"/>
      <use xlink:href="#ArialMT-61" x="461.328125"/>
      <use xlink:href="#ArialMT-63" x="516.943359"/>
      <use xlink:href="#ArialMT-6b" x="566.943359"/>
      <use xlink:href="#ArialMT-67" x="616.943359"/>
      <use xlink:href="#ArialMT-72" x="672.558594"/>
      <use xlink:href="#ArialMT-6f" x="705.859375"/>
      <use xlink:href="#ArialMT-75" x="761.474609"/>
      <use xlink:href="#ArialMT-6e" x="817.089844"/>
      <use xlink:href="#ArialMT-64" x="872.705078"/>
     </g>
    </g>
   </g>
   <g id="patch_3">
    <path d="M 102.527988 288.974257 
L 113.007957 288.974257 
L 113.007957 287.857273 
L 102.527988 287.857273 
L 102.527988 288.974257 
z
" clip-path="url(#pf8de0f469c)" style="fill: #5d9ba3; stroke: #313131; stroke-linejoin: miter"/>
   </g>
   <g id="line2d_7">
    <path d="M 107.767973 288.974257 
L 107.767973 290.046561 
" clip-path="url(#pf8de0f469c)" style="fill: none; stroke: #313131"/>
   </g>
   <g id="line2d_8">
    <path d="M 107.767973 287.857273 
L 107.767973 286.829648 
" clip-path="url(#pf8de0f469c)" style="fill: none; stroke: #313131"/>
   </g>
   <g id="line2d_9">
    <path d="M 105.14798 290.046561 
L 110.387965 290.046561 
" clip-path="url(#pf8de0f469c)" style="fill: none; stroke: #313131; stroke-linecap: round"/>
   </g>
   <g id="line2d_10">
    <path d="M 105.14798 286.829648 
L 110.387965 286.829648 
" clip-path="url(#pf8de0f469c)" style="fill: none; stroke: #313131; stroke-linecap: round"/>
   </g>
   <g id="patch_4">
    <path d="M 141.827871 69.911422 
L 152.30784 69.911422 
L 152.30784 67.007264 
L 141.827871 67.007264 
L 141.827871 69.911422 
z
" clip-path="url(#pf8de0f469c)" style="fill: #5d9ba3; stroke: #313131; stroke-linejoin: miter"/>
   </g>
   <g id="line2d_11">
    <path d="M 147.067855 69.911422 
L 147.067855 72.190069 
" clip-path="url(#pf8de0f469c)" style="fill: none; stroke: #313131"/>
   </g>
   <g id="line2d_12">
    <path d="M 147.067855 67.007264 
L 147.067855 65.398808 
" clip-path="url(#pf8de0f469c)" style="fill: none; stroke: #313131"/>
   </g>
   <g id="line2d_13">
    <path d="M 144.447863 72.190069 
L 149.687848 72.190069 
" clip-path="url(#pf8de0f469c)" style="fill: none; stroke: #313131; stroke-linecap: round"/>
   </g>
   <g id="line2d_14">
    <path d="M 144.447863 65.398808 
L 149.687848 65.398808 
" clip-path="url(#pf8de0f469c)" style="fill: none; stroke: #313131; stroke-linecap: round"/>
   </g>
   <g id="patch_5">
    <path d="M 113.007957 290.761431 
L 123.487926 290.761431 
L 123.487926 287.142404 
L 113.007957 287.142404 
L 113.007957 290.761431 
z
" clip-path="url(#pf8de0f469c)" style="fill: #693072; stroke: #313131; stroke-linejoin: miter"/>
   </g>
   <g id="line2d_15">
    <path d="M 118.247941 290.761431 
L 118.247941 291.297583 
" clip-path="url(#pf8de0f469c)" style="fill: none; stroke: #313131"/>
   </g>
   <g id="line2d_16">
    <path d="M 118.247941 287.142404 
L 118.247941 286.650931 
" clip-path="url(#pf8de0f469c)" style="fill: none; stroke: #313131"/>
   </g>
   <g id="line2d_17">
    <path d="M 115.627949 291.297583 
L 120.867934 291.297583 
" clip-path="url(#pf8de0f469c)" style="fill: none; stroke: #313131; stroke-linecap: round"/>
   </g>
   <g id="line2d_18">
    <path d="M 115.627949 286.650931 
L 120.867934 286.650931 
" clip-path="url(#pf8de0f469c)" style="fill: none; stroke: #313131; stroke-linecap: round"/>
   </g>
   <g id="patch_6">
    <path d="M 152.30784 288.438105 
L 162.787809 288.438105 
L 162.787809 288.08067 
L 152.30784 288.08067 
L 152.30784 288.438105 
z
" clip-path="url(#pf8de0f469c)" style="fill: #693072; stroke: #313131; stroke-linejoin: miter"/>
   </g>
   <g id="line2d_19">
    <path d="M 157.547824 288.438105 
L 157.547824 288.974257 
" clip-path="url(#pf8de0f469c)" style="fill: none; stroke: #313131"/>
   </g>
   <g id="line2d_20">
    <path d="M 157.547824 288.08067 
L 157.547824 287.544518 
" clip-path="url(#pf8de0f469c)" style="fill: none; stroke: #313131"/>
   </g>
   <g id="line2d_21">
    <path d="M 154.927832 288.974257 
L 160.167816 288.974257 
" clip-path="url(#pf8de0f469c)" style="fill: none; stroke: #313131; stroke-linecap: round"/>
   </g>
   <g id="line2d_22">
    <path d="M 154.927832 287.544518 
L 160.167816 287.544518 
" clip-path="url(#pf8de0f469c)" style="fill: none; stroke: #313131; stroke-linecap: round"/>
   </g>
   <g id="patch_7">
    <path d="M 123.487926 290.225279 
L 133.967894 290.225279 
L 133.967894 288.035991 
L 123.487926 288.035991 
L 123.487926 290.225279 
z
" clip-path="url(#pf8de0f469c)" style="fill: #e0a84d; stroke: #313131; stroke-linejoin: miter"/>
   </g>
   <g id="line2d_23">
    <path d="M 128.72791 290.225279 
L 128.72791 292.012453 
" clip-path="url(#pf8de0f469c)" style="fill: none; stroke: #313131"/>
   </g>
   <g id="line2d_24">
    <path d="M 128.72791 288.035991 
L 128.72791 287.365801 
" clip-path="url(#pf8de0f469c)" style="fill: none; stroke: #313131"/>
   </g>
   <g id="line2d_25">
    <path d="M 126.107918 292.012453 
L 131.347902 292.012453 
" clip-path="url(#pf8de0f469c)" style="fill: none; stroke: #313131; stroke-linecap: round"/>
   </g>
   <g id="line2d_26">
    <path d="M 126.107918 287.365801 
L 131.347902 287.365801 
" clip-path="url(#pf8de0f469c)" style="fill: none; stroke: #313131; stroke-linecap: round"/>
   </g>
   <g id="patch_8">
    <path d="M 162.787809 287.589197 
L 173.267777 287.589197 
L 173.267777 286.382855 
L 162.787809 286.382855 
L 162.787809 287.589197 
z
" clip-path="url(#pf8de0f469c)" style="fill: #e0a84d; stroke: #313131; stroke-linejoin: miter"/>
   </g>
   <g id="line2d_27">
    <path d="M 168.027793 287.589197 
L 168.027793 288.259388 
" clip-path="url(#pf8de0f469c)" style="fill: none; stroke: #313131"/>
   </g>
   <g id="line2d_28">
    <path d="M 168.027793 286.382855 
L 168.027793 286.114779 
" clip-path="url(#pf8de0f469c)" style="fill: none; stroke: #313131"/>
   </g>
   <g id="line2d_29">
    <path d="M 165.407801 288.259388 
L 170.647785 288.259388 
" clip-path="url(#pf8de0f469c)" style="fill: none; stroke: #313131; stroke-linecap: round"/>
   </g>
   <g id="line2d_30">
    <path d="M 165.407801 286.114779 
L 170.647785 286.114779 
" clip-path="url(#pf8de0f469c)" style="fill: none; stroke: #313131; stroke-linecap: round"/>
   </g>
   <g id="line2d_31">
    <path d="M 102.527988 288.616822 
L 113.007957 288.616822 
" clip-path="url(#pf8de0f469c)" style="fill: none; stroke: #313131"/>
   </g>
   <g id="line2d_32">
    <path d="M 141.827871 68.347645 
L 152.30784 68.347645 
" clip-path="url(#pf8de0f469c)" style="fill: none; stroke: #313131"/>
   </g>
   <g id="line2d_33">
    <path d="M 113.007957 287.633877 
L 123.487926 287.633877 
" clip-path="url(#pf8de0f469c)" style="fill: none; stroke: #313131"/>
   </g>
   <g id="line2d_34">
    <path d="M 152.30784 288.259388 
L 162.787809 288.259388 
" clip-path="url(#pf8de0f469c)" style="fill: none; stroke: #313131"/>
   </g>
   <g id="line2d_35">
    <path d="M 123.487926 288.884898 
L 133.967894 288.884898 
" clip-path="url(#pf8de0f469c)" style="fill: none; stroke: #313131"/>
   </g>
   <g id="line2d_36">
    <path d="M 162.787809 286.919007 
L 173.267777 286.919007 
" clip-path="url(#pf8de0f469c)" style="fill: none; stroke: #313131"/>
   </g>
   <g id="patch_9">
    <path d="M 98.598 305.452 
L 98.598 45.168 
" style="fill: none; stroke: #262626; stroke-width: 1.875; stroke-linejoin: miter; stroke-linecap: square"/>
   </g>
   <g id="patch_10">
    <path d="M 98.598 305.452 
L 177.197766 305.452 
" style="fill: none; stroke: #262626; stroke-width: 1.875; stroke-linejoin: miter; stroke-linecap: square"/>
   </g>
   <g id="text_10">
    <!-- methyl -->
    <g style="fill: #262626" transform="translate(103.08982 39.168) scale(0.216 -0.216)">
     <defs>
      <path id="Arial-BoldMT-6d" d="M 394 3319 
L 1203 3319 
L 1203 2866 
Q 1638 3394 2238 3394 
Q 2556 3394 2790 3262 
Q 3025 3131 3175 2866 
Q 3394 3131 3647 3262 
Q 3900 3394 4188 3394 
Q 4553 3394 4806 3245 
Q 5059 3097 5184 2809 
Q 5275 2597 5275 2122 
L 5275 0 
L 4397 0 
L 4397 1897 
Q 4397 2391 4306 2534 
Q 4184 2722 3931 2722 
Q 3747 2722 3584 2609 
Q 3422 2497 3350 2280 
Q 3278 2063 3278 1594 
L 3278 0 
L 2400 0 
L 2400 1819 
Q 2400 2303 2353 2443 
Q 2306 2584 2207 2653 
Q 2109 2722 1941 2722 
Q 1738 2722 1575 2612 
Q 1413 2503 1342 2297 
Q 1272 2091 1272 1613 
L 1272 0 
L 394 0 
L 394 3319 
z
" transform="scale(0.015625)"/>
      <path id="Arial-BoldMT-65" d="M 2381 1056 
L 3256 909 
Q 3088 428 2723 176 
Q 2359 -75 1813 -75 
Q 947 -75 531 491 
Q 203 944 203 1634 
Q 203 2459 634 2926 
Q 1066 3394 1725 3394 
Q 2466 3394 2894 2905 
Q 3322 2416 3303 1406 
L 1103 1406 
Q 1113 1016 1316 798 
Q 1519 581 1822 581 
Q 2028 581 2168 693 
Q 2309 806 2381 1056 
z
M 2431 1944 
Q 2422 2325 2234 2523 
Q 2047 2722 1778 2722 
Q 1491 2722 1303 2513 
Q 1116 2303 1119 1944 
L 2431 1944 
z
" transform="scale(0.015625)"/>
      <path id="Arial-BoldMT-74" d="M 1981 3319 
L 1981 2619 
L 1381 2619 
L 1381 1281 
Q 1381 875 1398 808 
Q 1416 741 1477 697 
Q 1538 653 1625 653 
Q 1747 653 1978 738 
L 2053 56 
Q 1747 -75 1359 -75 
Q 1122 -75 931 4 
Q 741 84 652 211 
Q 563 338 528 553 
Q 500 706 500 1172 
L 500 2619 
L 97 2619 
L 97 3319 
L 500 3319 
L 500 3978 
L 1381 4491 
L 1381 3319 
L 1981 3319 
z
" transform="scale(0.015625)"/>
      <path id="Arial-BoldMT-68" d="M 1334 4581 
L 1334 2897 
Q 1759 3394 2350 3394 
Q 2653 3394 2897 3281 
Q 3141 3169 3264 2994 
Q 3388 2819 3433 2606 
Q 3478 2394 3478 1947 
L 3478 0 
L 2600 0 
L 2600 1753 
Q 2600 2275 2550 2415 
Q 2500 2556 2373 2639 
Q 2247 2722 2056 2722 
Q 1838 2722 1666 2615 
Q 1494 2509 1414 2295 
Q 1334 2081 1334 1663 
L 1334 0 
L 456 0 
L 456 4581 
L 1334 4581 
z
" transform="scale(0.015625)"/>
      <path id="Arial-BoldMT-79" d="M 44 3319 
L 978 3319 
L 1772 963 
L 2547 3319 
L 3456 3319 
L 2284 125 
L 2075 -453 
Q 1959 -744 1854 -897 
Q 1750 -1050 1614 -1145 
Q 1478 -1241 1279 -1294 
Q 1081 -1347 831 -1347 
Q 578 -1347 334 -1294 
L 256 -606 
Q 463 -647 628 -647 
Q 934 -647 1081 -467 
Q 1228 -288 1306 -9 
L 44 3319 
z
" transform="scale(0.015625)"/>
      <path id="Arial-BoldMT-6c" d="M 459 0 
L 459 4581 
L 1338 4581 
L 1338 0 
L 459 0 
z
" transform="scale(0.015625)"/>
     </defs>
     <use xlink:href="#Arial-BoldMT-6d"/>
     <use xlink:href="#Arial-BoldMT-65" x="88.916016"/>
     <use xlink:href="#Arial-BoldMT-74" x="144.53125"/>
     <use xlink:href="#Arial-BoldMT-68" x="177.832031"/>
     <use xlink:href="#Arial-BoldMT-79" x="238.916016"/>
     <use xlink:href="#Arial-BoldMT-6c" x="294.53125"/>
    </g>
   </g>
  </g>
  <g id="axes_2">
   <g id="patch_11">
    <path d="M 183.599176 305.452 
L 262.198942 305.452 
L 262.198942 45.168 
L 183.599176 45.168 
z
" style="fill: #ffffff"/>
   </g>
   <g id="matplotlib.axis_3">
    <g id="xtick_3">
     <g id="text_11">
      <!-- 4.0 -->
      <g style="fill: #262626" transform="translate(189.488118 332.124469) scale(0.198 -0.198)">
       <use xlink:href="#ArialMT-34"/>
       <use xlink:href="#ArialMT-2e" x="55.615234"/>
       <use xlink:href="#ArialMT-30" x="83.398438"/>
      </g>
     </g>
    </g>
    <g id="xtick_4">
     <g id="text_12">
      <!-- 7.4 -->
      <g style="fill: #262626" transform="translate(228.788001 332.124469) scale(0.198 -0.198)">
       <use xlink:href="#ArialMT-37"/>
       <use xlink:href="#ArialMT-2e" x="55.615234"/>
       <use xlink:href="#ArialMT-34" x="83.398438"/>
      </g>
     </g>
    </g>
   </g>
   <g id="matplotlib.axis_4">
    <g id="ytick_7">
     <g id="line2d_37">
      <path d="M 183.599176 289.152974 
L 262.198942 289.152974 
" clip-path="url(#p0cde3a43e1)" style="fill: none; stroke: #d3d3d3; stroke-width: 2; stroke-linecap: round"/>
     </g>
    </g>
    <g id="ytick_8">
     <g id="line2d_38">
      <path d="M 183.599176 244.473628 
L 262.198942 244.473628 
" clip-path="url(#p0cde3a43e1)" style="fill: none; stroke: #d3d3d3; stroke-width: 2; stroke-linecap: round"/>
     </g>
    </g>
    <g id="ytick_9">
     <g id="line2d_39">
      <path d="M 183.599176 199.794282 
L 262.198942 199.794282 
" clip-path="url(#p0cde3a43e1)" style="fill: none; stroke: #d3d3d3; stroke-width: 2; stroke-linecap: round"/>
     </g>
    </g>
    <g id="ytick_10">
     <g id="line2d_40">
      <path d="M 183.599176 155.114935 
L 262.198942 155.114935 
" clip-path="url(#p0cde3a43e1)" style="fill: none; stroke: #d3d3d3; stroke-width: 2; stroke-linecap: round"/>
     </g>
    </g>
    <g id="ytick_11">
     <g id="line2d_41">
      <path d="M 183.599176 110.435589 
L 262.198942 110.435589 
" clip-path="url(#p0cde3a43e1)" style="fill: none; stroke: #d3d3d3; stroke-width: 2; stroke-linecap: round"/>
     </g>
    </g>
    <g id="ytick_12">
     <g id="line2d_42">
      <path d="M 183.599176 65.756243 
L 262.198942 65.756243 
" clip-path="url(#p0cde3a43e1)" style="fill: none; stroke: #d3d3d3; stroke-width: 2; stroke-linecap: round"/>
     </g>
    </g>
   </g>
   <g id="patch_12">
    <path d="M 187.529165 289.287012 
L 198.009133 289.287012 
L 198.009133 288.527464 
L 187.529165 288.527464 
L 187.529165 289.287012 
z
" clip-path="url(#p0cde3a43e1)" style="fill: #5d9ba3; stroke: #313131; stroke-linejoin: miter"/>
   </g>
   <g id="line2d_43">
    <path d="M 192.769149 289.287012 
L 192.769149 289.689127 
" clip-path="url(#p0cde3a43e1)" style="fill: none; stroke: #313131"/>
   </g>
   <g id="line2d_44">
    <path d="M 192.769149 288.527464 
L 192.769149 288.259388 
" clip-path="url(#p0cde3a43e1)" style="fill: none; stroke: #313131"/>
   </g>
   <g id="line2d_45">
    <path d="M 190.149157 289.689127 
L 195.389141 289.689127 
" clip-path="url(#p0cde3a43e1)" style="fill: none; stroke: #313131; stroke-linecap: round"/>
   </g>
   <g id="line2d_46">
    <path d="M 190.149157 288.259388 
L 195.389141 288.259388 
" clip-path="url(#p0cde3a43e1)" style="fill: none; stroke: #313131; stroke-linecap: round"/>
   </g>
   <g id="patch_13">
    <path d="M 226.829047 68.6604 
L 237.309016 68.6604 
L 237.309016 60.350042 
L 226.829047 60.350042 
L 226.829047 68.6604 
z
" clip-path="url(#p0cde3a43e1)" style="fill: #5d9ba3; stroke: #313131; stroke-linejoin: miter"/>
   </g>
   <g id="line2d_47">
    <path d="M 232.069032 68.6604 
L 232.069032 70.402895 
" clip-path="url(#p0cde3a43e1)" style="fill: none; stroke: #313131"/>
   </g>
   <g id="line2d_48">
    <path d="M 232.069032 60.350042 
L 232.069032 56.999091 
" clip-path="url(#p0cde3a43e1)" style="fill: none; stroke: #313131"/>
   </g>
   <g id="line2d_49">
    <path d="M 229.44904 70.402895 
L 234.689024 70.402895 
" clip-path="url(#p0cde3a43e1)" style="fill: none; stroke: #313131; stroke-linecap: round"/>
   </g>
   <g id="line2d_50">
    <path d="M 229.44904 56.999091 
L 234.689024 56.999091 
" clip-path="url(#p0cde3a43e1)" style="fill: none; stroke: #313131; stroke-linecap: round"/>
   </g>
   <g id="patch_14">
    <path d="M 198.009133 290.403996 
L 208.489102 290.403996 
L 208.489102 288.840219 
L 198.009133 288.840219 
L 198.009133 290.403996 
z
" clip-path="url(#p0cde3a43e1)" style="fill: #693072; stroke: #313131; stroke-linejoin: miter"/>
   </g>
   <g id="line2d_51">
    <path d="M 203.249118 290.403996 
L 203.249118 291.297583 
" clip-path="url(#p0cde3a43e1)" style="fill: none; stroke: #313131"/>
   </g>
   <g id="line2d_52">
    <path d="M 203.249118 288.840219 
L 203.249118 287.008366 
" clip-path="url(#p0cde3a43e1)" style="fill: none; stroke: #313131"/>
   </g>
   <g id="line2d_53">
    <path d="M 200.629126 291.297583 
L 205.86911 291.297583 
" clip-path="url(#p0cde3a43e1)" style="fill: none; stroke: #313131; stroke-linecap: round"/>
   </g>
   <g id="line2d_54">
    <path d="M 200.629126 287.008366 
L 205.86911 287.008366 
" clip-path="url(#p0cde3a43e1)" style="fill: none; stroke: #313131; stroke-linecap: round"/>
   </g>
   <g id="patch_15">
    <path d="M 237.309016 178.482234 
L 247.788985 178.482234 
L 247.788985 170.261234 
L 237.309016 170.261234 
L 237.309016 178.482234 
z
" clip-path="url(#p0cde3a43e1)" style="fill: #693072; stroke: #313131; stroke-linejoin: miter"/>
   </g>
   <g id="line2d_55">
    <path d="M 242.549001 178.482234 
L 242.549001 182.101261 
" clip-path="url(#p0cde3a43e1)" style="fill: none; stroke: #313131"/>
   </g>
   <g id="line2d_56">
    <path d="M 242.549001 170.261234 
L 242.549001 167.446435 
" clip-path="url(#p0cde3a43e1)" style="fill: none; stroke: #313131"/>
   </g>
   <g id="line2d_57">
    <path d="M 239.929008 182.101261 
L 245.168993 182.101261 
" clip-path="url(#p0cde3a43e1)" style="fill: none; stroke: #313131; stroke-linecap: round"/>
   </g>
   <g id="line2d_58">
    <path d="M 239.929008 167.446435 
L 245.168993 167.446435 
" clip-path="url(#p0cde3a43e1)" style="fill: none; stroke: #313131; stroke-linecap: round"/>
   </g>
   <g id="patch_16">
    <path d="M 208.489102 291.655018 
L 218.969071 291.655018 
L 218.969071 289.912523 
L 208.489102 289.912523 
L 208.489102 291.655018 
z
" clip-path="url(#p0cde3a43e1)" style="fill: #e0a84d; stroke: #313131; stroke-linejoin: miter"/>
   </g>
   <g id="line2d_59">
    <path d="M 213.729086 291.655018 
L 213.729086 293.620909 
" clip-path="url(#p0cde3a43e1)" style="fill: none; stroke: #313131"/>
   </g>
   <g id="line2d_60">
    <path d="M 213.729086 289.912523 
L 213.729086 289.510409 
" clip-path="url(#p0cde3a43e1)" style="fill: none; stroke: #313131"/>
   </g>
   <g id="line2d_61">
    <path d="M 211.109094 293.620909 
L 216.349079 293.620909 
" clip-path="url(#p0cde3a43e1)" style="fill: none; stroke: #313131; stroke-linecap: round"/>
   </g>
   <g id="line2d_62">
    <path d="M 211.109094 289.510409 
L 216.349079 289.510409 
" clip-path="url(#p0cde3a43e1)" style="fill: none; stroke: #313131; stroke-linecap: round"/>
   </g>
   <g id="patch_17">
    <path d="M 247.788985 287.142404 
L 258.268954 287.142404 
L 258.268954 286.159458 
L 247.788985 286.159458 
L 247.788985 287.142404 
z
" clip-path="url(#p0cde3a43e1)" style="fill: #e0a84d; stroke: #313131; stroke-linejoin: miter"/>
   </g>
   <g id="line2d_63">
    <path d="M 253.028969 287.142404 
L 253.028969 288.08067 
" clip-path="url(#p0cde3a43e1)" style="fill: none; stroke: #313131"/>
   </g>
   <g id="line2d_64">
    <path d="M 253.028969 286.159458 
L 253.028969 285.757344 
" clip-path="url(#p0cde3a43e1)" style="fill: none; stroke: #313131"/>
   </g>
   <g id="line2d_65">
    <path d="M 250.408977 288.08067 
L 255.648961 288.08067 
" clip-path="url(#p0cde3a43e1)" style="fill: none; stroke: #313131; stroke-linecap: round"/>
   </g>
   <g id="line2d_66">
    <path d="M 250.408977 285.757344 
L 255.648961 285.757344 
" clip-path="url(#p0cde3a43e1)" style="fill: none; stroke: #313131; stroke-linecap: round"/>
   </g>
   <g id="line2d_67">
    <path d="M 187.529165 288.706181 
L 198.009133 288.706181 
" clip-path="url(#p0cde3a43e1)" style="fill: none; stroke: #313131"/>
   </g>
   <g id="line2d_68">
    <path d="M 226.829047 64.773297 
L 237.309016 64.773297 
" clip-path="url(#p0cde3a43e1)" style="fill: none; stroke: #313131"/>
   </g>
   <g id="line2d_69">
    <path d="M 198.009133 289.599768 
L 208.489102 289.599768 
" clip-path="url(#p0cde3a43e1)" style="fill: none; stroke: #313131"/>
   </g>
   <g id="line2d_70">
    <path d="M 237.309016 174.237696 
L 247.788985 174.237696 
" clip-path="url(#p0cde3a43e1)" style="fill: none; stroke: #313131"/>
   </g>
   <g id="line2d_71">
    <path d="M 208.489102 290.225279 
L 218.969071 290.225279 
" clip-path="url(#p0cde3a43e1)" style="fill: none; stroke: #313131"/>
   </g>
   <g id="line2d_72">
    <path d="M 247.788985 286.561572 
L 258.268954 286.561572 
" clip-path="url(#p0cde3a43e1)" style="fill: none; stroke: #313131"/>
   </g>
   <g id="patch_18">
    <path d="M 183.599176 305.452 
L 262.198942 305.452 
" style="fill: none; stroke: #262626; stroke-width: 1.875; stroke-linejoin: miter; stroke-linecap: square"/>
   </g>
   <g id="text_13">
    <!-- new -->
    <g style="fill: #262626" transform="translate(201.896434 39.168) scale(0.216 -0.216)">
     <defs>
      <path id="Arial-BoldMT-6e" d="M 3478 0 
L 2600 0 
L 2600 1694 
Q 2600 2231 2544 2389 
Q 2488 2547 2361 2634 
Q 2234 2722 2056 2722 
Q 1828 2722 1647 2597 
Q 1466 2472 1398 2265 
Q 1331 2059 1331 1503 
L 1331 0 
L 453 0 
L 453 3319 
L 1269 3319 
L 1269 2831 
Q 1703 3394 2363 3394 
Q 2653 3394 2893 3289 
Q 3134 3184 3257 3021 
Q 3381 2859 3429 2653 
Q 3478 2447 3478 2063 
L 3478 0 
z
" transform="scale(0.015625)"/>
      <path id="Arial-BoldMT-77" d="M 1078 0 
L 28 3319 
L 881 3319 
L 1503 1144 
L 2075 3319 
L 2922 3319 
L 3475 1144 
L 4109 3319 
L 4975 3319 
L 3909 0 
L 3066 0 
L 2494 2134 
L 1931 0 
L 1078 0 
z
" transform="scale(0.015625)"/>
     </defs>
     <use xlink:href="#Arial-BoldMT-6e"/>
     <use xlink:href="#Arial-BoldMT-65" x="61.083984"/>
     <use xlink:href="#Arial-BoldMT-77" x="116.699219"/>
    </g>
   </g>
  </g>
  <g id="axes_3">
   <g id="patch_19">
    <path d="M 268.600353 305.452 
L 347.200118 305.452 
L 347.200118 45.168 
L 268.600353 45.168 
z
" style="fill: #ffffff"/>
   </g>
   <g id="matplotlib.axis_5">
    <g id="xtick_5">
     <g id="text_14">
      <!-- 4.0 -->
      <g style="fill: #262626" transform="translate(274.489294 332.124469) scale(0.198 -0.198)">
       <use xlink:href="#ArialMT-34"/>
       <use xlink:href="#ArialMT-2e" x="55.615234"/>
       <use xlink:href="#ArialMT-30" x="83.398438"/>
      </g>
     </g>
    </g>
    <g id="xtick_6">
     <g id="text_15">
      <!-- 7.4 -->
      <g style="fill: #262626" transform="translate(313.789177 332.124469) scale(0.198 -0.198)">
       <use xlink:href="#ArialMT-37"/>
       <use xlink:href="#ArialMT-2e" x="55.615234"/>
       <use xlink:href="#ArialMT-34" x="83.398438"/>
      </g>
     </g>
    </g>
   </g>
   <g id="matplotlib.axis_6">
    <g id="ytick_13">
     <g id="line2d_73">
      <path d="M 268.600353 289.152974 
L 347.200118 289.152974 
" clip-path="url(#pc5d66f2b09)" style="fill: none; stroke: #d3d3d3; stroke-width: 2; stroke-linecap: round"/>
     </g>
    </g>
    <g id="ytick_14">
     <g id="line2d_74">
      <path d="M 268.600353 244.473628 
L 347.200118 244.473628 
" clip-path="url(#pc5d66f2b09)" style="fill: none; stroke: #d3d3d3; stroke-width: 2; stroke-linecap: round"/>
     </g>
    </g>
    <g id="ytick_15">
     <g id="line2d_75">
      <path d="M 268.600353 199.794282 
L 347.200118 199.794282 
" clip-path="url(#pc5d66f2b09)" style="fill: none; stroke: #d3d3d3; stroke-width: 2; stroke-linecap: round"/>
     </g>
    </g>
    <g id="ytick_16">
     <g id="line2d_76">
      <path d="M 268.600353 155.114935 
L 347.200118 155.114935 
" clip-path="url(#pc5d66f2b09)" style="fill: none; stroke: #d3d3d3; stroke-width: 2; stroke-linecap: round"/>
     </g>
    </g>
    <g id="ytick_17">
     <g id="line2d_77">
      <path d="M 268.600353 110.435589 
L 347.200118 110.435589 
" clip-path="url(#pc5d66f2b09)" style="fill: none; stroke: #d3d3d3; stroke-width: 2; stroke-linecap: round"/>
     </g>
    </g>
    <g id="ytick_18">
     <g id="line2d_78">
      <path d="M 268.600353 65.756243 
L 347.200118 65.756243 
" clip-path="url(#pc5d66f2b09)" style="fill: none; stroke: #d3d3d3; stroke-width: 2; stroke-linecap: round"/>
     </g>
    </g>
   </g>
   <g id="patch_20">
    <path d="M 272.530341 289.510409 
L 283.01031 289.510409 
L 283.01031 289.46573 
L 272.530341 289.46573 
L 272.530341 289.510409 
z
" clip-path="url(#pc5d66f2b09)" style="fill: #5d9ba3; stroke: #313131; stroke-linejoin: miter"/>
   </g>
   <g id="line2d_79">
    <path d="M 277.770325 289.510409 
L 277.770325 289.510409 
" clip-path="url(#pc5d66f2b09)" style="fill: none; stroke: #313131"/>
   </g>
   <g id="line2d_80">
    <path d="M 277.770325 289.46573 
L 277.770325 289.46573 
" clip-path="url(#pc5d66f2b09)" style="fill: none; stroke: #313131"/>
   </g>
   <g id="line2d_81">
    <path d="M 275.150333 289.510409 
L 280.390318 289.510409 
" clip-path="url(#pc5d66f2b09)" style="fill: none; stroke: #313131; stroke-linecap: round"/>
   </g>
   <g id="line2d_82">
    <path d="M 275.150333 289.46573 
L 280.390318 289.46573 
" clip-path="url(#pc5d66f2b09)" style="fill: none; stroke: #313131; stroke-linecap: round"/>
   </g>
   <g id="patch_21">
    <path d="M 311.830224 74.558074 
L 322.310192 74.558074 
L 322.310192 67.945531 
L 311.830224 67.945531 
L 311.830224 74.558074 
z
" clip-path="url(#pc5d66f2b09)" style="fill: #5d9ba3; stroke: #313131; stroke-linejoin: miter"/>
   </g>
   <g id="line2d_83">
    <path d="M 317.070208 74.558074 
L 317.070208 76.300569 
" clip-path="url(#pc5d66f2b09)" style="fill: none; stroke: #313131"/>
   </g>
   <g id="line2d_84">
    <path d="M 317.070208 67.945531 
L 317.070208 66.471112 
" clip-path="url(#pc5d66f2b09)" style="fill: none; stroke: #313131"/>
   </g>
   <g id="line2d_85">
    <path d="M 314.450216 76.300569 
L 319.6902 76.300569 
" clip-path="url(#pc5d66f2b09)" style="fill: none; stroke: #313131; stroke-linecap: round"/>
   </g>
   <g id="line2d_86">
    <path d="M 314.450216 66.471112 
L 319.6902 66.471112 
" clip-path="url(#pc5d66f2b09)" style="fill: none; stroke: #313131; stroke-linecap: round"/>
   </g>
   <g id="patch_22">
    <path d="M 283.01031 289.331692 
L 293.490278 289.331692 
L 293.490278 289.152974 
L 283.01031 289.152974 
L 283.01031 289.331692 
z
" clip-path="url(#pc5d66f2b09)" style="fill: #693072; stroke: #313131; stroke-linejoin: miter"/>
   </g>
   <g id="line2d_87">
    <path d="M 288.250294 289.331692 
L 288.250294 289.510409 
" clip-path="url(#pc5d66f2b09)" style="fill: none; stroke: #313131"/>
   </g>
   <g id="line2d_88">
    <path d="M 288.250294 289.152974 
L 288.250294 289.152974 
" clip-path="url(#pc5d66f2b09)" style="fill: none; stroke: #313131"/>
   </g>
   <g id="line2d_89">
    <path d="M 285.630302 289.510409 
L 290.870286 289.510409 
" clip-path="url(#pc5d66f2b09)" style="fill: none; stroke: #313131; stroke-linecap: round"/>
   </g>
   <g id="line2d_90">
    <path d="M 285.630302 289.152974 
L 290.870286 289.152974 
" clip-path="url(#pc5d66f2b09)" style="fill: none; stroke: #313131; stroke-linecap: round"/>
   </g>
   <g id="patch_23">
    <path d="M 322.310192 289.152974 
L 332.790161 289.152974 
L 332.790161 289.108295 
L 322.310192 289.108295 
L 322.310192 289.152974 
z
" clip-path="url(#pc5d66f2b09)" style="fill: #693072; stroke: #313131; stroke-linejoin: miter"/>
   </g>
   <g id="line2d_91">
    <path d="M 327.550177 289.152974 
L 327.550177 289.152974 
" clip-path="url(#pc5d66f2b09)" style="fill: none; stroke: #313131"/>
   </g>
   <g id="line2d_92">
    <path d="M 327.550177 289.108295 
L 327.550177 289.108295 
" clip-path="url(#pc5d66f2b09)" style="fill: none; stroke: #313131"/>
   </g>
   <g id="line2d_93">
    <path d="M 324.930185 289.152974 
L 330.170169 289.152974 
" clip-path="url(#pc5d66f2b09)" style="fill: none; stroke: #313131; stroke-linecap: round"/>
   </g>
   <g id="line2d_94">
    <path d="M 324.930185 289.108295 
L 330.170169 289.108295 
" clip-path="url(#pc5d66f2b09)" style="fill: none; stroke: #313131; stroke-linecap: round"/>
   </g>
   <g id="patch_24">
    <path d="M 293.490278 288.974257 
L 303.970247 288.974257 
L 303.970247 288.79554 
L 293.490278 288.79554 
L 293.490278 288.974257 
z
" clip-path="url(#pc5d66f2b09)" style="fill: #e0a84d; stroke: #313131; stroke-linejoin: miter"/>
   </g>
   <g id="line2d_95">
    <path d="M 298.730263 288.974257 
L 298.730263 289.152974 
" clip-path="url(#pc5d66f2b09)" style="fill: none; stroke: #313131"/>
   </g>
   <g id="line2d_96">
    <path d="M 298.730263 288.79554 
L 298.730263 288.79554 
" clip-path="url(#pc5d66f2b09)" style="fill: none; stroke: #313131"/>
   </g>
   <g id="line2d_97">
    <path d="M 296.110271 289.152974 
L 301.350255 289.152974 
" clip-path="url(#pc5d66f2b09)" style="fill: none; stroke: #313131; stroke-linecap: round"/>
   </g>
   <g id="line2d_98">
    <path d="M 296.110271 288.79554 
L 301.350255 288.79554 
" clip-path="url(#pc5d66f2b09)" style="fill: none; stroke: #313131; stroke-linecap: round"/>
   </g>
   <g id="patch_25">
    <path d="M 332.790161 288.527464 
L 343.27013 288.527464 
L 343.27013 288.438105 
L 332.790161 288.438105 
L 332.790161 288.527464 
z
" clip-path="url(#pc5d66f2b09)" style="fill: #e0a84d; stroke: #313131; stroke-linejoin: miter"/>
   </g>
   <g id="line2d_99">
    <path d="M 338.030146 288.527464 
L 338.030146 288.527464 
" clip-path="url(#pc5d66f2b09)" style="fill: none; stroke: #313131"/>
   </g>
   <g id="line2d_100">
    <path d="M 338.030146 288.438105 
L 338.030146 288.438105 
" clip-path="url(#pc5d66f2b09)" style="fill: none; stroke: #313131"/>
   </g>
   <g id="line2d_101">
    <path d="M 335.410153 288.527464 
L 340.650138 288.527464 
" clip-path="url(#pc5d66f2b09)" style="fill: none; stroke: #313131; stroke-linecap: round"/>
   </g>
   <g id="line2d_102">
    <path d="M 335.410153 288.438105 
L 340.650138 288.438105 
" clip-path="url(#pc5d66f2b09)" style="fill: none; stroke: #313131; stroke-linecap: round"/>
   </g>
   <g id="line2d_103">
    <path d="M 272.530341 289.510409 
L 283.01031 289.510409 
" clip-path="url(#pc5d66f2b09)" style="fill: none; stroke: #313131"/>
   </g>
   <g id="line2d_104">
    <path d="M 311.830224 71.207123 
L 322.310192 71.207123 
" clip-path="url(#pc5d66f2b09)" style="fill: none; stroke: #313131"/>
   </g>
   <g id="line2d_105">
    <path d="M 283.01031 289.242333 
L 293.490278 289.242333 
" clip-path="url(#pc5d66f2b09)" style="fill: none; stroke: #313131"/>
   </g>
   <g id="line2d_106">
    <path d="M 322.310192 289.152974 
L 332.790161 289.152974 
" clip-path="url(#pc5d66f2b09)" style="fill: none; stroke: #313131"/>
   </g>
   <g id="line2d_107">
    <path d="M 293.490278 288.974257 
L 303.970247 288.974257 
" clip-path="url(#pc5d66f2b09)" style="fill: none; stroke: #313131"/>
   </g>
   <g id="line2d_108">
    <path d="M 332.790161 288.438105 
L 343.27013 288.438105 
" clip-path="url(#pc5d66f2b09)" style="fill: none; stroke: #313131"/>
   </g>
   <g id="patch_26">
    <path d="M 268.600353 305.452 
L 347.200118 305.452 
" style="fill: none; stroke: #262626; stroke-width: 1.875; stroke-linejoin: miter; stroke-linecap: square"/>
   </g>
   <g id="text_16">
    <!-- none -->
    <g style="fill: #262626" transform="translate(282.10511 39.168) scale(0.216 -0.216)">
     <defs>
      <path id="Arial-BoldMT-6f" d="M 256 1706 
Q 256 2144 472 2553 
Q 688 2963 1083 3178 
Q 1478 3394 1966 3394 
Q 2719 3394 3200 2905 
Q 3681 2416 3681 1669 
Q 3681 916 3195 420 
Q 2709 -75 1972 -75 
Q 1516 -75 1102 131 
Q 688 338 472 736 
Q 256 1134 256 1706 
z
M 1156 1659 
Q 1156 1166 1390 903 
Q 1625 641 1969 641 
Q 2313 641 2545 903 
Q 2778 1166 2778 1666 
Q 2778 2153 2545 2415 
Q 2313 2678 1969 2678 
Q 1625 2678 1390 2415 
Q 1156 2153 1156 1659 
z
" transform="scale(0.015625)"/>
     </defs>
     <use xlink:href="#Arial-BoldMT-6e"/>
     <use xlink:href="#Arial-BoldMT-6f" x="61.083984"/>
     <use xlink:href="#Arial-BoldMT-6e" x="122.167969"/>
     <use xlink:href="#Arial-BoldMT-65" x="183.251953"/>
    </g>
   </g>
  </g>
  <g id="axes_4">
   <g id="patch_27">
    <path d="M 353.601529 305.452 
L 432.201295 305.452 
L 432.201295 45.168 
L 353.601529 45.168 
z
" style="fill: #ffffff"/>
   </g>
   <g id="matplotlib.axis_7">
    <g id="xtick_7">
     <g id="text_17">
      <!-- 4.0 -->
      <g style="fill: #262626" transform="translate(359.49047 332.124469) scale(0.198 -0.198)">
       <use xlink:href="#ArialMT-34"/>
       <use xlink:href="#ArialMT-2e" x="55.615234"/>
       <use xlink:href="#ArialMT-30" x="83.398438"/>
      </g>
     </g>
    </g>
    <g id="xtick_8">
     <g id="text_18">
      <!-- 7.4 -->
      <g style="fill: #262626" transform="translate(398.790353 332.124469) scale(0.198 -0.198)">
       <use xlink:href="#ArialMT-37"/>
       <use xlink:href="#ArialMT-2e" x="55.615234"/>
       <use xlink:href="#ArialMT-34" x="83.398438"/>
      </g>
     </g>
    </g>
   </g>
   <g id="matplotlib.axis_8">
    <g id="ytick_19">
     <g id="line2d_109">
      <path d="M 353.601529 289.152974 
L 432.201295 289.152974 
" clip-path="url(#p1d694f6826)" style="fill: none; stroke: #d3d3d3; stroke-width: 2; stroke-linecap: round"/>
     </g>
    </g>
    <g id="ytick_20">
     <g id="line2d_110">
      <path d="M 353.601529 244.473628 
L 432.201295 244.473628 
" clip-path="url(#p1d694f6826)" style="fill: none; stroke: #d3d3d3; stroke-width: 2; stroke-linecap: round"/>
     </g>
    </g>
    <g id="ytick_21">
     <g id="line2d_111">
      <path d="M 353.601529 199.794282 
L 432.201295 199.794282 
" clip-path="url(#p1d694f6826)" style="fill: none; stroke: #d3d3d3; stroke-width: 2; stroke-linecap: round"/>
     </g>
    </g>
    <g id="ytick_22">
     <g id="line2d_112">
      <path d="M 353.601529 155.114935 
L 432.201295 155.114935 
" clip-path="url(#p1d694f6826)" style="fill: none; stroke: #d3d3d3; stroke-width: 2; stroke-linecap: round"/>
     </g>
    </g>
    <g id="ytick_23">
     <g id="line2d_113">
      <path d="M 353.601529 110.435589 
L 432.201295 110.435589 
" clip-path="url(#p1d694f6826)" style="fill: none; stroke: #d3d3d3; stroke-width: 2; stroke-linecap: round"/>
     </g>
    </g>
    <g id="ytick_24">
     <g id="line2d_114">
      <path d="M 353.601529 65.756243 
L 432.201295 65.756243 
" clip-path="url(#p1d694f6826)" style="fill: none; stroke: #d3d3d3; stroke-width: 2; stroke-linecap: round"/>
     </g>
    </g>
   </g>
   <g id="patch_28">
    <path d="M 373.25147 289.152974 
L 373.25147 289.152974 
L 373.25147 289.152974 
L 373.25147 289.152974 
z
" clip-path="url(#p1d694f6826)" style="fill: #5d9ba3; stroke: #313131; stroke-width: 1.5; stroke-linejoin: miter"/>
   </g>
   <g id="patch_29">
    <path d="M 373.25147 289.152974 
L 373.25147 289.152974 
L 373.25147 289.152974 
L 373.25147 289.152974 
z
" clip-path="url(#p1d694f6826)" style="fill: #693072; stroke: #313131; stroke-width: 1.5; stroke-linejoin: miter"/>
   </g>
   <g id="patch_30">
    <path d="M 373.25147 289.152974 
L 373.25147 289.152974 
L 373.25147 289.152974 
L 373.25147 289.152974 
z
" clip-path="url(#p1d694f6826)" style="fill: #e0a84d; stroke: #313131; stroke-width: 1.5; stroke-linejoin: miter"/>
   </g>
   <g id="patch_31">
    <path d="M 357.531517 289.733806 
L 368.011486 289.733806 
L 368.011486 288.035991 
L 357.531517 288.035991 
L 357.531517 289.733806 
z
" clip-path="url(#p1d694f6826)" style="fill: #5d9ba3; stroke: #313131; stroke-linejoin: miter"/>
   </g>
   <g id="line2d_115">
    <path d="M 362.771502 289.733806 
L 362.771502 289.867844 
" clip-path="url(#p1d694f6826)" style="fill: none; stroke: #313131"/>
   </g>
   <g id="line2d_116">
    <path d="M 362.771502 288.035991 
L 362.771502 287.187083 
" clip-path="url(#p1d694f6826)" style="fill: none; stroke: #313131"/>
   </g>
   <g id="line2d_117">
    <path d="M 360.15151 289.867844 
L 365.391494 289.867844 
" clip-path="url(#p1d694f6826)" style="fill: none; stroke: #313131; stroke-linecap: round"/>
   </g>
   <g id="line2d_118">
    <path d="M 360.15151 287.187083 
L 365.391494 287.187083 
" clip-path="url(#p1d694f6826)" style="fill: none; stroke: #313131; stroke-linecap: round"/>
   </g>
   <g id="patch_32">
    <path d="M 396.8314 70.268857 
L 407.311369 70.268857 
L 407.311369 67.141303 
L 396.8314 67.141303 
L 396.8314 70.268857 
z
" clip-path="url(#p1d694f6826)" style="fill: #5d9ba3; stroke: #313131; stroke-linejoin: miter"/>
   </g>
   <g id="line2d_119">
    <path d="M 402.071384 70.268857 
L 402.071384 70.402895 
" clip-path="url(#p1d694f6826)" style="fill: none; stroke: #313131"/>
   </g>
   <g id="line2d_120">
    <path d="M 402.071384 67.141303 
L 402.071384 67.007264 
" clip-path="url(#p1d694f6826)" style="fill: none; stroke: #313131"/>
   </g>
   <g id="line2d_121">
    <path d="M 399.451392 70.402895 
L 404.691377 70.402895 
" clip-path="url(#p1d694f6826)" style="fill: none; stroke: #313131; stroke-linecap: round"/>
   </g>
   <g id="line2d_122">
    <path d="M 399.451392 67.007264 
L 404.691377 67.007264 
" clip-path="url(#p1d694f6826)" style="fill: none; stroke: #313131; stroke-linecap: round"/>
   </g>
   <g id="patch_33">
    <path d="M 368.011486 288.259388 
L 378.491455 288.259388 
L 378.491455 286.874328 
L 368.011486 286.874328 
L 368.011486 288.259388 
z
" clip-path="url(#p1d694f6826)" style="fill: #693072; stroke: #313131; stroke-linejoin: miter"/>
   </g>
   <g id="line2d_123">
    <path d="M 373.25147 288.259388 
L 373.25147 289.331692 
" clip-path="url(#p1d694f6826)" style="fill: none; stroke: #313131"/>
   </g>
   <g id="line2d_124">
    <path d="M 373.25147 286.874328 
L 373.25147 286.472214 
" clip-path="url(#p1d694f6826)" style="fill: none; stroke: #313131"/>
   </g>
   <g id="line2d_125">
    <path d="M 370.631478 289.331692 
L 375.871463 289.331692 
" clip-path="url(#p1d694f6826)" style="fill: none; stroke: #313131; stroke-linecap: round"/>
   </g>
   <g id="line2d_126">
    <path d="M 370.631478 286.472214 
L 375.871463 286.472214 
" clip-path="url(#p1d694f6826)" style="fill: none; stroke: #313131; stroke-linecap: round"/>
   </g>
   <g id="patch_34">
    <path d="M 407.311369 183.575679 
L 417.791338 183.575679 
L 417.791338 182.056581 
L 407.311369 182.056581 
L 407.311369 183.575679 
z
" clip-path="url(#p1d694f6826)" style="fill: #693072; stroke: #313131; stroke-linejoin: miter"/>
   </g>
   <g id="line2d_127">
    <path d="M 412.551353 183.575679 
L 412.551353 184.245869 
" clip-path="url(#p1d694f6826)" style="fill: none; stroke: #313131"/>
   </g>
   <g id="line2d_128">
    <path d="M 412.551353 182.056581 
L 412.551353 182.056581 
" clip-path="url(#p1d694f6826)" style="fill: none; stroke: #313131"/>
   </g>
   <g id="line2d_129">
    <path d="M 409.931361 184.245869 
L 415.171345 184.245869 
" clip-path="url(#p1d694f6826)" style="fill: none; stroke: #313131; stroke-linecap: round"/>
   </g>
   <g id="line2d_130">
    <path d="M 409.931361 182.056581 
L 415.171345 182.056581 
" clip-path="url(#p1d694f6826)" style="fill: none; stroke: #313131; stroke-linecap: round"/>
   </g>
   <g id="patch_35">
    <path d="M 378.491455 291.208224 
L 388.971424 291.208224 
L 388.971424 289.644447 
L 378.491455 289.644447 
L 378.491455 291.208224 
z
" clip-path="url(#p1d694f6826)" style="fill: #e0a84d; stroke: #313131; stroke-linejoin: miter"/>
   </g>
   <g id="line2d_131">
    <path d="M 383.731439 291.208224 
L 383.731439 292.548605 
" clip-path="url(#p1d694f6826)" style="fill: none; stroke: #313131"/>
   </g>
   <g id="line2d_132">
    <path d="M 383.731439 289.644447 
L 383.731439 287.723235 
" clip-path="url(#p1d694f6826)" style="fill: none; stroke: #313131"/>
   </g>
   <g id="line2d_133">
    <path d="M 381.111447 292.548605 
L 386.351431 292.548605 
" clip-path="url(#p1d694f6826)" style="fill: none; stroke: #313131; stroke-linecap: round"/>
   </g>
   <g id="line2d_134">
    <path d="M 381.111447 287.723235 
L 386.351431 287.723235 
" clip-path="url(#p1d694f6826)" style="fill: none; stroke: #313131; stroke-linecap: round"/>
   </g>
   <g id="patch_36">
    <path d="M 417.791338 287.678556 
L 428.271306 287.678556 
L 428.271306 285.712665 
L 417.791338 285.712665 
L 417.791338 287.678556 
z
" clip-path="url(#p1d694f6826)" style="fill: #e0a84d; stroke: #313131; stroke-linejoin: miter"/>
   </g>
   <g id="line2d_135">
    <path d="M 423.031322 287.678556 
L 423.031322 289.152974 
" clip-path="url(#p1d694f6826)" style="fill: none; stroke: #313131"/>
   </g>
   <g id="line2d_136">
    <path d="M 423.031322 285.712665 
L 423.031322 285.578627 
" clip-path="url(#p1d694f6826)" style="fill: none; stroke: #313131"/>
   </g>
   <g id="line2d_137">
    <path d="M 420.41133 289.152974 
L 425.651314 289.152974 
" clip-path="url(#p1d694f6826)" style="fill: none; stroke: #313131; stroke-linecap: round"/>
   </g>
   <g id="line2d_138">
    <path d="M 420.41133 285.578627 
L 425.651314 285.578627 
" clip-path="url(#p1d694f6826)" style="fill: none; stroke: #313131; stroke-linecap: round"/>
   </g>
   <g id="line2d_139">
    <path d="M 357.531517 289.242333 
L 368.011486 289.242333 
" clip-path="url(#p1d694f6826)" style="fill: none; stroke: #313131"/>
   </g>
   <g id="line2d_140">
    <path d="M 396.8314 68.70508 
L 407.311369 68.70508 
" clip-path="url(#p1d694f6826)" style="fill: none; stroke: #313131"/>
   </g>
   <g id="line2d_141">
    <path d="M 368.011486 288.08067 
L 378.491455 288.08067 
" clip-path="url(#p1d694f6826)" style="fill: none; stroke: #313131"/>
   </g>
   <g id="line2d_142">
    <path d="M 407.311369 183.173565 
L 417.791338 183.173565 
" clip-path="url(#p1d694f6826)" style="fill: none; stroke: #313131"/>
   </g>
   <g id="line2d_143">
    <path d="M 378.491455 290.403996 
L 388.971424 290.403996 
" clip-path="url(#p1d694f6826)" style="fill: none; stroke: #313131"/>
   </g>
   <g id="line2d_144">
    <path d="M 417.791338 286.472214 
L 428.271306 286.472214 
" clip-path="url(#p1d694f6826)" style="fill: none; stroke: #313131"/>
   </g>
   <g id="patch_37">
    <path d="M 353.601529 305.452 
L 432.201295 305.452 
" style="fill: none; stroke: #262626; stroke-width: 1.875; stroke-linejoin: miter; stroke-linecap: square"/>
   </g>
   <g id="text_19">
    <!-- old -->
    <g style="fill: #262626" transform="translate(376.708162 39.168) scale(0.216 -0.216)">
     <defs>
      <path id="Arial-BoldMT-64" d="M 3503 0 
L 2688 0 
L 2688 488 
Q 2484 203 2207 64 
Q 1931 -75 1650 -75 
Q 1078 -75 670 386 
Q 263 847 263 1672 
Q 263 2516 659 2955 
Q 1056 3394 1663 3394 
Q 2219 3394 2625 2931 
L 2625 4581 
L 3503 4581 
L 3503 0 
z
M 1159 1731 
Q 1159 1200 1306 963 
Q 1519 619 1900 619 
Q 2203 619 2415 876 
Q 2628 1134 2628 1647 
Q 2628 2219 2422 2470 
Q 2216 2722 1894 2722 
Q 1581 2722 1370 2473 
Q 1159 2225 1159 1731 
z
" transform="scale(0.015625)"/>
     </defs>
     <use xlink:href="#Arial-BoldMT-6f"/>
     <use xlink:href="#Arial-BoldMT-6c" x="61.083984"/>
     <use xlink:href="#Arial-BoldMT-64" x="88.867188"/>
    </g>
   </g>
  </g>
  <g id="legend_1">
   <g id="text_20">
    <!-- enzyme -->
    <g style="fill: #262626" transform="translate(292.806 161.445797) scale(0.216 -0.216)">
     <defs>
      <path id="ArialMT-65" d="M 2694 1069 
L 3275 997 
Q 3138 488 2766 206 
Q 2394 -75 1816 -75 
Q 1088 -75 661 373 
Q 234 822 234 1631 
Q 234 2469 665 2931 
Q 1097 3394 1784 3394 
Q 2450 3394 2872 2941 
Q 3294 2488 3294 1666 
Q 3294 1616 3291 1516 
L 816 1516 
Q 847 969 1125 678 
Q 1403 388 1819 388 
Q 2128 388 2347 550 
Q 2566 713 2694 1069 
z
M 847 1978 
L 2700 1978 
Q 2663 2397 2488 2606 
Q 2219 2931 1791 2931 
Q 1403 2931 1139 2672 
Q 875 2413 847 1978 
z
" transform="scale(0.015625)"/>
      <path id="ArialMT-7a" d="M 125 0 
L 125 456 
L 2238 2881 
Q 1878 2863 1603 2863 
L 250 2863 
L 250 3319 
L 2963 3319 
L 2963 2947 
L 1166 841 
L 819 456 
Q 1197 484 1528 484 
L 3063 484 
L 3063 0 
L 125 0 
z
" transform="scale(0.015625)"/>
      <path id="ArialMT-79" d="M 397 -1278 
L 334 -750 
Q 519 -800 656 -800 
Q 844 -800 956 -737 
Q 1069 -675 1141 -563 
Q 1194 -478 1313 -144 
Q 1328 -97 1363 -6 
L 103 3319 
L 709 3319 
L 1400 1397 
Q 1534 1031 1641 628 
Q 1738 1016 1872 1384 
L 2581 3319 
L 3144 3319 
L 1881 -56 
Q 1678 -603 1566 -809 
Q 1416 -1088 1222 -1217 
Q 1028 -1347 759 -1347 
Q 597 -1347 397 -1278 
z
" transform="scale(0.015625)"/>
      <path id="ArialMT-6d" d="M 422 0 
L 422 3319 
L 925 3319 
L 925 2853 
Q 1081 3097 1340 3245 
Q 1600 3394 1931 3394 
Q 2300 3394 2536 3241 
Q 2772 3088 2869 2813 
Q 3263 3394 3894 3394 
Q 4388 3394 4653 3120 
Q 4919 2847 4919 2278 
L 4919 0 
L 4359 0 
L 4359 2091 
Q 4359 2428 4304 2576 
Q 4250 2725 4106 2815 
Q 3963 2906 3769 2906 
Q 3419 2906 3187 2673 
Q 2956 2441 2956 1928 
L 2956 0 
L 2394 0 
L 2394 2156 
Q 2394 2531 2256 2718 
Q 2119 2906 1806 2906 
Q 1569 2906 1367 2781 
Q 1166 2656 1075 2415 
Q 984 2175 984 1722 
L 984 0 
L 422 0 
z
" transform="scale(0.015625)"/>
     </defs>
     <use xlink:href="#ArialMT-65"/>
     <use xlink:href="#ArialMT-6e" x="55.615234"/>
     <use xlink:href="#ArialMT-7a" x="111.230469"/>
     <use xlink:href="#ArialMT-79" x="161.230469"/>
     <use xlink:href="#ArialMT-6d" x="211.230469"/>
     <use xlink:href="#ArialMT-65" x="294.53125"/>
    </g>
   </g>
   <g id="patch_38">
    <path d="M 289.1385 190.064391 
L 328.7385 190.064391 
L 328.7385 176.204391 
L 289.1385 176.204391 
z
" style="fill: #5d9ba3; stroke: #313131; stroke-width: 1.5; stroke-linejoin: miter"/>
   </g>
   <g id="text_21">
    <!-- 0.0 -->
    <g style="fill: #262626" transform="translate(344.5785 190.064391) scale(0.198 -0.198)">
     <use xlink:href="#ArialMT-30"/>
     <use xlink:href="#ArialMT-2e" x="55.615234"/>
     <use xlink:href="#ArialMT-30" x="83.398438"/>
    </g>
   </g>
   <g id="patch_39">
    <path d="M 289.1385 218.072109 
L 328.7385 218.072109 
L 328.7385 204.212109 
L 289.1385 204.212109 
z
" style="fill: #693072; stroke: #313131; stroke-width: 1.5; stroke-linejoin: miter"/>
   </g>
   <g id="text_22">
    <!-- 0.1 -->
    <g style="fill: #262626" transform="translate(344.5785 218.072109) scale(0.198 -0.198)">
     <use xlink:href="#ArialMT-30"/>
     <use xlink:href="#ArialMT-2e" x="55.615234"/>
     <use xlink:href="#ArialMT-31" x="83.398438"/>
    </g>
   </g>
   <g id="patch_40">
    <path d="M 289.1385 246.079828 
L 328.7385 246.079828 
L 328.7385 232.219828 
L 289.1385 232.219828 
z
" style="fill: #e0a84d; stroke: #313131; stroke-width: 1.5; stroke-linejoin: miter"/>
   </g>
   <g id="text_23">
    <!-- 1.0 -->
    <g style="fill: #262626" transform="translate(344.5785 246.079828) scale(0.198 -0.198)">
     <use xlink:href="#ArialMT-31"/>
     <use xlink:href="#ArialMT-2e" x="55.615234"/>
     <use xlink:href="#ArialMT-30" x="83.398438"/>
    </g>
   </g>
  </g>
 </g>
 <defs>
  <clipPath id="pf8de0f469c">
   <rect x="98.598" y="45.168" width="78.599766" height="260.284"/>
  </clipPath>
  <clipPath id="p0cde3a43e1">
   <rect x="183.599176" y="45.168" width="78.599766" height="260.284"/>
  </clipPath>
  <clipPath id="pc5d66f2b09">
   <rect x="268.600353" y="45.168" width="78.599766" height="260.284"/>
  </clipPath>
  <clipPath id="p1d694f6826">
   <rect x="353.601529" y="45.168" width="78.599766" height="260.284"/>
  </clipPath>
 </defs>
</svg>
