<?xml version="1.0" encoding="utf-8" standalone="no"?>
<!DOCTYPE svg PUBLIC "-//W3C//DTD SVG 1.1//EN"
  "http://www.w3.org/Graphics/SVG/1.1/DTD/svg11.dtd">
<svg xmlns:xlink="http://www.w3.org/1999/xlink" width="458.73pt" height="360pt" viewBox="0 0 458.73 360" xmlns="http://www.w3.org/2000/svg" version="1.1">
 <metadata>
  <rdf:RDF xmlns:dc="http://purl.org/dc/elements/1.1/" xmlns:cc="http://creativecommons.org/ns#" xmlns:rdf="http://www.w3.org/1999/02/22-rdf-syntax-ns#">
   <cc:Work>
    <dc:type rdf:resource="http://purl.org/dc/dcmitype/StillImage"/>
    <dc:date>2024-12-02T13:28:23.893269</dc:date>
    <dc:format>image/svg+xml</dc:format>
    <dc:creator>
     <cc:Agent>
      <dc:title>Matplotlib v3.9.0, https://matplotlib.org/</dc:title>
     </cc:Agent>
    </dc:creator>
   </cc:Work>
  </rdf:RDF>
 </metadata>
 <defs>
  <style type="text/css">*{stroke-linejoin: round; stroke-linecap: butt}</style>
 </defs>
 <g id="figure_1">
  <g id="patch_1">
   <path d="M 0 360 
L 458.73 360 
L 458.73 0 
L 0 0 
L 0 360 
z
" style="fill: none"/>
  </g>
  <g id="axes_1">
   <g id="patch_2">
    <path d="M 82.038 305.452 
L 193.763828 305.452 
L 193.763828 45.168 
L 82.038 45.168 
z
" style="fill: #ffffff"/>
   </g>
   <g id="matplotlib.axis_1">
    <g id="xtick_1">
     <g id="text_1">
      <!-- 4.0 -->
      <g style="fill: #262626" transform="translate(96.208457 332.124469) scale(0.198 -0.198)">
       <defs>
        <path id="ArialMT-34" d="M 2069 0 
L 2069 1097 
L 81 1097 
L 81 1613 
L 2172 4581 
L 2631 4581 
L 2631 1613 
L 3250 1613 
L 3250 1097 
L 2631 1097 
L 2631 0 
L 2069 0 
z
M 2069 1613 
L 2069 3678 
L 634 1613 
L 2069 1613 
z
" transform="scale(0.015625)"/>
        <path id="ArialMT-2e" d="M 581 0 
L 581 641 
L 1222 641 
L 1222 0 
L 581 0 
z
" transform="scale(0.015625)"/>
        <path id="ArialMT-30" d="M 266 2259 
Q 266 3072 433 3567 
Q 600 4063 929 4331 
Q 1259 4600 1759 4600 
Q 2128 4600 2406 4451 
Q 2684 4303 2865 4023 
Q 3047 3744 3150 3342 
Q 3253 2941 3253 2259 
Q 3253 1453 3087 958 
Q 2922 463 2592 192 
Q 2263 -78 1759 -78 
Q 1097 -78 719 397 
Q 266 969 266 2259 
z
M 844 2259 
Q 844 1131 1108 757 
Q 1372 384 1759 384 
Q 2147 384 2411 759 
Q 2675 1134 2675 2259 
Q 2675 3391 2411 3762 
Q 2147 4134 1753 4134 
Q 1366 4134 1134 3806 
Q 844 3388 844 2259 
z
" transform="scale(0.015625)"/>
       </defs>
       <use xlink:href="#ArialMT-34"/>
       <use xlink:href="#ArialMT-2e" x="55.615234"/>
       <use xlink:href="#ArialMT-30" x="83.398438"/>
      </g>
     </g>
    </g>
    <g id="xtick_2">
     <g id="text_2">
      <!-- 7.4 -->
      <g style="fill: #262626" transform="translate(152.071371 332.124469) scale(0.198 -0.198)">
       <defs>
        <path id="ArialMT-37" d="M 303 3981 
L 303 4522 
L 3269 4522 
L 3269 4084 
Q 2831 3619 2401 2847 
Q 1972 2075 1738 1259 
Q 1569 684 1522 0 
L 944 0 
Q 953 541 1156 1306 
Q 1359 2072 1739 2783 
Q 2119 3494 2547 3981 
L 303 3981 
z
" transform="scale(0.015625)"/>
       </defs>
       <use xlink:href="#ArialMT-37"/>
       <use xlink:href="#ArialMT-2e" x="55.615234"/>
       <use xlink:href="#ArialMT-34" x="83.398438"/>
      </g>
     </g>
    </g>
   </g>
   <g id="matplotlib.axis_2">
    <g id="ytick_1">
     <g id="line2d_1">
      <path d="M 82.038 288.869467 
L 193.763828 288.869467 
" clip-path="url(#pe442440e19)" style="fill: none; stroke: #d3d3d3; stroke-width: 2; stroke-linecap: round"/>
     </g>
     <g id="text_3">
      <!-- 5 -->
      <g style="fill: #262626" transform="translate(58.527344 295.955701) scale(0.198 -0.198)">
       <defs>
        <path id="ArialMT-35" d="M 266 1200 
L 856 1250 
Q 922 819 1161 601 
Q 1400 384 1738 384 
Q 2144 384 2425 690 
Q 2706 997 2706 1503 
Q 2706 1984 2436 2262 
Q 2166 2541 1728 2541 
Q 1456 2541 1237 2417 
Q 1019 2294 894 2097 
L 366 2166 
L 809 4519 
L 3088 4519 
L 3088 3981 
L 1259 3981 
L 1013 2750 
Q 1425 3038 1878 3038 
Q 2478 3038 2890 2622 
Q 3303 2206 3303 1553 
Q 3303 931 2941 478 
Q 2500 -78 1738 -78 
Q 1113 -78 717 272 
Q 322 622 266 1200 
z
" transform="scale(0.015625)"/>
       </defs>
       <use xlink:href="#ArialMT-35"/>
      </g>
     </g>
    </g>
    <g id="ytick_2">
     <g id="line2d_2">
      <path d="M 82.038 241.355046 
L 193.763828 241.355046 
" clip-path="url(#pe442440e19)" style="fill: none; stroke: #d3d3d3; stroke-width: 2; stroke-linecap: round"/>
     </g>
     <g id="text_4">
      <!-- 10 -->
      <g style="fill: #262626" transform="translate(47.516688 248.44128) scale(0.198 -0.198)">
       <defs>
        <path id="ArialMT-31" d="M 2384 0 
L 1822 0 
L 1822 3584 
Q 1619 3391 1289 3197 
Q 959 3003 697 2906 
L 697 3450 
Q 1169 3672 1522 3987 
Q 1875 4303 2022 4600 
L 2384 4600 
L 2384 0 
z
" transform="scale(0.015625)"/>
       </defs>
       <use xlink:href="#ArialMT-31"/>
       <use xlink:href="#ArialMT-30" x="55.615234"/>
      </g>
     </g>
    </g>
    <g id="ytick_3">
     <g id="line2d_3">
      <path d="M 82.038 193.840624 
L 193.763828 193.840624 
" clip-path="url(#pe442440e19)" style="fill: none; stroke: #d3d3d3; stroke-width: 2; stroke-linecap: round"/>
     </g>
     <g id="text_5">
      <!-- 15 -->
      <g style="fill: #262626" transform="translate(47.516688 200.926859) scale(0.198 -0.198)">
       <use xlink:href="#ArialMT-31"/>
       <use xlink:href="#ArialMT-35" x="55.615234"/>
      </g>
     </g>
    </g>
    <g id="ytick_4">
     <g id="line2d_4">
      <path d="M 82.038 146.326203 
L 193.763828 146.326203 
" clip-path="url(#pe442440e19)" style="fill: none; stroke: #d3d3d3; stroke-width: 2; stroke-linecap: round"/>
     </g>
     <g id="text_6">
      <!-- 20 -->
      <g style="fill: #262626" transform="translate(47.516688 153.412437) scale(0.198 -0.198)">
       <defs>
        <path id="ArialMT-32" d="M 3222 541 
L 3222 0 
L 194 0 
Q 188 203 259 391 
Q 375 700 629 1000 
Q 884 1300 1366 1694 
Q 2113 2306 2375 2664 
Q 2638 3022 2638 3341 
Q 2638 3675 2398 3904 
Q 2159 4134 1775 4134 
Q 1369 4134 1125 3890 
Q 881 3647 878 3216 
L 300 3275 
Q 359 3922 746 4261 
Q 1134 4600 1788 4600 
Q 2447 4600 2831 4234 
Q 3216 3869 3216 3328 
Q 3216 3053 3103 2787 
Q 2991 2522 2730 2228 
Q 2469 1934 1863 1422 
Q 1356 997 1212 845 
Q 1069 694 975 541 
L 3222 541 
z
" transform="scale(0.015625)"/>
       </defs>
       <use xlink:href="#ArialMT-32"/>
       <use xlink:href="#ArialMT-30" x="55.615234"/>
      </g>
     </g>
    </g>
    <g id="ytick_5">
     <g id="line2d_5">
      <path d="M 82.038 98.811782 
L 193.763828 98.811782 
" clip-path="url(#pe442440e19)" style="fill: none; stroke: #d3d3d3; stroke-width: 2; stroke-linecap: round"/>
     </g>
     <g id="text_7">
      <!-- 25 -->
      <g style="fill: #262626" transform="translate(47.516688 105.898016) scale(0.198 -0.198)">
       <use xlink:href="#ArialMT-32"/>
       <use xlink:href="#ArialMT-35" x="55.615234"/>
      </g>
     </g>
    </g>
    <g id="ytick_6">
     <g id="line2d_6">
      <path d="M 82.038 51.29736 
L 193.763828 51.29736 
" clip-path="url(#pe442440e19)" style="fill: none; stroke: #d3d3d3; stroke-width: 2; stroke-linecap: round"/>
     </g>
     <g id="text_8">
      <!-- 30 -->
      <g style="fill: #262626" transform="translate(47.516688 58.383595) scale(0.198 -0.198)">
       <defs>
        <path id="ArialMT-33" d="M 269 1209 
L 831 1284 
Q 928 806 1161 595 
Q 1394 384 1728 384 
Q 2125 384 2398 659 
Q 2672 934 2672 1341 
Q 2672 1728 2419 1979 
Q 2166 2231 1775 2231 
Q 1616 2231 1378 2169 
L 1441 2663 
Q 1497 2656 1531 2656 
Q 1891 2656 2178 2843 
Q 2466 3031 2466 3422 
Q 2466 3731 2256 3934 
Q 2047 4138 1716 4138 
Q 1388 4138 1169 3931 
Q 950 3725 888 3313 
L 325 3413 
Q 428 3978 793 4289 
Q 1159 4600 1703 4600 
Q 2078 4600 2393 4439 
Q 2709 4278 2876 4000 
Q 3044 3722 3044 3409 
Q 3044 3113 2884 2869 
Q 2725 2625 2413 2481 
Q 2819 2388 3044 2092 
Q 3269 1797 3269 1353 
Q 3269 753 2831 336 
Q 2394 -81 1725 -81 
Q 1122 -81 723 278 
Q 325 638 269 1209 
z
" transform="scale(0.015625)"/>
       </defs>
       <use xlink:href="#ArialMT-33"/>
       <use xlink:href="#ArialMT-30" x="55.615234"/>
      </g>
     </g>
    </g>
    <g id="text_9">
     <!-- Fluorescence Polarization (mP) -->
     <g style="fill: #262626" transform="translate(38.970562 325.958188) rotate(-90) scale(0.216 -0.216)">
      <defs>
       <path id="ArialMT-46" d="M 525 0 
L 525 4581 
L 3616 4581 
L 3616 4041 
L 1131 4041 
L 1131 2622 
L 3281 2622 
L 3281 2081 
L 1131 2081 
L 1131 0 
L 525 0 
z
" transform="scale(0.015625)"/>
       <path id="ArialMT-6c" d="M 409 0 
L 409 4581 
L 972 4581 
L 972 0 
L 409 0 
z
" transform="scale(0.015625)"/>
       <path id="ArialMT-75" d="M 2597 0 
L 2597 488 
Q 2209 -75 1544 -75 
Q 1250 -75 995 37 
Q 741 150 617 320 
Q 494 491 444 738 
Q 409 903 409 1263 
L 409 3319 
L 972 3319 
L 972 1478 
Q 972 1038 1006 884 
Q 1059 663 1231 536 
Q 1403 409 1656 409 
Q 1909 409 2131 539 
Q 2353 669 2445 892 
Q 2538 1116 2538 1541 
L 2538 3319 
L 3100 3319 
L 3100 0 
L 2597 0 
z
" transform="scale(0.015625)"/>
       <path id="ArialMT-6f" d="M 213 1659 
Q 213 2581 725 3025 
Q 1153 3394 1769 3394 
Q 2453 3394 2887 2945 
Q 3322 2497 3322 1706 
Q 3322 1066 3130 698 
Q 2938 331 2570 128 
Q 2203 -75 1769 -75 
Q 1072 -75 642 372 
Q 213 819 213 1659 
z
M 791 1659 
Q 791 1022 1069 705 
Q 1347 388 1769 388 
Q 2188 388 2466 706 
Q 2744 1025 2744 1678 
Q 2744 2294 2464 2611 
Q 2184 2928 1769 2928 
Q 1347 2928 1069 2612 
Q 791 2297 791 1659 
z
" transform="scale(0.015625)"/>
       <path id="ArialMT-72" d="M 416 0 
L 416 3319 
L 922 3319 
L 922 2816 
Q 1116 3169 1280 3281 
Q 1444 3394 1641 3394 
Q 1925 3394 2219 3213 
L 2025 2691 
Q 1819 2813 1613 2813 
Q 1428 2813 1281 2702 
Q 1134 2591 1072 2394 
Q 978 2094 978 1738 
L 978 0 
L 416 0 
z
" transform="scale(0.015625)"/>
       <path id="ArialMT-65" d="M 2694 1069 
L 3275 997 
Q 3138 488 2766 206 
Q 2394 -75 1816 -75 
Q 1088 -75 661 373 
Q 234 822 234 1631 
Q 234 2469 665 2931 
Q 1097 3394 1784 3394 
Q 2450 3394 2872 2941 
Q 3294 2488 3294 1666 
Q 3294 1616 3291 1516 
L 816 1516 
Q 847 969 1125 678 
Q 1403 388 1819 388 
Q 2128 388 2347 550 
Q 2566 713 2694 1069 
z
M 847 1978 
L 2700 1978 
Q 2663 2397 2488 2606 
Q 2219 2931 1791 2931 
Q 1403 2931 1139 2672 
Q 875 2413 847 1978 
z
" transform="scale(0.015625)"/>
       <path id="ArialMT-73" d="M 197 991 
L 753 1078 
Q 800 744 1014 566 
Q 1228 388 1613 388 
Q 2000 388 2187 545 
Q 2375 703 2375 916 
Q 2375 1106 2209 1216 
Q 2094 1291 1634 1406 
Q 1016 1563 777 1677 
Q 538 1791 414 1992 
Q 291 2194 291 2438 
Q 291 2659 392 2848 
Q 494 3038 669 3163 
Q 800 3259 1026 3326 
Q 1253 3394 1513 3394 
Q 1903 3394 2198 3281 
Q 2494 3169 2634 2976 
Q 2775 2784 2828 2463 
L 2278 2388 
Q 2241 2644 2061 2787 
Q 1881 2931 1553 2931 
Q 1166 2931 1000 2803 
Q 834 2675 834 2503 
Q 834 2394 903 2306 
Q 972 2216 1119 2156 
Q 1203 2125 1616 2013 
Q 2213 1853 2448 1751 
Q 2684 1650 2818 1456 
Q 2953 1263 2953 975 
Q 2953 694 2789 445 
Q 2625 197 2315 61 
Q 2006 -75 1616 -75 
Q 969 -75 630 194 
Q 291 463 197 991 
z
" transform="scale(0.015625)"/>
       <path id="ArialMT-63" d="M 2588 1216 
L 3141 1144 
Q 3050 572 2676 248 
Q 2303 -75 1759 -75 
Q 1078 -75 664 370 
Q 250 816 250 1647 
Q 250 2184 428 2587 
Q 606 2991 970 3192 
Q 1334 3394 1763 3394 
Q 2303 3394 2647 3120 
Q 2991 2847 3088 2344 
L 2541 2259 
Q 2463 2594 2264 2762 
Q 2066 2931 1784 2931 
Q 1359 2931 1093 2626 
Q 828 2322 828 1663 
Q 828 994 1084 691 
Q 1341 388 1753 388 
Q 2084 388 2306 591 
Q 2528 794 2588 1216 
z
" transform="scale(0.015625)"/>
       <path id="ArialMT-6e" d="M 422 0 
L 422 3319 
L 928 3319 
L 928 2847 
Q 1294 3394 1984 3394 
Q 2284 3394 2536 3286 
Q 2788 3178 2913 3003 
Q 3038 2828 3088 2588 
Q 3119 2431 3119 2041 
L 3119 0 
L 2556 0 
L 2556 2019 
Q 2556 2363 2490 2533 
Q 2425 2703 2258 2804 
Q 2091 2906 1866 2906 
Q 1506 2906 1245 2678 
Q 984 2450 984 1813 
L 984 0 
L 422 0 
z
" transform="scale(0.015625)"/>
       <path id="ArialMT-20" transform="scale(0.015625)"/>
       <path id="ArialMT-50" d="M 494 0 
L 494 4581 
L 2222 4581 
Q 2678 4581 2919 4538 
Q 3256 4481 3484 4323 
Q 3713 4166 3852 3881 
Q 3991 3597 3991 3256 
Q 3991 2672 3619 2267 
Q 3247 1863 2275 1863 
L 1100 1863 
L 1100 0 
L 494 0 
z
M 1100 2403 
L 2284 2403 
Q 2872 2403 3119 2622 
Q 3366 2841 3366 3238 
Q 3366 3525 3220 3729 
Q 3075 3934 2838 4000 
Q 2684 4041 2272 4041 
L 1100 4041 
L 1100 2403 
z
" transform="scale(0.015625)"/>
       <path id="ArialMT-61" d="M 2588 409 
Q 2275 144 1986 34 
Q 1697 -75 1366 -75 
Q 819 -75 525 192 
Q 231 459 231 875 
Q 231 1119 342 1320 
Q 453 1522 633 1644 
Q 813 1766 1038 1828 
Q 1203 1872 1538 1913 
Q 2219 1994 2541 2106 
Q 2544 2222 2544 2253 
Q 2544 2597 2384 2738 
Q 2169 2928 1744 2928 
Q 1347 2928 1158 2789 
Q 969 2650 878 2297 
L 328 2372 
Q 403 2725 575 2942 
Q 747 3159 1072 3276 
Q 1397 3394 1825 3394 
Q 2250 3394 2515 3294 
Q 2781 3194 2906 3042 
Q 3031 2891 3081 2659 
Q 3109 2516 3109 2141 
L 3109 1391 
Q 3109 606 3145 398 
Q 3181 191 3288 0 
L 2700 0 
Q 2613 175 2588 409 
z
M 2541 1666 
Q 2234 1541 1622 1453 
Q 1275 1403 1131 1340 
Q 988 1278 909 1158 
Q 831 1038 831 891 
Q 831 666 1001 516 
Q 1172 366 1500 366 
Q 1825 366 2078 508 
Q 2331 650 2450 897 
Q 2541 1088 2541 1459 
L 2541 1666 
z
" transform="scale(0.015625)"/>
       <path id="ArialMT-69" d="M 425 3934 
L 425 4581 
L 988 4581 
L 988 3934 
L 425 3934 
z
M 425 0 
L 425 3319 
L 988 3319 
L 988 0 
L 425 0 
z
" transform="scale(0.015625)"/>
       <path id="ArialMT-7a" d="M 125 0 
L 125 456 
L 2238 2881 
Q 1878 2863 1603 2863 
L 250 2863 
L 250 3319 
L 2963 3319 
L 2963 2947 
L 1166 841 
L 819 456 
Q 1197 484 1528 484 
L 3063 484 
L 3063 0 
L 125 0 
z
" transform="scale(0.015625)"/>
       <path id="ArialMT-74" d="M 1650 503 
L 1731 6 
Q 1494 -44 1306 -44 
Q 1000 -44 831 53 
Q 663 150 594 308 
Q 525 466 525 972 
L 525 2881 
L 113 2881 
L 113 3319 
L 525 3319 
L 525 4141 
L 1084 4478 
L 1084 3319 
L 1650 3319 
L 1650 2881 
L 1084 2881 
L 1084 941 
Q 1084 700 1114 631 
Q 1144 563 1211 522 
Q 1278 481 1403 481 
Q 1497 481 1650 503 
z
" transform="scale(0.015625)"/>
       <path id="ArialMT-28" d="M 1497 -1347 
Q 1031 -759 709 28 
Q 388 816 388 1659 
Q 388 2403 628 3084 
Q 909 3875 1497 4659 
L 1900 4659 
Q 1522 4009 1400 3731 
Q 1209 3300 1100 2831 
Q 966 2247 966 1656 
Q 966 153 1900 -1347 
L 1497 -1347 
z
" transform="scale(0.015625)"/>
       <path id="ArialMT-6d" d="M 422 0 
L 422 3319 
L 925 3319 
L 925 2853 
Q 1081 3097 1340 3245 
Q 1600 3394 1931 3394 
Q 2300 3394 2536 3241 
Q 2772 3088 2869 2813 
Q 3263 3394 3894 3394 
Q 4388 3394 4653 3120 
Q 4919 2847 4919 2278 
L 4919 0 
L 4359 0 
L 4359 2091 
Q 4359 2428 4304 2576 
Q 4250 2725 4106 2815 
Q 3963 2906 3769 2906 
Q 3419 2906 3187 2673 
Q 2956 2441 2956 1928 
L 2956 0 
L 2394 0 
L 2394 2156 
Q 2394 2531 2256 2718 
Q 2119 2906 1806 2906 
Q 1569 2906 1367 2781 
Q 1166 2656 1075 2415 
Q 984 2175 984 1722 
L 984 0 
L 422 0 
z
" transform="scale(0.015625)"/>
       <path id="ArialMT-29" d="M 791 -1347 
L 388 -1347 
Q 1322 153 1322 1656 
Q 1322 2244 1188 2822 
Q 1081 3291 891 3722 
Q 769 4003 388 4659 
L 791 4659 
Q 1378 3875 1659 3084 
Q 1900 2403 1900 1659 
Q 1900 816 1576 28 
Q 1253 -759 791 -1347 
z
" transform="scale(0.015625)"/>
      </defs>
      <use xlink:href="#ArialMT-46"/>
      <use xlink:href="#ArialMT-6c" x="61.083984"/>
      <use xlink:href="#ArialMT-75" x="83.300781"/>
      <use xlink:href="#ArialMT-6f" x="138.916016"/>
      <use xlink:href="#ArialMT-72" x="194.53125"/>
      <use xlink:href="#ArialMT-65" x="227.832031"/>
      <use xlink:href="#ArialMT-73" x="283.447266"/>
      <use xlink:href="#ArialMT-63" x="333.447266"/>
      <use xlink:href="#ArialMT-65" x="383.447266"/>
      <use xlink:href="#ArialMT-6e" x="439.0625"/>
      <use xlink:href="#ArialMT-63" x="494.677734"/>
      <use xlink:href="#ArialMT-65" x="544.677734"/>
      <use xlink:href="#ArialMT-20" x="600.292969"/>
      <use xlink:href="#ArialMT-50" x="628.076172"/>
      <use xlink:href="#ArialMT-6f" x="694.775391"/>
      <use xlink:href="#ArialMT-6c" x="750.390625"/>
      <use xlink:href="#ArialMT-61" x="772.607422"/>
      <use xlink:href="#ArialMT-72" x="828.222656"/>
      <use xlink:href="#ArialMT-69" x="861.523438"/>
      <use xlink:href="#ArialMT-7a" x="883.740234"/>
      <use xlink:href="#ArialMT-61" x="933.740234"/>
      <use xlink:href="#ArialMT-74" x="989.355469"/>
      <use xlink:href="#ArialMT-69" x="1017.138672"/>
      <use xlink:href="#ArialMT-6f" x="1039.355469"/>
      <use xlink:href="#ArialMT-6e" x="1094.970703"/>
      <use xlink:href="#ArialMT-20" x="1150.585938"/>
      <use xlink:href="#ArialMT-28" x="1178.369141"/>
      <use xlink:href="#ArialMT-6d" x="1211.669922"/>
      <use xlink:href="#ArialMT-50" x="1294.970703"/>
      <use xlink:href="#ArialMT-29" x="1361.669922"/>
     </g>
    </g>
   </g>
   <g id="patch_3">
    <path d="M 87.624291 193.36548 
L 102.521068 193.36548 
L 102.521068 184.100168 
L 87.624291 184.100168 
L 87.624291 193.36548 
z
" clip-path="url(#pe442440e19)" style="fill: #5d9ba3; stroke: #313131; stroke-linejoin: miter"/>
   </g>
   <g id="line2d_7">
    <path d="M 95.07268 193.36548 
L 95.07268 204.293797 
" clip-path="url(#pe442440e19)" style="fill: none; stroke: #313131"/>
   </g>
   <g id="line2d_8">
    <path d="M 95.07268 184.100168 
L 95.07268 173.884567 
" clip-path="url(#pe442440e19)" style="fill: none; stroke: #313131"/>
   </g>
   <g id="line2d_9">
    <path d="M 91.348486 204.293797 
L 98.796874 204.293797 
" clip-path="url(#pe442440e19)" style="fill: none; stroke: #313131; stroke-linecap: round"/>
   </g>
   <g id="line2d_10">
    <path d="M 91.348486 173.884567 
L 98.796874 173.884567 
" clip-path="url(#pe442440e19)" style="fill: none; stroke: #313131; stroke-linecap: round"/>
   </g>
   <g id="patch_4">
    <path d="M 143.487205 175.31 
L 158.383983 175.31 
L 158.383983 160.580529 
L 143.487205 160.580529 
L 143.487205 175.31 
z
" clip-path="url(#pe442440e19)" style="fill: #5d9ba3; stroke: #313131; stroke-linejoin: miter"/>
   </g>
   <g id="line2d_11">
    <path d="M 150.935594 175.31 
L 150.935594 187.188605 
" clip-path="url(#pe442440e19)" style="fill: none; stroke: #313131"/>
   </g>
   <g id="line2d_12">
    <path d="M 150.935594 160.580529 
L 150.935594 154.878799 
" clip-path="url(#pe442440e19)" style="fill: none; stroke: #313131"/>
   </g>
   <g id="line2d_13">
    <path d="M 147.2114 187.188605 
L 154.659788 187.188605 
" clip-path="url(#pe442440e19)" style="fill: none; stroke: #313131; stroke-linecap: round"/>
   </g>
   <g id="line2d_14">
    <path d="M 147.2114 154.878799 
L 154.659788 154.878799 
" clip-path="url(#pe442440e19)" style="fill: none; stroke: #313131; stroke-linecap: round"/>
   </g>
   <g id="patch_5">
    <path d="M 102.521068 208.570095 
L 117.417846 208.570095 
L 117.417846 190.039471 
L 102.521068 190.039471 
L 102.521068 208.570095 
z
" clip-path="url(#pe442440e19)" style="fill: #693072; stroke: #313131; stroke-linejoin: miter"/>
   </g>
   <g id="line2d_15">
    <path d="M 109.969457 208.570095 
L 109.969457 216.647547 
" clip-path="url(#pe442440e19)" style="fill: none; stroke: #313131"/>
   </g>
   <g id="line2d_16">
    <path d="M 109.969457 190.039471 
L 109.969457 179.586298 
" clip-path="url(#pe442440e19)" style="fill: none; stroke: #313131"/>
   </g>
   <g id="line2d_17">
    <path d="M 106.245263 216.647547 
L 113.693651 216.647547 
" clip-path="url(#pe442440e19)" style="fill: none; stroke: #313131; stroke-linecap: round"/>
   </g>
   <g id="line2d_18">
    <path d="M 106.245263 179.586298 
L 113.693651 179.586298 
" clip-path="url(#pe442440e19)" style="fill: none; stroke: #313131; stroke-linecap: round"/>
   </g>
   <g id="patch_6">
    <path d="M 158.383983 192.652764 
L 173.28076 192.652764 
L 173.28076 165.807116 
L 158.383983 165.807116 
L 158.383983 192.652764 
z
" clip-path="url(#pe442440e19)" style="fill: #693072; stroke: #313131; stroke-linejoin: miter"/>
   </g>
   <g id="line2d_19">
    <path d="M 165.832371 192.652764 
L 165.832371 211.896104 
" clip-path="url(#pe442440e19)" style="fill: none; stroke: #313131"/>
   </g>
   <g id="line2d_20">
    <path d="M 165.832371 165.807116 
L 165.832371 162.481106 
" clip-path="url(#pe442440e19)" style="fill: none; stroke: #313131"/>
   </g>
   <g id="line2d_21">
    <path d="M 162.108177 211.896104 
L 169.556565 211.896104 
" clip-path="url(#pe442440e19)" style="fill: none; stroke: #313131; stroke-linecap: round"/>
   </g>
   <g id="line2d_22">
    <path d="M 162.108177 162.481106 
L 169.556565 162.481106 
" clip-path="url(#pe442440e19)" style="fill: none; stroke: #313131; stroke-linecap: round"/>
   </g>
   <g id="patch_7">
    <path d="M 117.417846 208.094951 
L 132.314623 208.094951 
L 132.314623 196.216345 
L 117.417846 196.216345 
L 117.417846 208.094951 
z
" clip-path="url(#pe442440e19)" style="fill: #e0a84d; stroke: #313131; stroke-linejoin: miter"/>
   </g>
   <g id="line2d_23">
    <path d="M 124.866234 208.094951 
L 124.866234 215.697258 
" clip-path="url(#pe442440e19)" style="fill: none; stroke: #313131"/>
   </g>
   <g id="line2d_24">
    <path d="M 124.866234 196.216345 
L 124.866234 182.437163 
" clip-path="url(#pe442440e19)" style="fill: none; stroke: #313131"/>
   </g>
   <g id="line2d_25">
    <path d="M 121.14204 215.697258 
L 128.590428 215.697258 
" clip-path="url(#pe442440e19)" style="fill: none; stroke: #313131; stroke-linecap: round"/>
   </g>
   <g id="line2d_26">
    <path d="M 121.14204 182.437163 
L 128.590428 182.437163 
" clip-path="url(#pe442440e19)" style="fill: none; stroke: #313131; stroke-linecap: round"/>
   </g>
   <g id="patch_8">
    <path d="M 173.28076 171.746418 
L 188.177537 171.746418 
L 188.177537 162.718678 
L 173.28076 162.718678 
L 173.28076 171.746418 
z
" clip-path="url(#pe442440e19)" style="fill: #e0a84d; stroke: #313131; stroke-linejoin: miter"/>
   </g>
   <g id="line2d_27">
    <path d="M 180.729148 171.746418 
L 180.729148 180.536586 
" clip-path="url(#pe442440e19)" style="fill: none; stroke: #313131"/>
   </g>
   <g id="line2d_28">
    <path d="M 180.729148 162.718678 
L 180.729148 151.077645 
" clip-path="url(#pe442440e19)" style="fill: none; stroke: #313131"/>
   </g>
   <g id="line2d_29">
    <path d="M 177.004954 180.536586 
L 184.453342 180.536586 
" clip-path="url(#pe442440e19)" style="fill: none; stroke: #313131; stroke-linecap: round"/>
   </g>
   <g id="line2d_30">
    <path d="M 177.004954 151.077645 
L 184.453342 151.077645 
" clip-path="url(#pe442440e19)" style="fill: none; stroke: #313131; stroke-linecap: round"/>
   </g>
   <g id="line2d_31">
    <path d="M 87.624291 186.713461 
L 102.521068 186.713461 
" clip-path="url(#pe442440e19)" style="fill: none; stroke: #313131"/>
   </g>
   <g id="line2d_32">
    <path d="M 143.487205 168.657981 
L 158.383983 168.657981 
" clip-path="url(#pe442440e19)" style="fill: none; stroke: #313131"/>
   </g>
   <g id="line2d_33">
    <path d="M 102.521068 201.442932 
L 117.417846 201.442932 
" clip-path="url(#pe442440e19)" style="fill: none; stroke: #313131"/>
   </g>
   <g id="line2d_34">
    <path d="M 158.383983 180.061442 
L 173.28076 180.061442 
" clip-path="url(#pe442440e19)" style="fill: none; stroke: #313131"/>
   </g>
   <g id="line2d_35">
    <path d="M 117.417846 203.343509 
L 132.314623 203.343509 
" clip-path="url(#pe442440e19)" style="fill: none; stroke: #313131"/>
   </g>
   <g id="line2d_36">
    <path d="M 173.28076 166.757404 
L 188.177537 166.757404 
" clip-path="url(#pe442440e19)" style="fill: none; stroke: #313131"/>
   </g>
   <g id="patch_9">
    <path d="M 82.038 305.452 
L 82.038 45.168 
" style="fill: none; stroke: #262626; stroke-width: 1.875; stroke-linejoin: miter; stroke-linecap: square"/>
   </g>
   <g id="patch_10">
    <path d="M 82.038 305.452 
L 193.763828 305.452 
" style="fill: none; stroke: #262626; stroke-width: 1.875; stroke-linejoin: miter; stroke-linecap: square"/>
   </g>
   <g id="text_10">
    <!-- new -->
    <g style="fill: #262626" transform="translate(116.898289 39.168) scale(0.216 -0.216)">
     <defs>
      <path id="Arial-BoldMT-6e" d="M 3478 0 
L 2600 0 
L 2600 1694 
Q 2600 2231 2544 2389 
Q 2488 2547 2361 2634 
Q 2234 2722 2056 2722 
Q 1828 2722 1647 2597 
Q 1466 2472 1398 2265 
Q 1331 2059 1331 1503 
L 1331 0 
L 453 0 
L 453 3319 
L 1269 3319 
L 1269 2831 
Q 1703 3394 2363 3394 
Q 2653 3394 2893 3289 
Q 3134 3184 3257 3021 
Q 3381 2859 3429 2653 
Q 3478 2447 3478 2063 
L 3478 0 
z
" transform="scale(0.015625)"/>
      <path id="Arial-BoldMT-65" d="M 2381 1056 
L 3256 909 
Q 3088 428 2723 176 
Q 2359 -75 1813 -75 
Q 947 -75 531 491 
Q 203 944 203 1634 
Q 203 2459 634 2926 
Q 1066 3394 1725 3394 
Q 2466 3394 2894 2905 
Q 3322 2416 3303 1406 
L 1103 1406 
Q 1113 1016 1316 798 
Q 1519 581 1822 581 
Q 2028 581 2168 693 
Q 2309 806 2381 1056 
z
M 2431 1944 
Q 2422 2325 2234 2523 
Q 2047 2722 1778 2722 
Q 1491 2722 1303 2513 
Q 1116 2303 1119 1944 
L 2431 1944 
z
" transform="scale(0.015625)"/>
      <path id="Arial-BoldMT-77" d="M 1078 0 
L 28 3319 
L 881 3319 
L 1503 1144 
L 2075 3319 
L 2922 3319 
L 3475 1144 
L 4109 3319 
L 4975 3319 
L 3909 0 
L 3066 0 
L 2494 2134 
L 1931 0 
L 1078 0 
z
" transform="scale(0.015625)"/>
     </defs>
     <use xlink:href="#Arial-BoldMT-6e"/>
     <use xlink:href="#Arial-BoldMT-65" x="61.083984"/>
     <use xlink:href="#Arial-BoldMT-77" x="116.699219"/>
    </g>
   </g>
  </g>
  <g id="axes_2">
   <g id="patch_11">
    <path d="M 201.038434 305.452 
L 312.764262 305.452 
L 312.764262 45.168 
L 201.038434 45.168 
z
" style="fill: #ffffff"/>
   </g>
   <g id="matplotlib.axis_3">
    <g id="xtick_3">
     <g id="text_11">
      <!-- 4.0 -->
      <g style="fill: #262626" transform="translate(215.208891 332.124469) scale(0.198 -0.198)">
       <use xlink:href="#ArialMT-34"/>
       <use xlink:href="#ArialMT-2e" x="55.615234"/>
       <use xlink:href="#ArialMT-30" x="83.398438"/>
      </g>
     </g>
    </g>
    <g id="xtick_4">
     <g id="text_12">
      <!-- 7.4 -->
      <g style="fill: #262626" transform="translate(271.071805 332.124469) scale(0.198 -0.198)">
       <use xlink:href="#ArialMT-37"/>
       <use xlink:href="#ArialMT-2e" x="55.615234"/>
       <use xlink:href="#ArialMT-34" x="83.398438"/>
      </g>
     </g>
    </g>
   </g>
   <g id="matplotlib.axis_4">
    <g id="ytick_7">
     <g id="line2d_37">
      <path d="M 201.038434 288.869467 
L 312.764262 288.869467 
" clip-path="url(#p212e468cb3)" style="fill: none; stroke: #d3d3d3; stroke-width: 2; stroke-linecap: round"/>
     </g>
    </g>
    <g id="ytick_8">
     <g id="line2d_38">
      <path d="M 201.038434 241.355046 
L 312.764262 241.355046 
" clip-path="url(#p212e468cb3)" style="fill: none; stroke: #d3d3d3; stroke-width: 2; stroke-linecap: round"/>
     </g>
    </g>
    <g id="ytick_9">
     <g id="line2d_39">
      <path d="M 201.038434 193.840624 
L 312.764262 193.840624 
" clip-path="url(#p212e468cb3)" style="fill: none; stroke: #d3d3d3; stroke-width: 2; stroke-linecap: round"/>
     </g>
    </g>
    <g id="ytick_10">
     <g id="line2d_40">
      <path d="M 201.038434 146.326203 
L 312.764262 146.326203 
" clip-path="url(#p212e468cb3)" style="fill: none; stroke: #d3d3d3; stroke-width: 2; stroke-linecap: round"/>
     </g>
    </g>
    <g id="ytick_11">
     <g id="line2d_41">
      <path d="M 201.038434 98.811782 
L 312.764262 98.811782 
" clip-path="url(#p212e468cb3)" style="fill: none; stroke: #d3d3d3; stroke-width: 2; stroke-linecap: round"/>
     </g>
    </g>
    <g id="ytick_12">
     <g id="line2d_42">
      <path d="M 201.038434 51.29736 
L 312.764262 51.29736 
" clip-path="url(#p212e468cb3)" style="fill: none; stroke: #d3d3d3; stroke-width: 2; stroke-linecap: round"/>
     </g>
    </g>
   </g>
   <g id="patch_12">
    <path d="M 206.624726 108.314666 
L 221.521503 108.314666 
L 221.521503 102.137791 
L 206.624726 102.137791 
L 206.624726 108.314666 
z
" clip-path="url(#p212e468cb3)" style="fill: #5d9ba3; stroke: #313131; stroke-linejoin: miter"/>
   </g>
   <g id="line2d_43">
    <path d="M 214.073114 108.314666 
L 214.073114 111.165531 
" clip-path="url(#p212e468cb3)" style="fill: none; stroke: #313131"/>
   </g>
   <g id="line2d_44">
    <path d="M 214.073114 102.137791 
L 214.073114 95.960916 
" clip-path="url(#p212e468cb3)" style="fill: none; stroke: #313131"/>
   </g>
   <g id="line2d_45">
    <path d="M 210.34892 111.165531 
L 217.797309 111.165531 
" clip-path="url(#p212e468cb3)" style="fill: none; stroke: #313131; stroke-linecap: round"/>
   </g>
   <g id="line2d_46">
    <path d="M 210.34892 95.960916 
L 217.797309 95.960916 
" clip-path="url(#p212e468cb3)" style="fill: none; stroke: #313131; stroke-linecap: round"/>
   </g>
   <g id="patch_13">
    <path d="M 262.48764 71.253417 
L 277.384417 71.253417 
L 277.384417 64.83897 
L 262.48764 64.83897 
L 262.48764 71.253417 
z
" clip-path="url(#p212e468cb3)" style="fill: #5d9ba3; stroke: #313131; stroke-linejoin: miter"/>
   </g>
   <g id="line2d_47">
    <path d="M 269.936028 71.253417 
L 269.936028 80.756302 
" clip-path="url(#p212e468cb3)" style="fill: none; stroke: #313131"/>
   </g>
   <g id="line2d_48">
    <path d="M 269.936028 64.83897 
L 269.936028 56.999091 
" clip-path="url(#p212e468cb3)" style="fill: none; stroke: #313131"/>
   </g>
   <g id="line2d_49">
    <path d="M 266.211834 80.756302 
L 273.660223 80.756302 
" clip-path="url(#p212e468cb3)" style="fill: none; stroke: #313131; stroke-linecap: round"/>
   </g>
   <g id="line2d_50">
    <path d="M 266.211834 56.999091 
L 273.660223 56.999091 
" clip-path="url(#p212e468cb3)" style="fill: none; stroke: #313131; stroke-linecap: round"/>
   </g>
   <g id="patch_14">
    <path d="M 221.521503 116.392118 
L 236.41828 116.392118 
L 236.41828 105.701373 
L 221.521503 105.701373 
L 221.521503 116.392118 
z
" clip-path="url(#p212e468cb3)" style="fill: #693072; stroke: #313131; stroke-linejoin: miter"/>
   </g>
   <g id="line2d_51">
    <path d="M 228.969891 116.392118 
L 228.969891 120.668415 
" clip-path="url(#p212e468cb3)" style="fill: none; stroke: #313131"/>
   </g>
   <g id="line2d_52">
    <path d="M 228.969891 105.701373 
L 228.969891 91.209474 
" clip-path="url(#p212e468cb3)" style="fill: none; stroke: #313131"/>
   </g>
   <g id="line2d_53">
    <path d="M 225.245697 120.668415 
L 232.694086 120.668415 
" clip-path="url(#p212e468cb3)" style="fill: none; stroke: #313131; stroke-linecap: round"/>
   </g>
   <g id="line2d_54">
    <path d="M 225.245697 91.209474 
L 232.694086 91.209474 
" clip-path="url(#p212e468cb3)" style="fill: none; stroke: #313131; stroke-linecap: round"/>
   </g>
   <g id="patch_15">
    <path d="M 277.384417 81.231446 
L 292.281194 81.231446 
L 292.281194 71.728562 
L 277.384417 71.728562 
L 277.384417 81.231446 
z
" clip-path="url(#p212e468cb3)" style="fill: #693072; stroke: #313131; stroke-linejoin: miter"/>
   </g>
   <g id="line2d_55">
    <path d="M 284.832805 81.231446 
L 284.832805 84.557455 
" clip-path="url(#p212e468cb3)" style="fill: none; stroke: #313131"/>
   </g>
   <g id="line2d_56">
    <path d="M 284.832805 71.728562 
L 284.832805 61.750533 
" clip-path="url(#p212e468cb3)" style="fill: none; stroke: #313131"/>
   </g>
   <g id="line2d_57">
    <path d="M 281.108611 84.557455 
L 288.557 84.557455 
" clip-path="url(#p212e468cb3)" style="fill: none; stroke: #313131; stroke-linecap: round"/>
   </g>
   <g id="line2d_58">
    <path d="M 281.108611 61.750533 
L 288.557 61.750533 
" clip-path="url(#p212e468cb3)" style="fill: none; stroke: #313131; stroke-linecap: round"/>
   </g>
   <g id="patch_16">
    <path d="M 236.41828 118.530267 
L 251.315057 118.530267 
L 251.315057 112.353392 
L 236.41828 112.353392 
L 236.41828 118.530267 
z
" clip-path="url(#p212e468cb3)" style="fill: #e0a84d; stroke: #313131; stroke-linejoin: miter"/>
   </g>
   <g id="line2d_59">
    <path d="M 243.866668 118.530267 
L 243.866668 126.370146 
" clip-path="url(#p212e468cb3)" style="fill: none; stroke: #313131"/>
   </g>
   <g id="line2d_60">
    <path d="M 243.866668 112.353392 
L 243.866668 107.364378 
" clip-path="url(#p212e468cb3)" style="fill: none; stroke: #313131"/>
   </g>
   <g id="line2d_61">
    <path d="M 240.142474 126.370146 
L 247.590863 126.370146 
" clip-path="url(#p212e468cb3)" style="fill: none; stroke: #313131; stroke-linecap: round"/>
   </g>
   <g id="line2d_62">
    <path d="M 240.142474 107.364378 
L 247.590863 107.364378 
" clip-path="url(#p212e468cb3)" style="fill: none; stroke: #313131; stroke-linecap: round"/>
   </g>
   <g id="patch_17">
    <path d="M 292.281194 80.281157 
L 307.177971 80.281157 
L 307.177971 69.35284 
L 292.281194 69.35284 
L 292.281194 80.281157 
z
" clip-path="url(#p212e468cb3)" style="fill: #e0a84d; stroke: #313131; stroke-linejoin: miter"/>
   </g>
   <g id="line2d_63">
    <path d="M 299.729583 80.281157 
L 299.729583 84.557455 
" clip-path="url(#p212e468cb3)" style="fill: none; stroke: #313131"/>
   </g>
   <g id="line2d_64">
    <path d="M 299.729583 69.35284 
L 299.729583 65.551687 
" clip-path="url(#p212e468cb3)" style="fill: none; stroke: #313131"/>
   </g>
   <g id="line2d_65">
    <path d="M 296.005388 84.557455 
L 303.453777 84.557455 
" clip-path="url(#p212e468cb3)" style="fill: none; stroke: #313131; stroke-linecap: round"/>
   </g>
   <g id="line2d_66">
    <path d="M 296.005388 65.551687 
L 303.453777 65.551687 
" clip-path="url(#p212e468cb3)" style="fill: none; stroke: #313131; stroke-linecap: round"/>
   </g>
   <g id="line2d_67">
    <path d="M 206.624726 104.513512 
L 221.521503 104.513512 
" clip-path="url(#p212e468cb3)" style="fill: none; stroke: #313131"/>
   </g>
   <g id="line2d_68">
    <path d="M 262.48764 69.35284 
L 277.384417 69.35284 
" clip-path="url(#p212e468cb3)" style="fill: none; stroke: #313131"/>
   </g>
   <g id="line2d_69">
    <path d="M 221.521503 112.11582 
L 236.41828 112.11582 
" clip-path="url(#p212e468cb3)" style="fill: none; stroke: #313131"/>
   </g>
   <g id="line2d_70">
    <path d="M 277.384417 76.004859 
L 292.281194 76.004859 
" clip-path="url(#p212e468cb3)" style="fill: none; stroke: #313131"/>
   </g>
   <g id="line2d_71">
    <path d="M 236.41828 114.491541 
L 251.315057 114.491541 
" clip-path="url(#p212e468cb3)" style="fill: none; stroke: #313131"/>
   </g>
   <g id="line2d_72">
    <path d="M 292.281194 74.104283 
L 307.177971 74.104283 
" clip-path="url(#p212e468cb3)" style="fill: none; stroke: #313131"/>
   </g>
   <g id="patch_18">
    <path d="M 201.038434 305.452 
L 312.764262 305.452 
" style="fill: none; stroke: #262626; stroke-width: 1.875; stroke-linejoin: miter; stroke-linecap: square"/>
   </g>
   <g id="text_13">
    <!-- old -->
    <g style="fill: #262626" transform="translate(240.708098 39.168) scale(0.216 -0.216)">
     <defs>
      <path id="Arial-BoldMT-6f" d="M 256 1706 
Q 256 2144 472 2553 
Q 688 2963 1083 3178 
Q 1478 3394 1966 3394 
Q 2719 3394 3200 2905 
Q 3681 2416 3681 1669 
Q 3681 916 3195 420 
Q 2709 -75 1972 -75 
Q 1516 -75 1102 131 
Q 688 338 472 736 
Q 256 1134 256 1706 
z
M 1156 1659 
Q 1156 1166 1390 903 
Q 1625 641 1969 641 
Q 2313 641 2545 903 
Q 2778 1166 2778 1666 
Q 2778 2153 2545 2415 
Q 2313 2678 1969 2678 
Q 1625 2678 1390 2415 
Q 1156 2153 1156 1659 
z
" transform="scale(0.015625)"/>
      <path id="Arial-BoldMT-6c" d="M 459 0 
L 459 4581 
L 1338 4581 
L 1338 0 
L 459 0 
z
" transform="scale(0.015625)"/>
      <path id="Arial-BoldMT-64" d="M 3503 0 
L 2688 0 
L 2688 488 
Q 2484 203 2207 64 
Q 1931 -75 1650 -75 
Q 1078 -75 670 386 
Q 263 847 263 1672 
Q 263 2516 659 2955 
Q 1056 3394 1663 3394 
Q 2219 3394 2625 2931 
L 2625 4581 
L 3503 4581 
L 3503 0 
z
M 1159 1731 
Q 1159 1200 1306 963 
Q 1519 619 1900 619 
Q 2203 619 2415 876 
Q 2628 1134 2628 1647 
Q 2628 2219 2422 2470 
Q 2216 2722 1894 2722 
Q 1581 2722 1370 2473 
Q 1159 2225 1159 1731 
z
" transform="scale(0.015625)"/>
     </defs>
     <use xlink:href="#Arial-BoldMT-6f"/>
     <use xlink:href="#Arial-BoldMT-6c" x="61.083984"/>
     <use xlink:href="#Arial-BoldMT-64" x="88.867188"/>
    </g>
   </g>
  </g>
  <g id="axes_3">
   <g id="patch_19">
    <path d="M 320.038869 305.452 
L 431.764697 305.452 
L 431.764697 45.168 
L 320.038869 45.168 
z
" style="fill: #ffffff"/>
   </g>
   <g id="matplotlib.axis_5">
    <g id="xtick_5">
     <g id="text_14">
      <!-- 4.0 -->
      <g style="fill: #262626" transform="translate(334.209326 332.124469) scale(0.198 -0.198)">
       <use xlink:href="#ArialMT-34"/>
       <use xlink:href="#ArialMT-2e" x="55.615234"/>
       <use xlink:href="#ArialMT-30" x="83.398438"/>
      </g>
     </g>
    </g>
    <g id="xtick_6">
     <g id="text_15">
      <!-- 7.4 -->
      <g style="fill: #262626" transform="translate(390.07224 332.124469) scale(0.198 -0.198)">
       <use xlink:href="#ArialMT-37"/>
       <use xlink:href="#ArialMT-2e" x="55.615234"/>
       <use xlink:href="#ArialMT-34" x="83.398438"/>
      </g>
     </g>
    </g>
   </g>
   <g id="matplotlib.axis_6">
    <g id="ytick_13">
     <g id="line2d_73">
      <path d="M 320.038869 288.869467 
L 431.764697 288.869467 
" clip-path="url(#p9cb762617c)" style="fill: none; stroke: #d3d3d3; stroke-width: 2; stroke-linecap: round"/>
     </g>
    </g>
    <g id="ytick_14">
     <g id="line2d_74">
      <path d="M 320.038869 241.355046 
L 431.764697 241.355046 
" clip-path="url(#p9cb762617c)" style="fill: none; stroke: #d3d3d3; stroke-width: 2; stroke-linecap: round"/>
     </g>
    </g>
    <g id="ytick_15">
     <g id="line2d_75">
      <path d="M 320.038869 193.840624 
L 431.764697 193.840624 
" clip-path="url(#p9cb762617c)" style="fill: none; stroke: #d3d3d3; stroke-width: 2; stroke-linecap: round"/>
     </g>
    </g>
    <g id="ytick_16">
     <g id="line2d_76">
      <path d="M 320.038869 146.326203 
L 431.764697 146.326203 
" clip-path="url(#p9cb762617c)" style="fill: none; stroke: #d3d3d3; stroke-width: 2; stroke-linecap: round"/>
     </g>
    </g>
    <g id="ytick_17">
     <g id="line2d_77">
      <path d="M 320.038869 98.811782 
L 431.764697 98.811782 
" clip-path="url(#p9cb762617c)" style="fill: none; stroke: #d3d3d3; stroke-width: 2; stroke-linecap: round"/>
     </g>
    </g>
    <g id="ytick_18">
     <g id="line2d_78">
      <path d="M 320.038869 51.29736 
L 431.764697 51.29736 
" clip-path="url(#p9cb762617c)" style="fill: none; stroke: #d3d3d3; stroke-width: 2; stroke-linecap: round"/>
     </g>
    </g>
   </g>
   <g id="patch_20">
    <path d="M 347.970326 336.383888 
L 347.970326 336.383888 
L 347.970326 336.383888 
L 347.970326 336.383888 
z
" clip-path="url(#p9cb762617c)" style="fill: #5d9ba3; stroke: #313131; stroke-width: 1.5; stroke-linejoin: miter"/>
   </g>
   <g id="patch_21">
    <path d="M 347.970326 336.383888 
L 347.970326 336.383888 
L 347.970326 336.383888 
L 347.970326 336.383888 
z
" clip-path="url(#p9cb762617c)" style="fill: #693072; stroke: #313131; stroke-width: 1.5; stroke-linejoin: miter"/>
   </g>
   <g id="patch_22">
    <path d="M 347.970326 336.383888 
L 347.970326 336.383888 
L 347.970326 336.383888 
L 347.970326 336.383888 
z
" clip-path="url(#p9cb762617c)" style="fill: #e0a84d; stroke: #313131; stroke-width: 1.5; stroke-linejoin: miter"/>
   </g>
   <g id="patch_23">
    <path d="M 381.488074 278.178722 
L 396.384851 278.178722 
L 396.384851 268.675838 
L 381.488074 268.675838 
L 381.488074 278.178722 
z
" clip-path="url(#p9cb762617c)" style="fill: #5d9ba3; stroke: #313131; stroke-linejoin: miter"/>
   </g>
   <g id="line2d_79">
    <path d="M 388.936463 278.178722 
L 388.936463 286.96889 
" clip-path="url(#p9cb762617c)" style="fill: none; stroke: #313131"/>
   </g>
   <g id="line2d_80">
    <path d="M 388.936463 268.675838 
L 388.936463 267.012833 
" clip-path="url(#p9cb762617c)" style="fill: none; stroke: #313131"/>
   </g>
   <g id="line2d_81">
    <path d="M 385.212268 286.96889 
L 392.660657 286.96889 
" clip-path="url(#p9cb762617c)" style="fill: none; stroke: #313131; stroke-linecap: round"/>
   </g>
   <g id="line2d_82">
    <path d="M 385.212268 267.012833 
L 392.660657 267.012833 
" clip-path="url(#p9cb762617c)" style="fill: none; stroke: #313131; stroke-linecap: round"/>
   </g>
   <g id="patch_24">
    <path d="M 396.384851 278.416294 
L 411.281628 278.416294 
L 411.281628 264.161968 
L 396.384851 264.161968 
L 396.384851 278.416294 
z
" clip-path="url(#p9cb762617c)" style="fill: #693072; stroke: #313131; stroke-linejoin: miter"/>
   </g>
   <g id="line2d_83">
    <path d="M 403.83324 278.416294 
L 403.83324 293.620909 
" clip-path="url(#p9cb762617c)" style="fill: none; stroke: #313131"/>
   </g>
   <g id="line2d_84">
    <path d="M 403.83324 264.161968 
L 403.83324 250.85793 
" clip-path="url(#p9cb762617c)" style="fill: none; stroke: #313131"/>
   </g>
   <g id="line2d_85">
    <path d="M 400.109046 293.620909 
L 407.557434 293.620909 
" clip-path="url(#p9cb762617c)" style="fill: none; stroke: #313131; stroke-linecap: round"/>
   </g>
   <g id="line2d_86">
    <path d="M 400.109046 250.85793 
L 407.557434 250.85793 
" clip-path="url(#p9cb762617c)" style="fill: none; stroke: #313131; stroke-linecap: round"/>
   </g>
   <g id="patch_25">
    <path d="M 411.281628 258.460237 
L 426.178405 258.460237 
L 426.178405 237.078748 
L 411.281628 237.078748 
L 411.281628 258.460237 
z
" clip-path="url(#p9cb762617c)" style="fill: #e0a84d; stroke: #313131; stroke-linejoin: miter"/>
   </g>
   <g id="line2d_87">
    <path d="M 418.730017 258.460237 
L 418.730017 285.068313 
" clip-path="url(#p9cb762617c)" style="fill: none; stroke: #313131"/>
   </g>
   <g id="line2d_88">
    <path d="M 418.730017 237.078748 
L 418.730017 234.703027 
" clip-path="url(#p9cb762617c)" style="fill: none; stroke: #313131"/>
   </g>
   <g id="line2d_89">
    <path d="M 415.005823 285.068313 
L 422.454211 285.068313 
" clip-path="url(#p9cb762617c)" style="fill: none; stroke: #313131; stroke-linecap: round"/>
   </g>
   <g id="line2d_90">
    <path d="M 415.005823 234.703027 
L 422.454211 234.703027 
" clip-path="url(#p9cb762617c)" style="fill: none; stroke: #313131; stroke-linecap: round"/>
   </g>
   <g id="line2d_91">
    <path d="M 381.488074 275.565429 
L 396.384851 275.565429 
" clip-path="url(#p9cb762617c)" style="fill: none; stroke: #313131"/>
   </g>
   <g id="line2d_92">
    <path d="M 396.384851 273.664852 
L 411.281628 273.664852 
" clip-path="url(#p9cb762617c)" style="fill: none; stroke: #313131"/>
   </g>
   <g id="line2d_93">
    <path d="M 411.281628 246.581632 
L 426.178405 246.581632 
" clip-path="url(#p9cb762617c)" style="fill: none; stroke: #313131"/>
   </g>
   <g id="patch_26">
    <path d="M 320.038869 305.452 
L 431.764697 305.452 
" style="fill: none; stroke: #262626; stroke-width: 1.875; stroke-linejoin: miter; stroke-linecap: square"/>
   </g>
   <g id="text_16">
    <!-- methyl -->
    <g style="fill: #262626" transform="translate(341.09372 39.168) scale(0.216 -0.216)">
     <defs>
      <path id="Arial-BoldMT-6d" d="M 394 3319 
L 1203 3319 
L 1203 2866 
Q 1638 3394 2238 3394 
Q 2556 3394 2790 3262 
Q 3025 3131 3175 2866 
Q 3394 3131 3647 3262 
Q 3900 3394 4188 3394 
Q 4553 3394 4806 3245 
Q 5059 3097 5184 2809 
Q 5275 2597 5275 2122 
L 5275 0 
L 4397 0 
L 4397 1897 
Q 4397 2391 4306 2534 
Q 4184 2722 3931 2722 
Q 3747 2722 3584 2609 
Q 3422 2497 3350 2280 
Q 3278 2063 3278 1594 
L 3278 0 
L 2400 0 
L 2400 1819 
Q 2400 2303 2353 2443 
Q 2306 2584 2207 2653 
Q 2109 2722 1941 2722 
Q 1738 2722 1575 2612 
Q 1413 2503 1342 2297 
Q 1272 2091 1272 1613 
L 1272 0 
L 394 0 
L 394 3319 
z
" transform="scale(0.015625)"/>
      <path id="Arial-BoldMT-74" d="M 1981 3319 
L 1981 2619 
L 1381 2619 
L 1381 1281 
Q 1381 875 1398 808 
Q 1416 741 1477 697 
Q 1538 653 1625 653 
Q 1747 653 1978 738 
L 2053 56 
Q 1747 -75 1359 -75 
Q 1122 -75 931 4 
Q 741 84 652 211 
Q 563 338 528 553 
Q 500 706 500 1172 
L 500 2619 
L 97 2619 
L 97 3319 
L 500 3319 
L 500 3978 
L 1381 4491 
L 1381 3319 
L 1981 3319 
z
" transform="scale(0.015625)"/>
      <path id="Arial-BoldMT-68" d="M 1334 4581 
L 1334 2897 
Q 1759 3394 2350 3394 
Q 2653 3394 2897 3281 
Q 3141 3169 3264 2994 
Q 3388 2819 3433 2606 
Q 3478 2394 3478 1947 
L 3478 0 
L 2600 0 
L 2600 1753 
Q 2600 2275 2550 2415 
Q 2500 2556 2373 2639 
Q 2247 2722 2056 2722 
Q 1838 2722 1666 2615 
Q 1494 2509 1414 2295 
Q 1334 2081 1334 1663 
L 1334 0 
L 456 0 
L 456 4581 
L 1334 4581 
z
" transform="scale(0.015625)"/>
      <path id="Arial-BoldMT-79" d="M 44 3319 
L 978 3319 
L 1772 963 
L 2547 3319 
L 3456 3319 
L 2284 125 
L 2075 -453 
Q 1959 -744 1854 -897 
Q 1750 -1050 1614 -1145 
Q 1478 -1241 1279 -1294 
Q 1081 -1347 831 -1347 
Q 578 -1347 334 -1294 
L 256 -606 
Q 463 -647 628 -647 
Q 934 -647 1081 -467 
Q 1228 -288 1306 -9 
L 44 3319 
z
" transform="scale(0.015625)"/>
     </defs>
     <use xlink:href="#Arial-BoldMT-6d"/>
     <use xlink:href="#Arial-BoldMT-65" x="88.916016"/>
     <use xlink:href="#Arial-BoldMT-74" x="144.53125"/>
     <use xlink:href="#Arial-BoldMT-68" x="177.832031"/>
     <use xlink:href="#Arial-BoldMT-79" x="238.916016"/>
     <use xlink:href="#Arial-BoldMT-6c" x="294.53125"/>
    </g>
   </g>
  </g>
  <g id="legend_1">
   <g id="text_17">
    <!-- enzyme -->
    <g style="fill: #262626" transform="translate(361.6155 143.445797) scale(0.216 -0.216)">
     <defs>
      <path id="ArialMT-79" d="M 397 -1278 
L 334 -750 
Q 519 -800 656 -800 
Q 844 -800 956 -737 
Q 1069 -675 1141 -563 
Q 1194 -478 1313 -144 
Q 1328 -97 1363 -6 
L 103 3319 
L 709 3319 
L 1400 1397 
Q 1534 1031 1641 628 
Q 1738 1016 1872 1384 
L 2581 3319 
L 3144 3319 
L 1881 -56 
Q 1678 -603 1566 -809 
Q 1416 -1088 1222 -1217 
Q 1028 -1347 759 -1347 
Q 597 -1347 397 -1278 
z
" transform="scale(0.015625)"/>
     </defs>
     <use xlink:href="#ArialMT-65"/>
     <use xlink:href="#ArialMT-6e" x="55.615234"/>
     <use xlink:href="#ArialMT-7a" x="111.230469"/>
     <use xlink:href="#ArialMT-79" x="161.230469"/>
     <use xlink:href="#ArialMT-6d" x="211.230469"/>
     <use xlink:href="#ArialMT-65" x="294.53125"/>
    </g>
   </g>
   <g id="patch_27">
    <path d="M 357.948 172.064391 
L 397.548 172.064391 
L 397.548 158.204391 
L 357.948 158.204391 
z
" style="fill: #5d9ba3; stroke: #313131; stroke-width: 1.5; stroke-linejoin: miter"/>
   </g>
   <g id="text_18">
    <!-- 0.0 -->
    <g style="fill: #262626" transform="translate(413.388 172.064391) scale(0.198 -0.198)">
     <use xlink:href="#ArialMT-30"/>
     <use xlink:href="#ArialMT-2e" x="55.615234"/>
     <use xlink:href="#ArialMT-30" x="83.398438"/>
    </g>
   </g>
   <g id="patch_28">
    <path d="M 357.948 200.072109 
L 397.548 200.072109 
L 397.548 186.212109 
L 357.948 186.212109 
z
" style="fill: #693072; stroke: #313131; stroke-width: 1.5; stroke-linejoin: miter"/>
   </g>
   <g id="text_19">
    <!-- 0.1 -->
    <g style="fill: #262626" transform="translate(413.388 200.072109) scale(0.198 -0.198)">
     <use xlink:href="#ArialMT-30"/>
     <use xlink:href="#ArialMT-2e" x="55.615234"/>
     <use xlink:href="#ArialMT-31" x="83.398438"/>
    </g>
   </g>
   <g id="patch_29">
    <path d="M 357.948 228.079828 
L 397.548 228.079828 
L 397.548 214.219828 
L 357.948 214.219828 
z
" style="fill: #e0a84d; stroke: #313131; stroke-width: 1.5; stroke-linejoin: miter"/>
   </g>
   <g id="text_20">
    <!-- 1.0 -->
    <g style="fill: #262626" transform="translate(413.388 228.079828) scale(0.198 -0.198)">
     <use xlink:href="#ArialMT-31"/>
     <use xlink:href="#ArialMT-2e" x="55.615234"/>
     <use xlink:href="#ArialMT-30" x="83.398438"/>
    </g>
   </g>
  </g>
 </g>
 <defs>
  <clipPath id="pe442440e19">
   <rect x="82.038" y="45.168" width="111.725828" height="260.284"/>
  </clipPath>
  <clipPath id="p212e468cb3">
   <rect x="201.038434" y="45.168" width="111.725828" height="260.284"/>
  </clipPath>
  <clipPath id="p9cb762617c">
   <rect x="320.038869" y="45.168" width="111.725828" height="260.284"/>
  </clipPath>
 </defs>
</svg>
